<svg width="180" height="270" viewBox="0 0 180 270" fill="none" xmlns="http://www.w3.org/2000/svg">
  <path fill-rule="evenodd" clip-rule="evenodd"
    d="M150 15C150 6.71573 156.716 0 165 0C173.284 0 180 6.71573 180 15V180C180 229.706 139.706 270 90 270C40.2944 270 0 229.706 0 180C0 130.294 40.2944 90 90 90C113.051 90 134.077 98.6656 150 112.917V15ZM90 120C123.137 120 150 146.863 150 180C150 213.137 123.137 240 90 240C56.8629 240 30 213.137 30 180C30 146.863 56.8629 120 90 120Z"
    fill="black" />
</svg>