<svg width="125" height="270" viewBox="0 0 125 270" fill="none" xmlns="http://www.w3.org/2000/svg">
  <path
    d="M20.0005 90C20.0005 78.181 22.3279 66.4778 26.8508 55.5585C31.3738 44.6392 38.0032 34.7176 46.3605 26.3604C54.7177 18.0031 64.6393 11.3737 75.5586 6.85082C86.4779 2.3279 98.1812 -1.14124e-05 110 0C118.284 0 125 6.71573 125 15C125 23.2843 118.284 30 110 30C109.91 30 109.819 29.9992 109.729 29.9976C101.942 30.0327 94.2345 31.5835 87.0378 34.5645C79.7579 37.5799 73.1433 41.9997 67.5715 47.5715C61.9996 53.1433 57.5798 59.7579 54.5645 67.0378C51.5491 74.3177 49.9969 82.1203 49.9969 90L50 90H55C63.2843 90 70 96.7157 70 105C70 113.284 63.2843 120 55 120H50V255C50 263.284 43.2843 270 35 270C26.7157 270 20 263.284 20 255L20.0004 120H15C6.7157 120 0 113.284 0 105C0 96.7157 6.7157 90 15 90L20.0005 90Z"
    fill="black" />
</svg>