<svg width="180" height="270" viewBox="0 0 180 270" fill="none" xmlns="http://www.w3.org/2000/svg">
  <path fill-rule="evenodd" clip-rule="evenodd"
    d="M90 180C113.051 180 134.077 171.334 150 157.083V180C150 187.879 148.449 195.682 145.434 202.961C142.418 210.241 137.999 216.855 132.427 222.427C126.855 227.999 120.241 232.418 112.961 235.434C105.682 238.449 97.8794 240.001 90 240.001C81.7157 240.001 75 246.716 75 255C75 263.284 81.7157 270 90 270C101.819 270 113.522 267.672 124.442 263.149C135.361 258.626 145.282 251.997 153.64 243.64C161.997 235.282 168.626 225.361 173.149 214.442C177.672 203.522 180 191.819 180 180V90C180 40.2944 139.706 0 90 0C40.2944 0 0 40.2944 0 90C0 139.706 40.2944 180 90 180ZM30 90C30 56.8629 56.8629 30 90 30C123.137 30 150 56.8629 150 90C150 123.137 123.137 150 90 150C56.8629 150 30 123.137 30 90Z"
    fill="black" />
</svg>