<svg width="180" height="253" viewBox="0 0 180 253" fill="none" xmlns="http://www.w3.org/2000/svg">
  <path
    d="M15 0C23.2843 0 30 6.71573 30 15V112.918C32.6554 110.543 35.4591 108.319 38.3997 106.261C53.5645 95.6493 71.6323 89.9711 90.1414 90.0001C108.65 90.0292 126.7 95.7642 141.832 106.424C156.963 117.083 168.44 132.149 174.699 149.567C180.957 166.986 181.693 185.911 176.806 203.763C171.919 221.615 161.647 237.527 147.389 249.329L147.386 249.325C144.811 251.404 141.535 252.648 137.969 252.648C129.684 252.648 122.969 245.933 122.969 237.648C122.969 232.834 125.237 228.548 128.764 225.804C138.01 217.979 144.675 207.536 147.876 195.843C151.134 183.941 150.644 171.323 146.471 159.71C142.298 148.096 134.646 138.052 124.557 130.945C114.469 123.838 102.435 120.014 90.0942 119.995C77.7538 119.975 65.7075 123.761 55.5968 130.836C45.486 137.912 37.8025 147.932 33.5933 159.533C31.2908 165.878 30.0891 172.527 30 179.199V180H29.9946C29.9946 185.259 30.686 190.526 32.0746 195.662C35.2671 207.469 41.9911 218.017 51.3422 225.893C54.8037 228.641 57.0234 232.886 57.0234 237.648C57.0234 245.933 50.3077 252.648 42.0234 252.648C38.3079 252.648 34.908 251.298 32.2878 249.06C18.1222 237.222 7.9386 221.313 3.11963 203.49C1.03699 195.787 0 187.888 0 180V15C0 6.71573 6.7157 0 15 0Z"
    fill="black" />
</svg>