<svg width="180" height="270" viewBox="0 0 180 270" fill="none" xmlns="http://www.w3.org/2000/svg">
  <path
    d="M15 0C23.2842 0 30 6.71573 30 15V177.516C37.8789 177.516 45.6807 175.964 52.9597 172.949C60.2388 169.934 66.8528 165.515 72.4238 159.943C77.9951 154.372 82.4143 147.758 85.4294 140.479C88.4446 133.2 89.9963 125.398 89.9963 117.52L90 117.52C90 109.235 96.7158 102.52 105 102.52C113.284 102.52 120 109.235 120 117.52C120 129.338 117.672 141.042 113.149 151.961C111.065 156.991 108.535 161.81 105.594 166.361C112.043 167.496 118.364 169.333 124.441 171.851C135.361 176.374 145.282 183.003 153.64 191.36C161.997 199.718 168.626 209.639 173.149 220.558C177.672 231.478 180 243.181 180 255C180 263.284 173.284 270 165 270C156.716 270 150 263.284 150 255H149.997C149.997 247.121 148.445 239.319 145.43 232.04C142.415 224.761 137.995 218.147 132.424 212.576C126.853 207.005 120.239 202.585 112.96 199.57C105.681 196.555 97.8789 195.003 90 195.003C82.1211 195.003 74.3193 196.555 67.0403 199.57C59.761 202.585 53.147 207.005 47.5759 212.576C42.0046 218.147 37.5852 224.761 34.5703 232.04C31.5552 239.319 30.0032 247.121 30.0032 255H30C30 263.284 23.2842 270 15 270C6.71582 270 0 263.284 0 255V15C0 6.71573 6.71582 0 15 0Z"
    fill="black" />
</svg>