<svg width="105" height="270" viewBox="0 0 105 270" fill="none" xmlns="http://www.w3.org/2000/svg">
  <path
    d="M15 -6.10352e-05C23.2842 -6.10352e-05 30 6.71567 30 14.9999L29.9937 180C29.9937 195.915 36.3154 211.178 47.5688 222.431C58.7271 233.589 73.8271 239.899 89.5959 240.005C89.7302 240.002 89.8647 240 90 240C98.2842 240 105 246.716 105 255C105 263.284 98.2842 270 90 270C66.1306 270 43.2388 260.518 26.3604 243.64C9.48218 226.761 0.000488281 203.869 0.000488281 180L0 14.9999C0 6.71567 6.71582 -6.10352e-05 15 -6.10352e-05Z"
    fill="black" />
</svg>