<svg width="180" height="163" viewBox="0 0 180 163" fill="none" xmlns="http://www.w3.org/2000/svg">
  <path
    d="M3.1197 113.492C7.93879 131.316 18.1234 147.225 32.2901 159.064C34.91 161.3 38.3092 162.65 42.0235 162.65C50.3077 162.65 57.0235 155.934 57.0235 147.65C57.0235 142.888 54.804 138.643 51.3431 135.896C41.9915 128.019 35.2672 117.471 32.0748 105.663C28.8538 93.7505 29.3841 81.1345 33.5933 69.5341C37.8026 57.9337 45.4862 47.9132 55.5967 40.838C61.5118 36.6989 68.0889 33.6856 75.0001 31.9013V88.0016C75.0001 96.2858 81.7159 103.002 90.0001 103.002C98.2842 103.002 105 96.2858 105 88.0016V31.9013C111.972 33.7014 118.604 36.7521 124.558 40.9463C134.646 48.0532 142.298 58.0978 146.471 69.7113C150.644 81.3249 151.134 93.9425 147.876 105.845C144.675 117.538 138.009 127.982 128.762 135.807C125.237 138.552 122.969 142.836 122.969 147.65C122.969 155.934 129.685 162.65 137.969 162.65C141.535 162.65 144.811 161.405 147.386 159.326L147.389 159.33C161.647 147.528 171.919 131.617 176.806 113.765C181.693 95.9124 180.957 76.9876 174.699 59.5689C168.44 42.1502 156.963 27.0846 141.832 16.4252C126.7 5.76574 108.65 0.0307354 90.1414 0.00166744C71.6324 -0.0274005 53.5645 5.65088 38.3997 16.2628C23.2349 26.8747 11.7108 41.9041 5.39753 59.3031C-0.915945 76.7021 -1.71136 95.6245 3.1197 113.492Z"
    fill="black" />
</svg>