<svg width="163" height="180" viewBox="0 0 163 180" fill="none" xmlns="http://www.w3.org/2000/svg">
  <path
    d="M16.3589 38.2611C5.71289 53.4137 0.000488281 71.4815 0.000488281 90L0 165C0 173.284 6.71582 180 15 180C23.2842 180 30 173.284 30 165V90.0001L29.9937 90C29.9937 77.6529 33.8025 65.6064 40.9006 55.5035C47.9985 45.4007 58.0403 37.7333 69.6562 33.5472C81.272 29.3611 93.8965 28.8602 105.807 32.1126C117.519 35.3107 127.981 41.9847 135.815 51.2467L135.817 51.2484C138.561 54.7822 142.85 57.0562 147.671 57.0562C155.955 57.0562 162.671 50.3405 162.671 42.0562C162.671 38.4671 161.41 35.1724 159.308 32.5907L159.311 32.5883C147.498 18.3269 131.573 8.0568 113.708 3.17866C95.8438 -1.69946 76.9092 -0.948091 59.4875 5.33032C42.0657 11.6087 27.0049 23.1085 16.3589 38.2611Z"
    fill="black" />
</svg>