<svg width="105" height="270" viewBox="0 0 105 270" fill="none" xmlns="http://www.w3.org/2000/svg">
  <path
    d="M15 -0.000183105C23.2842 -0.000183105 30 6.71562 30 14.9999V89.9999H75C83.2842 89.9999 90 96.7156 90 105C90 113.284 83.2842 120 75 120H30L29.9937 180C29.9971 187.88 31.5488 195.682 34.5645 202.962C37.5801 210.242 41.9995 216.857 47.5713 222.428C53.1431 228 59.7578 232.42 67.0376 235.436C74.3179 238.451 82.1201 240.003 90 240.004C98.2842 240.004 105 246.72 105 255.004C105 263.289 98.2842 270.004 90 270.004L89.877 270.004C89.7847 270.003 89.6929 270.001 89.6016 269.999C77.918 269.947 66.355 267.621 55.5586 263.149C44.6392 258.626 34.7178 251.997 26.3604 243.64C18.0029 235.282 11.3735 225.361 6.85059 214.441C2.32812 203.522 0.000488281 191.819 0.000488281 180L0 14.9999C0 6.71562 6.71582 -0.000183105 15 -0.000183105Z"
    fill="black" />
</svg>