<svg width="180" height="163" viewBox="0 0 180 163" fill="none" xmlns="http://www.w3.org/2000/svg">
  <path
    d="M57.0235 15.3515C57.0235 7.06728 50.3077 0.351547 42.0235 0.351547C38.3092 0.351547 34.9097 1.70168 32.2901 3.93797C18.1231 15.7761 7.93904 31.6855 3.1197 49.5097C-1.71136 67.3771 -0.915945 86.2995 5.39753 103.699C11.711 121.098 23.2349 136.127 38.4 146.739C53.5645 157.351 71.6324 163.029 90.1412 163C108.65 162.971 126.7 157.236 141.832 146.576C156.963 135.917 168.44 120.851 174.699 103.433C180.957 86.0139 181.693 67.0891 176.806 49.2369C171.92 31.3848 161.647 15.4734 147.389 3.67107L147.386 3.67525C144.812 1.59637 141.535 0.351547 137.969 0.351547C129.685 0.351547 122.969 7.06728 122.969 15.3515C122.969 20.1656 125.237 24.45 128.762 27.1946C138.009 35.0194 144.675 45.4635 147.876 57.1566C151.134 69.0591 150.644 81.6767 146.471 93.2903C142.298 104.904 134.646 114.948 124.558 122.055C114.469 129.162 102.435 132.986 90.0943 133.005C77.754 133.025 65.7076 129.239 55.5967 122.164C45.4859 115.088 37.8028 105.068 33.5933 93.4675C29.3839 81.8671 28.8536 69.2511 32.0748 57.3384C35.2672 45.5304 41.9913 34.9827 51.3428 27.1059C54.8038 24.3581 57.0235 20.114 57.0235 15.3515Z"
    fill="black" />
</svg>