<svg width="180" height="163" viewBox="0 0 180 163" fill="none" xmlns="http://www.w3.org/2000/svg">
  <path
    d="M57.0235 15.3516C57.0235 7.06729 50.3077 0.351562 42.0235 0.351562C38.3092 0.351562 34.9097 1.70169 32.2901 3.93798C18.1231 15.7761 7.93904 31.6856 3.1197 49.5097C-1.71136 67.3771 -0.915945 86.2995 5.39753 103.699C11.711 121.098 23.2349 136.127 38.4 146.739C53.5645 157.351 71.6324 163.029 90.1412 163C108.65 162.971 126.7 157.236 141.832 146.576C156.963 135.917 168.44 120.851 174.699 103.433C180.957 86.0139 181.693 67.0891 176.806 49.237C171.92 31.3848 161.647 15.4735 147.389 3.67108L147.386 3.67527C144.812 1.59639 141.535 0.351562 137.969 0.351562C129.685 0.351562 122.969 7.06729 122.969 15.3516C122.969 20.1656 125.237 24.45 128.762 27.1946C138.009 35.0194 144.675 45.4635 147.876 57.1566C151.134 69.0591 150.644 81.6767 146.471 93.2903C142.298 104.904 134.646 114.948 124.558 122.055C118.604 126.25 111.972 129.3 105 131.1V75C105 66.7157 98.2842 60 90.0001 60C81.7159 60 75.0001 66.7157 75.0001 75V131.1C68.0889 129.316 61.5118 126.303 55.5967 122.164C45.4859 115.088 37.8028 105.068 33.5933 93.4675C29.3839 81.8671 28.8536 69.2511 32.0748 57.3384C35.2672 45.5304 41.9913 34.9827 51.3428 27.1059C54.8038 24.3582 57.0235 20.1141 57.0235 15.3516Z"
    fill="black" />
</svg>