<svg width="180" height="253" viewBox="0 0 180 253" fill="none" xmlns="http://www.w3.org/2000/svg">
  <path
    d="M57.0313 15.35C57.0313 7.0657 50.3154 0.349976 42.0313 0.349976C38.4648 0.349976 35.1885 1.5948 32.6143 3.67368L32.6108 3.66949C18.353 15.4719 8.08106 31.3832 3.19385 49.2354C-1.69336 67.0876 -0.957028 86.0124 5.30127 103.431C11.5601 120.85 23.0371 135.915 38.1685 146.575C49.21 154.353 61.8057 159.509 75 161.74V237.998C75 246.283 81.7158 252.998 90 252.998C98.2842 252.998 105 246.283 105 237.998V161.74C118.1 159.525 130.612 154.426 141.6 146.737C156.765 136.125 168.289 121.096 174.603 103.697C180.916 86.2979 181.711 67.3755 176.88 49.5081C172.061 31.684 161.877 15.7746 147.71 3.93639C145.09 1.7001 141.691 0.349976 137.977 0.349976C129.692 0.349976 122.977 7.0657 122.977 15.35C122.977 20.1125 125.196 24.3566 128.657 27.1043C138.009 34.9812 144.733 45.5288 147.925 57.3368C151.146 69.2495 150.616 81.8655 146.407 93.4659C142.197 105.066 134.514 115.087 124.403 122.162C114.292 129.237 102.246 133.023 89.9058 133.004C77.5654 132.984 65.5313 129.161 55.4424 122.054C45.354 114.947 37.7022 104.902 33.5293 93.2887C29.3564 81.6751 28.8657 69.0575 32.124 57.155C35.3252 45.4619 41.9907 35.0178 51.2378 27.193C54.7632 24.4484 57.0313 20.164 57.0313 15.35Z"
    fill="black" />
</svg>