<svg width="154" height="180" viewBox="0 0 154 180" fill="none" xmlns="http://www.w3.org/2000/svg">
  <path
    d="M150.896 38.3417C142.947 27.0009 132.488 17.6475 120.333 11.0099C108.177 4.37229 94.6543 0.629448 80.8159 0.0727462C66.978 -0.483955 53.1978 2.16051 40.5488 7.80028C28.0532 13.3716 16.9941 21.7173 8.21094 32.201C5.91211 34.8369 4.51953 38.2839 4.51953 42.0562C4.51953 50.3405 11.2354 57.0562 19.5195 57.0562C24.1201 57.0562 28.2378 54.9851 30.9893 51.7241L31.0342 51.67L31.084 51.6098C31.8184 50.7276 32.5771 49.868 33.3584 49.0318C38.8286 43.1782 45.4248 38.4701 52.7642 35.1978C61.1973 31.4378 70.3843 29.6747 79.6104 30.0459C88.8364 30.417 97.8521 32.9123 105.956 37.3376C109.544 39.2969 112.91 41.6112 116.008 44.2382L7.0459 120.989C3.21289 123.707 0.712891 128.18 0.712891 133.236C0.712891 136.358 1.66455 139.258 3.2959 141.658C11.2451 152.999 21.7046 162.352 33.8599 168.99C46.0151 175.628 59.5381 179.371 73.3765 179.927C87.2148 180.484 100.995 177.84 113.644 172.2C126.143 166.627 137.205 158.278 145.99 147.79C148.284 145.155 149.673 141.712 149.673 137.944C149.673 129.66 142.958 122.944 134.673 122.944C130.072 122.944 125.955 125.015 123.203 128.276L123.158 128.33L123.108 128.391C117.233 135.448 109.816 141.062 101.428 144.802C92.9951 148.562 83.8081 150.325 74.5825 149.954C65.3564 149.583 56.3408 147.088 48.2368 142.662C44.646 140.702 41.2773 138.385 38.1777 135.756L146.733 59.2913C150.798 56.6079 153.479 51.9991 153.479 46.7639C153.479 43.6424 152.528 40.7424 150.896 38.3417Z"
    fill="black" />
</svg>