<svg width="180" height="270" viewBox="0 0 180 270" fill="none" xmlns="http://www.w3.org/2000/svg">
  <path fill-rule="evenodd" clip-rule="evenodd"
    d="M90 60C106.568 60 120 46.5685 120 30C120 13.4315 106.568 0 90 0C73.4316 0 60 13.4315 60 30C60 46.5685 73.4316 60 90 60ZM90 44.9896C81.7217 44.9896 75.0103 38.2785 75.0103 30C75.0103 21.7215 81.7217 15.0104 90 15.0104C98.2783 15.0104 104.99 21.7215 104.99 30C104.99 38.2785 98.2783 44.9896 90 44.9896Z"
    fill="black" />
  <path fill-rule="evenodd" clip-rule="evenodd"
    d="M165 270C156.716 270 150 263.284 150 255V247.083C134.077 261.334 113.051 270 90 270C40.2944 270 0 229.706 0 180C0 130.294 40.2944 90 90 90C139.706 90 180 130.294 180 180V255C180 263.284 173.284 270 165 270ZM90 240C123.137 240 150 213.137 150 180C150 146.863 123.137 120 90 120C56.8628 120 30 146.863 30 180C30 213.137 56.8628 240 90 240Z"
    fill="black" />
</svg>