<svg width="180" height="270" viewBox="0 0 180 270" fill="none" xmlns="http://www.w3.org/2000/svg">
  <path fill-rule="evenodd" clip-rule="evenodd"
    d="M150 60C150 75.9717 143.759 90.4859 133.583 101.237C161.264 116.587 180.001 146.105 180.001 180C180.001 197.895 174.778 214.571 165.773 228.585L177.577 246.861C182.071 253.82 180.073 263.105 173.114 267.599C166.155 272.094 156.871 270.096 152.376 263.137L144.796 251.402C129.621 263.065 110.621 270 90.001 270C40.2954 270 0.000976562 229.705 0.000976562 180C0.000976562 146.106 18.7368 116.588 46.417 101.238C36.2407 90.4864 30 75.972 30 60C30 26.8629 56.8633 0 90 0C123.137 0 150 26.8629 150 60ZM90 120L89.5347 119.998C56.6108 120.249 29.998 147.016 29.998 180C29.998 213.138 56.8623 240.003 90.001 240.003C123.14 240.003 150.004 213.138 150.004 180C150.004 147.016 123.391 120.248 90.4663 119.998L90 120ZM60 60C60 76.5685 73.4326 89.9995 90.001 89.9995C106.569 89.9995 120 76.5685 120 60C120 43.4315 106.569 30 90 30C73.4316 30 60 43.4315 60 60Z"
    fill="black" />
</svg>