<svg width="153" height="350" viewBox="0 0 153 350" fill="none" xmlns="http://www.w3.org/2000/svg">
  <path
    d="M141.179 30.1191C147.631 28.4421 152.394 22.5771 152.394 15.6001C152.394 7.31583 145.679 0.600098 137.394 0.600098C135.973 0.600098 134.598 0.797747 133.295 1.16706C95.0693 11.4373 61.2935 34.0213 37.1964 65.4251C13.0747 96.8611 0 135.378 0 175.002C0 214.626 13.0747 253.143 37.1964 284.579C61.3181 316.015 95.1385 338.613 133.413 348.869L133.413 348.867C134.681 349.215 136.016 349.401 137.394 349.401C145.679 349.401 152.394 342.685 152.394 334.401C152.394 327.356 147.538 321.446 140.991 319.835C109.174 311.265 81.0629 292.457 61.0017 266.313C40.9011 240.117 30.006 208.021 30.006 175.002C30.006 141.983 40.9011 109.887 61.0017 83.6916C81.1023 57.496 109.285 38.665 141.179 30.1191Z"
    fill="black" />
</svg>