<svg width="153" height="350" viewBox="0 0 153 350" fill="none" xmlns="http://www.w3.org/2000/svg">
  <path
    d="M11.2156 30.1191C4.76343 28.4421 0 22.5771 0 15.6001C0 7.31583 6.7157 0.600098 15 0.600098C16.4213 0.600098 17.7963 0.797747 19.0991 1.16706C57.325 11.4373 91.1008 34.0213 115.198 65.4251C139.32 96.8611 152.394 135.378 152.394 175.002C152.394 214.626 139.32 253.143 115.198 284.579C91.0762 316.015 57.2557 338.613 18.9817 348.869L18.9812 348.867C17.7134 349.215 16.3784 349.401 15 349.401C6.7157 349.401 0 342.685 0 334.401C0 327.356 4.85608 321.446 11.4034 319.835C43.2201 311.265 71.3314 292.457 91.3926 266.313C111.493 240.117 122.388 208.021 122.388 175.002C122.388 141.983 111.493 109.887 91.3926 83.6916C71.292 57.496 43.1093 38.665 11.2156 30.1191Z"
    fill="black" />
</svg>