<svg width="134" height="150" viewBox="0 0 134 150" fill="none" xmlns="http://www.w3.org/2000/svg">
  <path
    d="M51.9999 15C51.9999 6.71573 58.7157 0 66.9999 0C75.2846 0 81.9999 6.71573 81.9999 15V49.0193L111.462 32.0095C118.636 27.8674 127.81 30.3255 131.952 37.4999C136.094 44.6743 133.636 53.8481 126.462 57.9903L97.0004 74.9999L126.462 92.0095C133.636 96.1516 136.094 105.325 131.952 112.5C127.81 119.674 118.636 122.132 111.462 117.99L81.9999 100.98V135C81.9999 143.284 75.2846 150 66.9999 150C58.7157 150 51.9999 143.284 51.9999 135V100.981L22.5385 117.99C15.3642 122.132 6.19035 119.674 2.04826 112.5C-2.09383 105.326 0.364175 96.1516 7.53849 92.0095L36.9999 74.9999L7.53849 57.9902C0.364175 53.8481 -2.09383 44.6742 2.04826 37.4999C6.19035 30.3255 15.3642 27.8673 22.5385 32.0095L51.9999 49.019V15Z"
    fill="black" />
</svg>