<svg width="234" height="270" viewBox="0 0 234 270" fill="none" xmlns="http://www.w3.org/2000/svg">
  <path
    d="M150.289 269.918C173.947 270.744 197.405 265.335 218.312 254.233C223.182 251.754 226.518 246.695 226.518 240.857C226.518 232.573 219.802 225.857 211.518 225.857C208.82 225.857 206.289 226.569 204.102 227.815C187.876 236.399 169.683 240.58 151.336 239.939C132.915 239.296 114.988 233.815 99.3564 224.048C83.7256 214.28 70.9414 200.57 62.2881 184.296C59.0029 178.117 56.3574 171.652 54.374 165H166C171.522 165 176 160.523 176 155C176 149.477 171.522 145 166 145H50.4746C50.041 140.473 49.9014 135.909 50.0605 131.335C50.1348 129.216 50.2725 127.103 50.4736 125H185C190.522 125 195 120.523 195 115C195 109.477 190.522 105 185 105H54.373C57.0537 96.0099 60.9385 87.3809 65.9521 79.3569C75.7197 63.7258 89.4297 50.9411 105.704 42.2879C121.979 33.6346 140.244 29.4177 158.665 30.061C176.991 30.701 194.829 36.1293 210.404 45.8034C212.78 47.3838 215.633 48.3047 218.701 48.3047C226.985 48.3047 233.701 41.589 233.701 33.3047C233.701 27.8725 230.813 23.1148 226.489 20.4827C206.404 7.94425 183.375 0.90861 159.712 0.0822546C136.028 -0.744777 112.545 4.67681 91.6211 15.8021C70.6973 26.9274 53.0713 43.3643 40.5137 63.4609C32.4893 76.3035 26.7148 90.3514 23.376 105H10C4.47754 105 0 109.477 0 115C0 120.523 4.47754 125 10 125H20.3711C20.2402 126.759 20.1436 128.522 20.082 130.289C19.9102 135.208 20.0078 140.119 20.3701 145H10C4.47754 145 0 149.477 0 155C0 160.523 4.47754 165 10 165H23.375C26.0137 176.577 30.1797 187.805 35.8018 198.379C46.9277 219.302 63.3643 236.929 83.4609 249.487C103.558 262.044 126.605 269.091 150.289 269.918Z"
    fill="black" />
</svg>