<svg width="30" height="130" viewBox="0 0 30 130" fill="none" xmlns="http://www.w3.org/2000/svg">
  <path d="M15 30C23.2843 30 30 23.2843 30 15C30 6.71573 23.2843 0 15 0C6.71573 0 0 6.71573 0 15C0 23.2843 6.71573 30 15 30Z" fill="black" />
  <path d="M30 65C30 73.2843 23.2843 80 15 80C6.71573 80 0 73.2843 0 65C0 56.7157 6.71573 50 15 50C23.2843 50 30 56.7157 30 65Z" fill="black" />
  <path d="M30 115C30 123.284 23.2843 130 15 130C6.71573 130 0 123.284 0 115C0 106.716 6.71573 100 15 100C23.2843 100 30 106.716 30 115Z"
    fill="black" />
</svg>