<svg width="40" height="148" viewBox="0 0 40 148" fill="none" xmlns="http://www.w3.org/2000/svg">
  <path d="M40 15C40 23.2843 33.2843 30 25 30C16.7157 30 10 23.2843 10 15C10 6.71573 16.7157 0 25 0C33.2843 0 40 6.71573 40 15Z" fill="black" />
  <path d="M40 65C40 73.2843 33.2843 80 25 80C16.7157 80 10 73.2843 10 65C10 56.7157 16.7157 50 25 50C33.2843 50 40 56.7157 40 65Z" fill="black" />
  <path
    d="M10 115C10 120.922 13.432 126.043 18.4156 128.481C13.6732 132.373 8.48645 135.717 2.95203 138.437C1.21173 139.22 0 140.968 0 143C0 145.761 2.23859 148 5 148C5.84161 148 6.63458 147.792 7.33051 147.425L7.3313 147.426C18.3491 142.016 28.143 134.41 36.1116 125.077C38.5278 122.414 40 118.879 40 115C40 106.716 33.2843 100 25 100C16.7157 100 10 106.716 10 115Z"
    fill="black" />
</svg>