<svg width="163" height="172" viewBox="0 0 163 172" fill="none" xmlns="http://www.w3.org/2000/svg">
  <path
    d="M0.334961 90C0.334961 71.5008 6.03564 53.4509 16.6609 38.3074C27.2861 23.1639 42.3198 11.6625 59.7156 5.36874C77.1113 -0.924995 96.0239 -1.70527 113.879 3.13412C131.674 7.95718 147.556 18.1285 159.38 32.2704C161.626 34.8929 162.983 38.2995 162.983 42.0231C162.983 50.3074 156.268 57.0231 147.983 57.0231C143.216 57.0231 138.969 54.7994 136.221 51.3327C128.354 41.996 117.822 35.2793 106.032 32.0837C94.1279 28.8572 81.5183 29.3774 69.9202 33.5736C58.3218 37.7699 48.2983 45.4382 41.2141 55.5349C35.8535 63.1749 32.3728 71.9246 30.9966 81.0739L154.392 142.758C159.476 145.159 162.993 150.333 162.993 156.328C162.993 164.613 156.277 171.328 147.993 171.328C145.484 171.328 143.118 170.712 141.04 169.623L6.57031 102.403L6.65454 102.235C2.83008 99.5162 0.334961 95.0495 0.334961 90Z"
    fill="black" />
</svg>