<svg width="180" height="270" viewBox="0 0 180 270" fill="none" xmlns="http://www.w3.org/2000/svg">
  <path
    d="M15.1677 39.9987C5.27832 54.7991 0 72.1997 0 90C0 98.2843 6.71582 105 15 105C23.2842 105 30 98.2843 30 90L29.9995 89.8957L29.9976 89.7327C30.05 77.9584 33.5657 66.4575 40.1094 56.6642C46.7026 46.7967 56.0737 39.106 67.0378 34.5645C78.002 30.023 90.0667 28.8347 101.706 31.15C113.345 33.4652 124.037 39.1799 132.428 47.5715C140.82 55.9631 146.535 66.6546 148.85 78.2941C151.165 89.9335 149.977 101.998 145.436 112.962C140.894 123.926 133.203 133.298 123.336 139.891C113.543 146.434 102.043 149.949 90.27 150.002C90.1802 150.001 90.0903 150 90 150C81.7158 150 75 156.716 75 165C75 173.284 81.7158 180 90 180C107.8 180 125.201 174.722 140.001 164.832C154.802 154.943 166.337 140.887 173.149 124.442C179.961 107.996 181.743 89.9002 178.271 72.4419C174.798 54.9836 166.226 38.9472 153.64 26.3604C141.053 13.7737 125.016 5.20204 107.558 1.72937C90.0999 -1.7433 72.0039 0.0389924 55.5586 6.85088C39.113 13.6628 25.0571 25.1983 15.1677 39.9987Z"
    fill="black" />
  <path d="M90 270C98.2842 270 105 263.284 105 255C105 246.716 98.2842 240 90 240C81.7158 240 75 246.716 75 255C75 263.284 81.7158 270 90 270Z"
    fill="black" />
</svg>