<svg width="120" height="348" viewBox="0 0 120 348" fill="none" xmlns="http://www.w3.org/2000/svg">
  <path
    d="M0 90C0 66.1305 9.48218 43.2387 26.3604 26.3604C43.2386 9.48211 66.1305 0 90 0H105C113.284 0 120 6.71573 120 15C120 23.2843 113.284 30 105 30H90V29.997C74.0862 29.997 58.8242 36.3187 47.5715 47.5715C36.3187 58.8242 29.9969 74.0862 29.9969 90L30 90V258H29.9969C29.9969 273.914 36.3187 289.176 47.5715 300.429C58.8242 311.681 74.0862 318.003 90 318.003V318H105C113.284 318 120 324.716 120 333C120 341.284 113.284 348 105 348H90C66.1305 348 43.2386 338.518 26.3604 321.64C9.48218 304.761 0 281.869 0 258V90Z"
    fill="black" />
</svg>