<svg width="150" height="30" viewBox="0 0 150 30" fill="none" xmlns="http://www.w3.org/2000/svg">
  <path
    d="M90 15.0024C90 23.2867 83.2843 30.0024 75 30.0024C66.7157 30.0024 60 23.2867 60 15.0024C60 6.71817 66.7157 0.00244141 75 0.00244141C83.2843 0.00244141 90 6.71817 90 15.0024Z"
    fill="black" />
  <path
    d="M150 15.0024C150 23.2867 143.284 30.0024 135 30.0024C126.716 30.0024 120 23.2867 120 15.0024C120 6.71817 126.716 0.00244141 135 0.00244141C143.284 0.00244141 150 6.71817 150 15.0024Z"
    fill="black" />
  <path d="M30 15C30 23.2843 23.2843 30 15 30C6.71573 30 0 23.2843 0 15C0 6.71573 6.71573 0 15 0C23.2843 0 30 6.71573 30 15Z" fill="black" />
</svg>