<svg width="180" height="270" viewBox="0 0 180 270" fill="none" xmlns="http://www.w3.org/2000/svg">
  <path d="M90 150C98.2842 150 105 143.284 105 135C105 126.716 98.2842 120 90 120C81.7158 120 75 126.716 75 135C75 143.284 81.7158 150 90 150Z"
    fill="black" />
  <path fill-rule="evenodd" clip-rule="evenodd"
    d="M174.852 59.9985C178.2 69.466 179.944 79.4369 180 89.4985C180 89.6652 180 89.8318 180 89.9985V179.999L180 180.165C180 180.276 180 180.387 180 180.499C179.944 190.56 178.2 200.531 174.852 209.999C174.324 211.492 173.756 212.973 173.149 214.44C168.626 225.359 161.996 235.281 153.639 243.638C145.282 251.995 135.36 258.625 124.441 263.148C113.522 267.671 101.818 269.999 89.9995 269.999C78.1807 269.999 66.4773 267.671 55.5581 263.148C44.6387 258.625 34.7173 251.995 26.3599 243.638C18.0027 235.281 11.3733 225.359 6.85034 214.44C6.24268 212.973 5.6748 211.492 5.14673 209.999C1.79932 200.531 0.0554199 190.56 -0.000488281 180.499L-0.000976562 180.323L-0.000488281 179.999V89.9985L-0.000976562 89.6228L-0.000488281 89.4985C0.0554199 79.4369 1.79932 69.466 5.14673 59.9985C5.6748 58.505 6.24268 57.0239 6.85034 55.557C11.3733 44.6377 18.0027 34.7162 26.3599 26.3589C34.7173 18.0016 44.6387 11.3723 55.5581 6.84938C66.4773 2.32645 78.1807 -0.00146484 89.9995 -0.00146484C101.818 -0.00146484 113.522 2.32646 124.441 6.84938C135.36 11.3723 145.282 18.0016 153.639 26.3589C161.996 34.7162 168.626 44.6377 173.149 55.557C173.756 57.0239 174.324 58.505 174.852 59.9985ZM29.9995 89.4985C30.0637 81.7889 31.6118 74.1622 34.5637 67.0362C37.5791 59.7563 41.9988 53.1416 47.5708 47.5697C53.1426 41.9979 59.7573 37.5781 67.0371 34.5626C74.3171 31.5472 82.1196 29.9951 89.9995 29.9951C97.8792 29.9951 105.682 31.5472 112.962 34.5626C120.242 37.5781 126.856 41.9979 132.428 47.5697C138 53.1416 142.42 59.7563 145.435 67.0362C148.387 74.1622 149.935 81.7889 150 89.4985V180.499C149.935 188.208 148.387 195.835 145.435 202.961C142.42 210.241 138 216.856 132.428 222.427C126.856 227.999 120.242 232.419 112.962 235.434C105.682 238.45 97.8792 240.002 89.9995 240.002C82.1196 240.002 74.3171 238.45 67.0371 235.434C59.7573 232.419 53.1426 227.999 47.5708 222.427C41.9988 216.855 37.5791 210.241 34.5637 202.961C31.6118 195.835 30.0637 188.208 29.9995 180.499V89.4985Z"
    fill="black" />
</svg>