<svg width="171" height="270" viewBox="0 0 171 270" fill="none" xmlns="http://www.w3.org/2000/svg">
  <path
    d="M3.06674 45C9.51758 33.8268 18.2952 24.1712 28.8047 16.6876C39.3141 9.20403 51.3097 4.06745 63.9783 1.62606C76.6468 -0.815327 89.6922 -0.504447 102.23 2.53763C114.768 5.5797 126.505 11.2819 136.646 19.2576C146.787 27.2333 155.095 37.2961 161.006 48.7638C166.918 60.2316 170.294 72.8362 170.907 85.7233C171.52 98.6104 169.356 111.479 164.56 123.456C159.764 135.433 152.449 146.239 143.111 155.141L54.0923 240H156C164.284 240 171 246.716 171 255C171 263.284 164.284 270 156 270H16.6406V269.996H16.6201C8.33585 269.996 1.62012 263.28 1.62012 254.996C1.62012 250.65 3.46866 246.735 6.42244 243.996L122.414 133.422L122.417 133.425C128.64 127.491 133.516 120.288 136.712 112.305C139.91 104.32 141.353 95.7405 140.944 87.1487C140.536 78.5569 138.284 70.1534 134.343 62.5078C130.402 54.8623 124.863 48.1534 118.102 42.836C111.341 37.5186 103.516 33.717 95.1571 31.6888C86.7981 29.6607 78.1008 29.4534 69.6546 31.0811C61.2085 32.7088 53.211 36.1333 46.2044 41.1226C39.1977 46.1119 33.3457 52.5494 29.0449 59.9985C26.499 64.6546 21.5558 67.8125 15.875 67.8125C7.59073 67.8125 0.875 61.0968 0.875 52.8125C0.875 49.9505 1.6759 47.2753 3.06674 45Z"
    fill="black" />
</svg>