<svg width="174" height="270" viewBox="0 0 174 270" fill="none" xmlns="http://www.w3.org/2000/svg">
  <path
    d="M24.227 29.6993C24.2942 29.6089 24.3622 29.5195 24.4314 29.4307C36.437 13.7369 54.1551 3.41053 73.7382 0.705647C93.4424 -2.01595 113.421 3.20137 129.278 15.2099C145.135 27.2184 155.573 45.0343 158.295 64.7385C160.763 82.6122 156.7 100.711 146.96 115.756C150.537 119.265 153.829 123.08 156.794 127.17C166.67 140.79 172.53 156.906 173.71 173.688C174.89 190.47 171.342 207.247 163.469 222.115C155.597 236.983 143.715 249.347 129.171 257.804C114.627 266.26 98.004 270.471 81.1882 269.958C64.3723 269.446 48.0369 264.23 34.0354 254.903C20.0831 245.609 9.00504 232.603 2.04837 217.352C1.06552 215.356 0.513428 213.11 0.513428 210.735C0.513428 202.45 7.22916 195.735 15.5134 195.735C21.6974 195.735 27.0073 199.477 29.3023 204.82C33.9379 215.023 41.3384 223.724 50.6657 229.938C60.0005 236.156 70.8914 239.634 82.1025 239.975C93.3137 240.317 104.396 237.51 114.093 231.872C123.789 226.234 131.711 217.991 136.959 208.078C142.208 198.166 144.573 186.981 143.787 175.792C143 164.603 139.093 153.859 132.509 144.778C125.925 135.698 116.928 128.644 106.538 124.419C96.1994 120.214 84.8942 118.976 73.8929 120.843C73.0003 121.009 72.08 121.095 71.1394 121.095C62.8551 121.095 56.1394 114.379 56.1394 106.095C56.1394 98.5245 61.748 92.2637 69.0368 91.2413C85.4868 88.4808 102.383 90.3458 117.839 96.6321C119.353 97.2476 120.846 97.9032 122.319 98.5977C127.771 89.7447 130.013 79.2304 128.579 68.8429C126.946 57.0199 120.683 46.3299 111.168 39.1245C101.653 31.9191 89.6656 28.7885 77.8427 30.4216C66.1473 32.037 55.5606 38.1827 48.3589 47.5251C45.6282 51.2355 41.2303 53.6431 36.27 53.6431C27.9857 53.6431 21.27 46.9274 21.27 38.6431C21.27 35.3018 22.3625 32.2157 24.2098 29.7224L24.227 29.6993Z"
    fill="black" />
</svg>