<svg width="180" height="270" viewBox="0 0 180 270" fill="none" xmlns="http://www.w3.org/2000/svg">
  <path fill-rule="evenodd" clip-rule="evenodd"
    d="M90 0C40.2944 0 0 40.2944 0 90C0 139.706 40.2944 180 90 180C113.051 180 134.077 171.334 150 157.083V180H150.003C150.003 191.867 146.484 203.468 139.891 213.336C133.297 223.203 123.926 230.894 112.962 235.436C101.998 239.977 89.9335 241.165 78.2939 238.85C66.7306 236.55 56.1027 230.895 47.7361 222.593C45.0162 219.837 41.2373 218.129 37.0593 218.129C28.775 218.129 22.0593 224.844 22.0593 233.129C22.0593 237.386 23.8326 241.228 26.681 243.959C28.2483 245.51 29.8683 247 31.5371 248.426C43.2189 258.407 57.2953 265.258 72.4419 268.271C89.9001 271.743 107.996 269.961 124.442 263.149C140.887 256.337 154.943 244.802 164.832 230.001C174.722 215.201 180 197.8 180 180V90C180 40.2944 139.706 0 90 0ZM150.003 90C150.003 56.8612 123.139 29.997 90 29.997C56.8612 29.997 29.9969 56.8612 29.9969 90C29.9969 123.139 56.8612 150.003 90 150.003C122.935 150.003 149.672 123.469 150 90.6115V90H150.003Z"
    fill="black" />
</svg>