<svg width="180" height="270" viewBox="0 0 180 270" fill="none" xmlns="http://www.w3.org/2000/svg">
  <path fill-rule="evenodd" clip-rule="evenodd"
    d="M90 180C113.051 180 134.077 171.334 150 157.083V255C150 263.284 156.716 270 165 270C173.284 270 180 263.284 180 255V90C180 40.2944 139.706 0 90 0C40.2944 0 0 40.2944 0 90V255C0 263.284 6.71573 270 15 270C23.2843 270 30 263.284 30 255V157.083C45.9227 171.334 66.9494 180 90 180ZM90 150C123.137 150 150 123.137 150 90C150 56.8629 123.137 30 90 30C56.8629 30 30 56.8629 30 90C30 123.137 56.8629 150 90 150Z"
    fill="black" />
</svg>