<svg width="550" height="1000" viewBox="0 0 550 1000" fill="none" xmlns="http://www.w3.org/2000/svg">
<path fill-rule="evenodd" clip-rule="evenodd" d="M275 500C332.627 500 385.193 478.336 425 442.708V687.5C425 708.211 441.789 725 462.5 725C483.211 725 500 708.211 500 687.5V275C500 150.736 399.264 50 275 50C150.736 50 50 150.736 50 275V687.5C50 708.211 66.7893 725 87.5 725C108.211 725 125 708.211 125 687.5V442.708C164.807 478.336 217.373 500 275 500ZM275 425C357.843 425 425 357.843 425 275C425 192.157 357.843 125 275 125C192.157 125 125 192.157 125 275C125 357.843 192.157 425 275 425Z" fill="black"/>
</svg>
