<svg width="550" height="1000" viewBox="0 0 550 1000" fill="none" xmlns="http://www.w3.org/2000/svg">
<path fill-rule="evenodd" clip-rule="evenodd" d="M50.0048 226.89C50.0016 227.093 50 227.296 50 227.5L50 500C50 624.264 150.736 725 275 725C399.264 725 500 624.264 500 500C500 417.648 455.758 345.63 389.745 306.417C395.803 293.859 400.393 280.591 403.388 266.87C409.51 238.823 408.787 209.713 401.279 182.005C393.772 154.296 379.701 128.803 360.257 107.682C340.813 86.5617 316.568 70.435 289.574 60.6666C262.579 50.8981 233.628 47.7752 205.171 51.562C176.714 55.3488 149.588 65.934 126.087 82.422C102.586 98.91 83.4024 120.816 70.1585 146.286C57.2722 171.069 50.3781 198.516 50.0151 226.425C50.0108 226.579 50.0073 226.734 50.0048 226.89ZM124.999 227.273C125 227.349 125 227.424 125 227.5V332.292C164.807 296.664 217.373 275 275 275C290.176 275 305 276.502 319.333 279.367C324.297 270.484 327.944 260.888 330.129 250.879C333.683 234.597 333.263 217.699 328.905 201.614C324.547 185.529 316.378 170.73 305.091 158.469C293.804 146.209 279.729 136.847 264.059 131.176C248.388 125.506 231.582 123.693 215.062 125.891C198.543 128.089 182.796 134.234 169.153 143.805C155.511 153.377 144.375 166.093 136.686 180.879C129.256 195.17 125.257 210.987 124.998 227.077C124.998 227.142 124.999 227.208 124.999 227.273ZM125 500C125 582.843 192.157 650 275 650C357.843 650 425 582.843 425 500C425 417.157 357.843 350 275 350C192.157 350 125 417.157 125 500Z" fill="black"/>
</svg>
