<svg width="180" height="270" viewBox="0 0 180 270" fill="none" xmlns="http://www.w3.org/2000/svg">
  <path fill-rule="evenodd" clip-rule="evenodd"
    d="M0.00193787 70.7558C0.000656128 70.837 0 70.9184 0 71L1.52588e-05 180C1.52588e-05 229.706 40.2944 270 90 270C139.706 270 180 229.706 180 180C180 147.059 162.303 118.252 135.898 102.567C138.321 97.5437 140.157 92.2362 141.355 86.7482C143.804 75.5292 143.515 63.8854 140.512 52.8018C137.509 41.7183 131.88 31.5211 124.103 23.0729C116.325 14.6247 106.627 8.17402 95.8294 4.26662C85.0315 0.35923 73.4513 -0.889939 62.0685 0.624794C50.6857 2.13953 39.8351 6.37359 30.4348 12.9688C21.0345 19.564 13.361 28.3263 8.06339 38.5145C2.90887 48.4274 0.151245 59.4065 0.00604248 70.5699C0.00430298 70.6318 0.00292969 70.6938 0.00193787 70.7558ZM29.9997 70.9093C29.9999 70.9395 30 70.9698 30 71V112.917C45.9227 98.6656 66.9494 90 90 90C96.0702 90 102 90.601 107.733 91.7466C109.719 88.1935 111.178 84.3554 112.051 80.3517C113.473 73.839 113.305 67.0797 111.562 60.6456C109.819 54.2115 106.551 48.2919 102.036 43.3877C97.5215 38.4834 91.8917 34.7388 85.6234 32.4705C79.3552 30.2022 72.6328 29.4771 66.0249 30.3564C59.4171 31.2357 53.1183 33.6936 47.6613 37.5222C42.2044 41.3508 37.7498 46.4373 34.6745 52.3517C31.7022 58.0679 30.1029 64.3948 29.9991 70.8307C29.9994 70.8568 29.9996 70.883 29.9997 70.9093ZM30 180C30 213.137 56.8629 240 90 240C123.137 240 150 213.137 150 180C150 146.863 123.137 120 90 120C56.8629 120 30 146.863 30 180Z"
    fill="black" />
</svg>