<svg width="541" height="1000" viewBox="0 0 541 1000" fill="none" xmlns="http://www.w3.org/2000/svg">
<path d="M50.0034 273.75C50.2983 220.622 69.3864 169.295 103.909 128.875C138.702 88.1373 186.889 61.1513 239.802 52.7706C292.716 44.3899 346.883 55.1645 392.562 83.1564C438.034 111.022 472.123 154.129 488.762 204.781C490.173 208.727 490.941 212.979 490.941 217.41C490.941 238.121 474.152 254.91 453.441 254.91C436.447 254.91 422.093 243.605 417.489 228.106C406.386 194.37 383.671 165.661 353.379 147.098C322.925 128.436 286.811 121.252 251.534 126.84C216.256 132.427 184.13 150.419 160.933 177.578C138.008 204.421 125.291 238.478 124.998 273.75L125 501.25C125.294 536.522 138.008 570.579 160.933 597.422C184.13 624.581 216.256 642.573 251.534 648.16C286.811 653.748 322.925 646.564 353.379 627.902C383.671 609.339 406.386 580.63 417.489 546.894C422.093 531.395 436.447 520.09 453.441 520.09C474.152 520.09 490.941 536.879 490.941 557.59C490.941 562.021 490.173 566.273 488.762 570.219C472.123 620.871 438.034 663.978 392.562 691.844C346.883 719.835 292.716 730.61 239.802 722.229C186.889 713.849 138.702 686.863 103.909 646.125C69.3864 605.705 50.2985 554.379 50.0035 501.25H50V273.75H50.0034Z" fill="black"/>
</svg>
