<svg width="550" height="1000" viewBox="0 0 550 1000" fill="none" xmlns="http://www.w3.org/2000/svg">
<path fill-rule="evenodd" clip-rule="evenodd" d="M87.5 50C66.7894 50 50 66.7894 50 87.5V687.5C50 708.21 66.7894 725 87.5 725H163.75C207.646 724.837 251.093 716.111 291.656 699.31C332.603 682.347 369.807 657.487 401.147 626.147C432.487 594.81 457.347 557.603 474.31 516.655C491.27 475.708 500 431.82 500 387.5C500 343.18 491.27 299.292 474.31 258.344C457.347 217.397 432.487 180.191 401.147 148.852C369.81 117.512 332.603 92.6518 291.656 75.6908C251.093 58.8892 207.646 50.1649 163.75 50.0023L162.5 50H87.5ZM262.95 144.992C231.104 131.801 196.971 125.011 162.5 125.011V125H125V650H162.5V649.987C196.971 649.987 231.104 643.2 262.95 630.007C294.796 616.817 323.732 597.482 348.107 573.107C372.482 548.732 391.817 519.798 405.007 487.95C418.2 456.102 424.987 421.97 424.987 387.5C424.987 353.03 418.2 318.897 405.007 287.05C391.817 255.203 372.482 226.267 348.107 201.893C323.732 177.518 294.797 158.183 262.95 144.992Z" fill="black"/>
</svg>
