<svg width="534" height="1000" viewBox="0 0 534 1000" fill="none" xmlns="http://www.w3.org/2000/svg">
<path d="M424.716 124.248C424.548 124.022 424.378 123.799 424.205 123.577C394.191 84.3423 349.896 58.5263 300.938 51.7641C251.678 44.9601 201.732 58.0034 162.089 88.0246C122.445 118.046 96.3514 162.586 89.5473 211.846C83.3755 256.53 93.5346 301.778 117.883 339.389C108.941 348.162 100.712 357.701 93.2985 367.925C68.6099 401.976 53.9594 442.264 51.0096 484.22C48.0598 526.176 56.929 568.118 76.6103 605.288C96.2917 642.458 125.997 673.367 162.357 694.509C198.716 715.65 240.274 726.177 282.313 724.895C324.353 723.613 365.192 710.574 400.195 687.256C435.076 664.021 462.771 631.506 480.163 593.38C482.62 588.39 484 582.774 484 576.836C484 556.125 467.211 539.336 446.5 539.336C431.04 539.336 417.765 548.691 412.028 562.049C400.439 587.557 381.938 609.31 358.619 624.844C335.282 640.39 308.055 649.083 280.028 649.938C252 650.792 224.294 643.774 200.053 629.679C175.812 615.584 156.007 594.977 142.885 570.196C129.764 545.414 123.851 517.451 125.817 489.48C127.784 461.508 137.551 434.647 154.011 411.946C170.471 389.244 192.965 371.611 218.939 361.046C244.785 350.534 273.048 347.44 300.551 352.107C302.783 352.521 305.084 352.737 307.435 352.737C328.146 352.737 344.935 335.948 344.935 315.238C344.935 296.311 330.914 280.659 312.692 278.103C271.567 271.202 229.326 275.864 190.686 291.58C186.902 293.119 183.168 294.758 179.486 296.494C165.856 274.362 160.25 248.076 163.837 222.107C167.92 192.55 183.577 165.825 207.364 147.811C231.151 129.798 261.12 121.971 290.677 126.054C319.915 130.092 346.382 145.457 364.387 168.813C371.213 178.089 382.208 184.108 394.609 184.108C415.319 184.108 432.109 167.318 432.109 146.608C432.109 138.254 429.377 130.539 424.759 124.306L424.716 124.248Z" fill="black"/>
</svg>
