<svg width="174" height="270" viewBox="0 0 174 270" fill="none" xmlns="http://www.w3.org/2000/svg">
  <path
    d="M149.704 29.6993C149.637 29.6089 149.569 29.5195 149.5 29.4307C137.494 13.7369 119.776 3.41053 100.193 0.705647C80.489 -2.01595 60.5107 3.20137 44.6533 15.2099C28.7959 27.2184 18.3583 45.0343 15.6367 64.7385C13.168 82.6122 17.2316 100.711 26.971 115.756C23.3943 119.265 20.1026 123.08 17.1372 127.17C7.26172 140.79 1.40155 156.906 0.221619 173.688C-0.958313 190.47 2.58936 207.247 10.4619 222.115C18.3345 236.983 30.2168 249.347 44.7606 257.804C59.3044 266.26 75.9274 270.471 92.7432 269.958C109.559 269.446 125.895 264.23 139.896 254.903C153.848 245.609 164.926 232.603 171.883 217.352C172.866 215.356 173.418 213.11 173.418 210.735C173.418 202.45 166.702 195.735 158.418 195.735C152.234 195.735 146.924 199.477 144.629 204.82C139.993 215.023 132.593 223.724 123.266 229.938C113.931 236.156 103.04 239.634 91.8289 239.975C80.6177 240.317 69.5353 237.51 59.8389 231.872C50.1426 226.234 42.2206 217.991 36.9719 208.078C31.7233 198.166 29.3581 186.981 30.1448 175.792C30.9314 164.603 34.8384 153.859 41.4224 144.778C48.0064 135.698 57.0038 128.644 67.3936 124.419C77.732 120.214 89.0372 118.976 100.038 120.843C100.931 121.009 101.851 121.095 102.792 121.095C111.076 121.095 117.792 114.379 117.792 106.095C117.792 98.5245 112.183 92.2637 104.895 91.2413C88.4446 88.4808 71.5481 90.3458 56.0922 96.6321C54.5787 97.2476 53.085 97.9032 51.6123 98.5977C46.1602 89.7447 43.9179 79.2304 45.3527 68.8429C46.9857 57.0199 53.2485 46.3299 62.7634 39.1245C72.2783 31.9191 84.2657 28.7885 96.0887 30.4216C107.784 32.037 118.371 38.1827 125.573 47.5251C128.303 51.2355 132.701 53.6431 137.661 53.6431C145.946 53.6431 152.661 46.9274 152.661 38.6431C152.661 35.3018 151.569 32.2157 149.722 29.7224L149.704 29.6993Z"
    fill="black" />
</svg>