<svg width="507" height="1000" viewBox="0 0 507 1000" fill="none" xmlns="http://www.w3.org/2000/svg">
<path d="M90.8972 145.653C64.2825 183.534 50.0012 228.704 50.0012 275L50.0006 499.5L50 500V687.5C50 708.211 66.7892 725 87.5 725C108.211 725 125 708.211 125 687.5V497.755C125.45 467.674 134.935 438.403 152.25 413.759C169.995 388.502 195.1 369.333 224.139 358.868C252.627 348.602 283.541 347.201 312.817 354.828C316.251 355.864 319.893 356.421 323.664 356.421C344.375 356.421 361.164 339.631 361.164 318.921C361.164 301.201 348.874 286.352 332.353 282.432C288.256 270.808 241.649 272.854 198.718 288.326C171.401 298.17 146.406 313.149 125 332.295V275L124.984 275C124.984 244.132 134.506 214.016 152.252 188.759C169.997 163.502 195.101 144.333 224.141 133.868C253.18 123.403 284.741 122.15 314.518 130.282C343.799 138.277 369.954 154.963 389.541 178.12C396.401 186.955 407.125 192.641 419.177 192.641C439.888 192.641 456.677 175.851 456.677 155.141C456.677 146.168 453.526 137.931 448.27 131.477L448.277 131.471C418.744 95.8173 378.932 70.142 334.271 57.9467C289.609 45.7513 242.273 47.6298 198.719 63.3258C155.164 79.0218 117.512 107.771 90.8972 145.653Z" fill="black"/>
</svg>
