<svg width="550" height="1000" viewBox="0 0 550 1000" fill="none" xmlns="http://www.w3.org/2000/svg">
<path d="M50.0034 273.75C50.2982 220.622 69.3863 169.295 103.909 128.875C138.702 88.1373 186.889 61.1513 239.802 52.7706C292.716 44.3899 346.883 55.1645 392.562 83.1564C438.034 111.022 472.123 154.129 488.762 204.781C490.173 208.727 490.941 212.979 490.941 217.41C490.941 238.121 474.152 254.91 453.441 254.91C436.447 254.91 422.093 243.605 417.489 228.106C406.386 194.37 383.671 165.661 353.378 147.098C322.925 128.436 286.811 121.252 251.534 126.84C216.256 132.427 184.13 150.419 160.933 177.578C138.007 204.421 125.291 238.478 124.998 273.75L125 501.25C125.294 536.522 138.007 570.579 160.933 597.422C163.493 600.418 166.16 603.303 168.929 606.072L168.934 606.067C197.064 634.197 235.217 650.001 275 650.001C314.783 650.001 352.936 634.197 381.066 606.066C409.197 577.936 425 539.783 425 500C425 465.218 412.92 431.682 391.083 405H295C274.289 405 257.5 388.211 257.5 367.5C257.5 346.789 274.289 330 295 330C295.036 330 295.072 330 295.108 330H407.5C407.685 330 407.871 330.002 408.055 330.004C408.177 330.006 408.298 330.008 408.419 330.011C418.432 330.208 427.485 334.329 434.099 340.901C476.294 383.097 499.999 440.326 500 500C500 523.833 496.218 547.277 488.987 569.528C477.938 603.534 459.032 634.164 434.099 659.099C433.653 659.545 433.205 659.989 432.755 660.431C432.449 660.733 432.141 661.033 431.833 661.333C419.989 672.847 406.837 683.096 392.562 691.844C356.99 713.642 316.268 724.999 275 725L274.605 725C263.012 724.979 251.377 724.063 239.802 722.229C192.727 714.773 149.391 692.59 115.901 659.1C111.748 654.946 107.747 650.62 103.909 646.125C69.3863 605.705 50.2985 554.379 50.0034 501.25H50V273.75H50.0034Z" fill="black"/>
</svg>
