<svg width="180" height="270" viewBox="0 0 180 270" fill="none" xmlns="http://www.w3.org/2000/svg">
  <path
    d="M15 0C23.2843 0 30 6.71573 30 15V130.265C32.6554 127.89 35.4591 125.667 38.3997 123.609C53.5645 112.997 71.6323 107.319 90.1414 107.348C108.65 107.377 126.7 113.112 141.832 123.771C144.688 125.784 147.414 127.953 150 130.265V15C150 6.71573 156.716 0 165 0C173.284 0 180 6.71573 180 15V197.26C180.008 205.272 178.946 213.294 176.806 221.111C171.919 238.963 161.647 254.874 147.389 266.677L147.386 266.672C144.811 268.751 141.535 269.996 137.969 269.996C129.684 269.996 122.969 263.28 122.969 254.996C122.969 250.181 125.237 245.896 128.764 243.151C138.01 235.327 144.675 224.883 147.876 213.191C149.297 207.998 150.005 202.67 150.005 197.348H150V196.546C149.912 189.938 148.732 183.35 146.471 177.057C142.298 165.444 134.646 155.399 124.557 148.292C114.469 141.185 102.435 137.362 90.0942 137.342C77.7538 137.323 65.7075 141.109 55.5968 148.184C45.486 155.259 37.8025 165.28 33.5933 176.88C31.2908 183.226 30.0891 189.875 30 196.547V197.348H29.9946C29.9946 202.607 30.686 207.874 32.0746 213.009C35.2671 224.817 41.9908 235.364 51.3417 243.241C54.8035 245.988 57.0234 250.233 57.0234 254.996C57.0234 263.28 50.3077 269.996 42.0234 269.996C38.3083 269.996 34.9089 268.646 32.2889 266.409C18.1227 254.571 7.93872 238.662 3.11963 220.838C1.03699 213.135 0 205.236 0 197.348V15C0 6.71573 6.7157 0 15 0Z"
    fill="black" />
</svg>