<svg width="550" height="1000" viewBox="0 0 550 1000" fill="none" xmlns="http://www.w3.org/2000/svg">
<path d="M87.5 50C108.211 50 125 66.7896 125 87.5005V375.668C131.638 369.731 138.648 364.171 145.999 359.027C183.911 332.497 229.081 318.301 275.353 318.373C321.626 318.446 366.75 332.784 404.579 359.433C411.72 364.464 418.536 369.887 425 375.668V87.5005C425 66.7896 441.789 50 462.5 50C483.211 50 500 66.7896 500 87.5005V543.158C500.019 563.187 497.365 583.243 492.016 602.785C479.798 647.416 454.117 687.195 418.473 716.701L418.464 716.691C412.028 721.888 403.838 725 394.922 725C374.211 725 357.422 708.211 357.422 687.499C357.422 675.462 363.093 664.749 371.91 657.887C395.024 638.326 411.688 612.217 419.69 582.985C423.244 570.004 425.013 556.682 425.013 543.376H425V541.373C424.779 524.851 421.829 508.382 416.177 492.65C405.745 463.616 386.615 438.504 361.394 420.736C336.172 402.969 306.087 393.409 275.236 393.361C244.384 393.313 214.269 402.777 188.992 420.466C163.715 438.154 144.506 463.206 133.983 492.207C128.227 508.071 125.223 524.695 125 541.375V543.376H124.987C124.987 556.525 126.715 569.691 130.186 582.531C138.168 612.05 154.977 638.419 178.354 658.111C187.009 664.98 192.559 675.592 192.559 687.499C192.559 708.211 175.769 725 155.059 725C145.771 725 137.272 721.624 130.722 716.031C95.3067 686.436 69.8468 646.663 57.7991 602.103C52.5925 582.845 50 563.098 50 543.376V87.5005C50 66.7896 66.7892 50 87.5 50Z" fill="black"/>
</svg>
