<svg width="441" height="1000" viewBox="0 0 441 1000" fill="none" xmlns="http://www.w3.org/2000/svg">
<path d="M258.244 129.752C265.012 131.499 271.664 133.721 278.15 136.408C296.35 143.947 312.888 154.996 326.817 168.926L326.82 168.924C333.651 176.099 343.295 180.572 353.984 180.572C374.695 180.572 391.484 163.782 391.484 143.072C391.484 132.383 387.012 122.738 379.836 115.907L379.843 115.901C358.95 95.0078 334.146 78.4344 306.847 67.1271C279.549 55.8198 250.291 50 220.744 50C191.196 50 161.938 55.8198 134.64 67.1272C107.342 78.4345 82.5378 95.0079 61.6446 115.901L61.6492 115.906C54.473 122.737 50 132.382 50 143.072C50 163.782 66.7892 180.572 87.5 180.572C98.19 180.572 107.835 176.099 114.666 168.923L114.67 168.926C128.6 154.996 145.137 143.947 163.337 136.408C169.823 133.721 176.476 131.499 183.244 129.752V645.248C176.476 643.501 169.823 641.279 163.337 638.592C145.137 631.053 128.6 620.003 114.67 606.074L114.666 606.077C107.835 598.901 98.19 594.428 87.5 594.428C66.7892 594.428 50 611.218 50 631.928C50 642.618 54.473 652.263 61.6492 659.094L61.6446 659.099C82.5378 679.992 107.342 696.566 134.64 707.873C161.938 719.18 191.196 725 220.744 725C250.291 725 279.549 719.18 306.847 707.873C334.146 696.566 358.95 679.992 379.843 659.099L379.836 659.093C387.012 652.262 391.484 642.617 391.484 631.928C391.484 611.218 374.695 594.428 353.984 594.428C343.295 594.428 333.651 598.901 326.82 606.076L326.817 606.074C312.888 620.003 296.35 631.053 278.15 638.592C271.664 641.279 265.012 643.501 258.244 645.248V129.752Z" fill="black"/>
</svg>
