<svg width="550" height="1000" viewBox="0 0 550 1000" fill="none" xmlns="http://www.w3.org/2000/svg">
<path d="M462.5 50C441.789 50 425 66.7893 425 87.5L425.016 500C425.016 519.7 421.133 539.207 413.595 557.408C406.056 575.608 395.006 592.146 381.076 606.076C367.146 620.006 350.608 631.056 332.408 638.595C314.207 646.134 294.7 650.014 275 650.014C255.3 650.014 235.793 646.134 217.592 638.595C199.392 631.056 182.854 620.006 168.924 606.076C154.994 592.146 143.944 575.608 136.405 557.408C128.983 539.489 125.107 520.304 124.989 500.915C124.996 500.611 125 500.306 125 500C125 479.289 108.211 462.5 87.5 462.5C66.7892 462.5 50 479.289 50 500C50 529.547 55.8197 558.806 67.1271 586.104C78.4344 613.402 95.0079 638.206 115.901 659.099C136.794 679.992 161.598 696.566 188.896 707.873C216.194 719.18 245.452 725 275 725C304.547 725 333.805 719.18 361.103 707.873C388.402 696.566 413.206 679.992 434.099 659.099C454.992 638.206 471.565 613.402 482.873 586.104C494.18 558.806 499.999 529.547 499.999 500L500 87.5C500 66.7893 483.21 50 462.5 50Z" fill="black"/>
</svg>
