<svg width="550" height="1000" viewBox="0 0 550 1000" fill="none" xmlns="http://www.w3.org/2000/svg">
<path d="M87.5 50C66.7896 50 50 66.7893 50 87.5V687.5C50 708.211 66.7896 725 87.5 725C108.21 725 125 708.211 125 687.5V610.448C125.295 588.873 130.241 567.607 139.51 548.105C149.073 527.985 162.996 510.247 180.27 496.18C197.543 482.112 217.733 472.068 239.373 466.778C261.013 461.487 283.559 461.083 305.375 465.593C327.191 470.104 347.728 479.417 365.495 492.855C383.262 506.294 397.814 523.521 408.092 543.285C418.37 563.049 424.118 584.854 424.918 607.117C425.71 629.217 421.609 651.217 412.907 671.542C410.627 676.384 409.352 681.793 409.352 687.5C409.352 708.211 426.141 725 446.852 725C462.635 725 476.142 715.249 481.675 701.442C494.84 670.849 501.05 637.713 499.855 604.426C498.656 571.035 490.035 538.33 474.619 508.687C459.203 479.043 437.378 453.205 410.729 433.05C384.081 412.894 353.278 398.926 320.558 392.161C303.06 388.543 285.249 387.033 267.5 387.625L491.552 111.153C504.591 95.0621 502.118 71.4476 486.027 58.4081C469.937 45.3685 446.322 47.8417 433.282 63.9321L125.532 443.687C125.352 443.91 125.175 444.134 125 444.359V87.5C125 66.7893 108.21 50 87.5 50Z" fill="black"/>
</svg>
