<svg width="180" height="270" viewBox="0 0 180 270" fill="none" xmlns="http://www.w3.org/2000/svg">
  <path
    d="M6.85083 55.5585C2.32788 66.4778 0 78.181 0 90V255C0 263.284 6.71582 270 15 270C23.2842 270 30 263.284 30 255V90H29.9971C29.9971 82.1203 31.5491 74.3177 34.5645 67.0378C37.5798 59.7579 41.9998 53.1432 47.5715 47.5715C53.1433 41.9997 59.7581 37.5799 67.0378 34.5645C69.6323 33.4898 72.293 32.6011 75 31.9022V210C75 218.284 81.7158 225 90 225C98.2842 225 105 218.284 105 210V31.9021C107.707 32.6011 110.368 33.4898 112.962 34.5645C120.242 37.5799 126.857 41.9997 132.428 47.5715C138 53.1433 142.42 59.758 145.436 67.0379C148.451 74.3178 150.003 82.1203 150.003 90L150 90V255C150 263.284 156.716 270 165 270C173.284 270 180 263.284 180 255V90.0001C180 78.1811 177.672 66.4778 173.149 55.5585C168.626 44.6392 161.997 34.7177 153.64 26.3604C145.282 18.0031 135.361 11.3738 124.442 6.85086C113.522 2.32793 101.819 7.62941e-06 90 0C78.1812 -7.62938e-06 66.4778 2.32791 55.5586 6.85083C44.6392 11.3737 34.7178 18.0031 26.3604 26.3604C18.0032 34.7177 11.3738 44.6392 6.85083 55.5585Z"
    fill="black" />
</svg>