<svg width="550" height="1000" viewBox="0 0 550 1000" fill="none" xmlns="http://www.w3.org/2000/svg">
<path d="M67.1271 188.896C55.8197 216.194 50 245.453 50 275V687.5C50 708.211 66.7896 725 87.5 725C108.21 725 125 708.211 125 687.5V275H124.993C124.993 255.301 128.873 235.794 136.411 217.595C143.95 199.395 154.999 182.858 168.929 168.929C182.858 154.999 199.395 143.95 217.595 136.411C224.081 133.725 230.732 131.503 237.5 129.755V575C237.5 595.711 254.29 612.5 275 612.5C295.71 612.5 312.5 595.711 312.5 575V129.755C319.268 131.503 325.919 133.725 332.405 136.411C350.605 143.95 367.142 154.999 381.071 168.929C395.001 182.858 406.05 199.395 413.589 217.595C421.127 235.794 425.007 255.301 425.007 275L425 275V687.5C425 708.211 441.79 725 462.5 725C483.21 725 500 708.211 500 687.5V275C500 245.453 494.18 216.195 482.873 188.896C471.566 161.598 454.992 136.794 434.099 115.901C413.206 95.0079 388.402 78.4345 361.104 67.1272C333.806 55.8198 304.548 50 275 50C245.453 50 216.194 55.8198 188.896 67.1271C161.598 78.4344 136.794 95.0077 115.901 115.901C95.0079 136.794 78.4344 161.598 67.1271 188.896Z" fill="black"/>
</svg>
