<svg width="180" height="270" viewBox="0 0 180 270" fill="none" xmlns="http://www.w3.org/2000/svg">
  <path
    d="M162.812 232.901C173.787 217.794 179.787 199.655 179.994 181H180V15C180 6.71573 173.284 0 165 0C156.716 0 150 6.71573 150 15V180.593C149.877 193.056 145.875 205.178 138.543 215.269C134.535 220.786 129.642 225.544 124.099 229.372L81.5745 15.9528C80.2969 8.9645 74.1768 3.6676 66.8196 3.6676C65.0078 3.6676 63.271 3.98883 61.6631 4.57744C43.8074 10.5006 28.2517 21.8722 17.1885 37.0993C6.21289 52.2058 0.212891 70.345 0.00561523 89H0V255C0 263.284 6.71582 270 15 270C23.2842 270 30 263.284 30 255V89.4069C30.123 76.9437 34.1248 64.8225 41.4565 54.7311C45.4651 49.2139 50.3582 44.4559 55.9014 40.6275L98.4231 254.034C99.6953 261.029 105.819 266.332 113.18 266.332C114.992 266.332 116.729 266.011 118.337 265.423C136.192 259.5 151.748 248.128 162.812 232.901Z"
    fill="black" />
</svg>