<svg width="550" height="1000" viewBox="0 0 550 1000" fill="none" xmlns="http://www.w3.org/2000/svg">
<path d="M457.029 632.252C484.468 594.485 499.468 549.138 499.986 502.5H500V87.5C500 66.7893 483.21 50 462.5 50C441.79 50 425 66.7893 425 87.5V501.483C424.692 532.641 414.688 562.944 396.359 588.172C386.337 601.965 374.105 613.86 360.247 623.431L253.936 89.882C250.742 72.4113 235.442 59.169 217.049 59.169C212.52 59.169 208.177 59.9721 204.158 61.4436C159.518 76.2515 120.629 104.681 92.9712 142.748C65.5322 180.515 50.5322 225.862 50.014 272.5H50V687.5C50 708.211 66.7896 725 87.5 725C108.21 725 125 708.211 125 687.5V273.517C125.308 242.359 135.312 212.056 153.641 186.828C163.663 173.035 175.895 161.14 189.753 151.569L296.058 685.085C299.238 702.572 314.547 715.831 332.951 715.831C337.48 715.831 341.822 715.028 345.842 713.557C390.481 698.749 429.371 670.32 457.029 632.252Z" fill="black"/>
</svg>
