<svg width="550" height="1000" viewBox="0 0 550 1000" fill="none" xmlns="http://www.w3.org/2000/svg">
<path fill-rule="evenodd" clip-rule="evenodd" d="M500.001 273.75C499.861 248.596 495.502 223.669 487.133 200C485.813 196.266 484.393 192.563 482.874 188.896C471.567 161.598 454.993 136.794 434.1 115.901C413.207 95.0078 388.403 78.4344 361.105 67.1271C333.807 55.8198 304.548 50 275.001 50C245.454 50 216.196 55.8198 188.898 67.1271C161.599 78.4344 136.796 95.0078 115.902 115.901C95.0092 136.794 78.4357 161.598 67.1283 188.896C65.6091 192.563 64.1895 196.266 62.8693 200C54.5007 223.669 50.141 248.596 50.0012 273.75L50 274.061L50.0012 275V500L50 500.812L50.0012 501.25C50.141 526.404 54.5007 551.331 62.8693 575C64.1895 578.734 65.6091 582.437 67.1283 586.104C78.4357 613.402 95.0092 638.206 115.902 659.099C136.796 679.992 161.599 696.566 188.898 707.873C216.196 719.18 245.454 725 275.001 725C304.548 725 333.807 719.18 361.105 707.873C388.403 696.566 413.207 679.992 434.1 659.099C454.993 638.206 471.567 613.402 482.874 586.104C484.393 582.437 485.813 578.734 487.133 575C495.502 551.331 499.861 526.404 500.001 501.25C500.003 500.972 500.002 500.694 500.002 500.417L500.001 500V275C500.001 274.583 500.004 274.167 500.001 273.75ZM136.412 217.594C129.032 235.409 125.162 254.476 125.001 273.75V501.25C125.162 520.524 129.032 539.591 136.412 557.406C143.95 575.606 154.999 592.142 168.929 606.072C182.859 620.002 199.396 631.051 217.595 638.59C235.795 646.128 255.302 650.008 275.001 650.008C294.7 650.008 314.207 646.128 332.407 638.59C350.607 631.051 367.144 620.002 381.073 606.072C395.003 592.143 406.052 575.606 413.591 557.406C420.97 539.591 424.841 520.524 425.001 501.25V273.75C424.841 254.476 420.97 235.409 413.591 217.594C406.052 199.394 395.003 182.858 381.073 168.928C367.144 154.998 350.607 143.949 332.407 136.41C314.207 128.872 294.7 124.992 275.001 124.992C255.302 124.992 235.795 128.872 217.595 136.41C199.396 143.949 182.859 154.998 168.929 168.928C154.999 182.858 143.95 199.394 136.412 217.594Z" fill="black"/>
</svg>
