<svg width="180" height="270" viewBox="0 0 180 270" fill="none" xmlns="http://www.w3.org/2000/svg">
  <path fill-rule="evenodd" clip-rule="evenodd"
    d="M180 89.5C179.944 79.4384 178.2 69.4675 174.853 60C174.325 58.5064 173.757 57.0254 173.149 55.5585C168.626 44.6392 161.997 34.7177 153.64 26.3604C145.282 18.0031 135.361 11.3738 124.441 6.85085C113.522 2.32793 101.819 0 90 0C78.1812 0 66.4778 2.32791 55.5586 6.85085C44.6392 11.3738 34.7178 18.0031 26.3604 26.3604C18.0032 34.7177 11.3738 44.6392 6.85083 55.5585C6.24316 57.0254 5.67529 58.5064 5.14722 60C1.7998 69.4675 0.0559082 79.4384 0 89.5L-0.000488281 89.6242L0 90V180L-0.000488281 180.325L0 180.5C0.0559082 190.562 1.7998 200.533 5.14722 210C5.67529 211.494 6.24316 212.975 6.85083 214.441C11.3738 225.361 18.0032 235.282 26.3604 243.64C34.7178 251.997 44.6392 258.626 55.5586 263.149C66.4778 267.672 78.1812 270 90 270C101.819 270 113.522 267.672 124.441 263.149C135.361 258.626 145.282 251.997 153.64 243.64C161.997 235.282 168.626 225.361 173.149 214.441C173.757 212.975 174.325 211.494 174.853 210C178.2 200.533 179.944 190.562 180 180.5C180.001 180.389 180 180.278 180 180.167L180 180V90C180 89.8333 180.001 89.6666 180 89.5ZM34.5642 67.0377C31.6123 74.1637 30.0642 81.7903 30 89.5V180.5C30.0642 188.21 31.6123 195.836 34.5642 202.962C37.5796 210.242 41.9993 216.857 47.5713 222.429C53.1431 228.001 59.7578 232.42 67.0376 235.436C74.3176 238.451 82.1201 240.003 90 240.003C97.8796 240.003 105.682 238.451 112.962 235.436C120.242 232.42 126.857 228.001 132.429 222.429C138.001 216.857 142.42 210.242 145.436 202.962C148.388 195.836 149.936 188.21 150 180.5V89.5C149.936 81.7903 148.388 74.1636 145.436 67.0377C142.42 59.7578 138.001 53.143 132.429 47.5712C126.857 41.9994 120.242 37.5796 112.962 34.5641C105.682 31.5486 97.8796 29.9966 90 29.9966C82.1201 29.9966 74.3176 31.5486 67.0376 34.5641C59.7578 37.5795 53.1431 41.9994 47.5713 47.5712C41.9993 53.143 37.5796 59.7578 34.5642 67.0377Z"
    fill="black" />
</svg>