<svg width="550" height="1000" viewBox="0 0 550 1000" fill="none" xmlns="http://www.w3.org/2000/svg">
<path fill-rule="evenodd" clip-rule="evenodd" d="M275 500C217.374 500 164.807 478.336 125 442.708V687.5C125 708.211 108.21 725 87.5 725C66.7896 725 50 708.211 50 687.5V275C50 150.736 150.736 50 275 50C399.264 50 500 150.736 500 275C500 399.264 399.264 500 275 500ZM275 125C357.843 125 425 192.157 425 275C425 357.843 357.843 425 275 425C192.157 425 125 357.843 125 275C125 192.157 192.157 125 275 125Z" fill="black"/>
</svg>
