<svg width="550" height="1000" viewBox="0 0 550 1000" fill="none" xmlns="http://www.w3.org/2000/svg">
<path fill-rule="evenodd" clip-rule="evenodd" d="M405.358 683.39C391.606 693.165 376.766 701.386 361.105 707.873C333.807 719.18 304.548 725 275.001 725C245.454 725 216.196 719.18 188.898 707.873C161.599 696.566 136.796 679.992 115.902 659.099C95.0092 638.206 78.4357 613.402 67.1283 586.104C65.6091 582.437 64.1895 578.734 62.8693 575C54.5007 551.331 50.141 526.404 50.0012 501.25L50 500.661L50.0012 500V275C50.0012 274.583 49.9988 274.167 50.0012 273.75C50.141 248.596 54.5007 223.669 62.8693 200C64.1895 196.266 65.6091 192.563 67.1283 188.896C78.4357 161.598 95.0092 136.794 115.902 115.901C136.796 95.0078 161.599 78.4344 188.898 67.1271C216.196 55.8198 245.454 50 275.001 50C304.548 50 333.807 55.8198 361.105 67.1271C388.403 78.4344 413.207 95.0078 434.1 115.901C454.993 136.794 471.567 161.598 482.874 188.896C484.393 192.563 485.813 196.266 487.133 200C495.502 223.669 499.861 248.596 500.001 273.75C500.003 273.992 500.002 274.234 500.002 274.476C500.002 274.512 500.002 274.547 500.002 274.583L500.001 275V500L500.002 500.417V500.792L500.001 501.25C499.861 526.404 495.502 551.331 487.133 575C485.813 578.734 484.393 582.437 482.874 586.104C476.387 601.765 468.166 616.605 458.391 630.357L489.005 660.971C503.65 675.616 503.65 699.36 489.005 714.004C474.361 728.649 450.617 728.649 435.972 714.004L405.358 683.39ZM125.001 273.75C125.162 254.476 129.032 235.409 136.412 217.594C143.95 199.394 154.999 182.858 168.929 168.928C182.859 154.998 199.396 143.949 217.595 136.41C235.795 128.872 255.302 124.992 275.001 124.992C294.7 124.992 314.207 128.872 332.407 136.41C350.607 143.949 367.144 154.998 381.073 168.928C395.003 182.858 406.052 199.394 413.591 217.594C420.97 235.409 424.841 254.476 425.001 273.75V501.25C424.841 520.524 420.97 539.591 413.591 557.406C410.904 563.892 407.772 570.167 404.222 576.188L382.939 554.905C368.295 540.26 344.551 540.26 329.907 554.905C315.262 569.55 315.262 593.293 329.907 607.938L351.189 629.221C345.168 632.771 338.893 635.903 332.407 638.59C314.207 646.128 294.7 650.008 275.001 650.008C255.302 650.008 235.795 646.128 217.595 638.59C199.396 631.051 182.859 620.002 168.929 606.072C154.999 592.142 143.95 575.606 136.412 557.406C129.032 539.591 125.162 520.524 125.001 501.25V273.75Z" fill="black"/>
</svg>
