<svg width="550" height="1000" viewBox="0 0 550 1000" fill="none" xmlns="http://www.w3.org/2000/svg">
<path fill-rule="evenodd" clip-rule="evenodd" d="M274.999 499.998C217.373 499.998 164.806 478.334 125 442.706V687.497C125 708.207 108.21 724.997 87.4998 724.997C66.7895 724.997 50 708.207 50 687.497V274.999C50 150.735 150.736 50 274.999 50C399.262 50 499.998 150.735 499.998 274.999C499.998 367.431 444.261 446.844 364.565 481.465L493.259 666.05C505.104 683.039 500.934 706.413 483.945 718.258C466.956 730.103 443.581 725.933 431.736 708.944L285.877 499.739C282.272 499.911 278.646 499.998 274.999 499.998ZM274.999 125C357.842 125 424.998 192.157 424.998 274.999C424.998 357.841 357.842 424.998 274.999 424.998C192.156 424.998 125 357.841 125 274.999C125 192.157 192.156 125 274.999 125Z" fill="black"/>
</svg>
