<svg width="500" height="1000" viewBox="0 0 500 1000" fill="none" xmlns="http://www.w3.org/2000/svg">
<path d="M395.506 127.775C414.736 156.554 425 190.388 425 225C425 245.711 408.21 262.5 387.5 262.5C366.789 262.5 350 245.711 350.004 225L350.002 224.55C349.914 204.928 344.055 185.762 333.15 169.441C322.161 152.995 306.543 140.178 288.27 132.609C269.996 125.04 249.889 123.059 230.49 126.918C211.091 130.776 193.273 140.301 179.286 154.287C165.301 168.272 155.776 186.091 151.918 205.49C148.059 224.889 150.04 244.996 157.609 263.27C165.178 281.543 177.996 297.161 194.441 308.15C210.886 319.139 230.221 325.004 250 325.004C289.556 325 328.224 336.73 361.114 358.706C394.004 380.682 419.639 411.918 434.775 448.463C449.913 485.008 453.874 525.222 446.157 564.018C438.44 602.814 419.392 638.451 391.421 666.421C363.451 694.392 327.814 713.44 289.018 721.157C250.222 728.874 210.008 724.913 173.463 709.776C136.918 694.638 105.682 669.004 83.706 636.114C61.7297 603.224 50 564.556 50 525C50 504.289 66.7895 487.5 87.5 487.5C108.21 487.5 125 504.289 125 525C125 549.722 132.331 573.89 146.066 594.446C159.802 615.002 179.324 631.024 202.164 640.485C225.005 649.946 250.138 652.421 274.386 647.598C298.634 642.775 320.907 630.87 338.388 613.388C355.87 595.907 367.775 573.634 372.598 549.386C377.422 525.138 374.946 500.005 365.484 477.164C356.024 454.324 340.002 434.801 319.446 421.066C298.89 407.331 274.723 400 250 400C215.388 400 181.554 389.736 152.775 370.507C123.997 351.278 101.566 323.947 88.3209 291.97C75.0757 259.992 71.6101 224.806 78.3624 190.859C85.1147 156.912 101.782 125.731 126.256 101.256C150.731 76.7821 181.912 60.115 215.859 53.3626C249.806 46.6102 284.993 50.0758 316.97 63.3211C348.946 76.5664 376.278 98.9966 395.506 127.775Z" fill="black"/>
</svg>
