<svg width="550" height="1000" viewBox="0 0 550 1000" fill="none" xmlns="http://www.w3.org/2000/svg">
<path d="M67.1277 188.896C55.8203 216.194 50 245.453 50 275C50 295.711 66.7896 312.5 87.5 312.5C108.21 312.5 125 295.711 124.993 275L124.994 274.332C125.081 254.86 128.958 235.589 136.411 217.595C143.95 199.395 154.999 182.858 168.928 168.929C182.858 154.999 199.395 143.95 217.595 136.411C224.081 133.725 230.732 131.503 237.5 129.755V687.5C237.5 708.211 254.29 725 275 725C295.71 725 312.5 708.211 312.5 687.5V129.755C319.268 131.503 325.919 133.725 332.406 136.411C350.605 143.95 367.142 154.999 381.072 168.929C395.001 182.858 406.05 199.395 413.589 217.595C421.042 235.589 424.919 254.86 425.006 274.332L425.007 275C425 295.711 441.79 312.5 462.5 312.5C483.21 312.5 500 295.711 500 275C500 245.453 494.18 216.195 482.874 188.896C471.566 161.598 454.993 136.794 434.099 115.901C413.206 95.0078 388.402 78.4344 361.104 67.1271C333.806 55.8198 304.547 50 275 50C245.453 50 216.195 55.8198 188.896 67.1271C161.598 78.4344 136.794 95.0078 115.901 115.901C95.0073 136.794 78.4338 161.598 67.1277 188.896Z" fill="black"/>
</svg>
