<svg width="180" height="270" viewBox="0 0 180 270" fill="none" xmlns="http://www.w3.org/2000/svg">
  <path
    d="M57.0234 15C57.0234 6.71571 50.3076 0 42.0234 0C38.3096 0 34.9111 1.34967 32.2915 3.58527C18.124 15.4236 7.93896 31.3334 3.11963 49.1581C1.0415 56.8441 0.00439453 64.7254 0 72.5967V180.047C0.00585938 190.439 1.81152 200.813 5.39746 210.694C11.7109 228.093 23.2349 243.123 38.3999 253.735C53.5645 264.347 71.6323 270.025 90.1411 269.996C108.65 269.967 126.7 264.232 141.832 253.572C156.963 242.913 168.44 227.847 174.699 210.429C178.223 200.62 179.996 190.334 180 180.031V72.6124C179.997 64.6419 178.935 56.6619 176.806 48.8854C171.919 31.0332 161.647 15.1219 147.389 3.31952L147.386 3.3237C144.812 1.24482 141.535 0 137.969 0C129.685 0 122.969 6.71571 122.969 15C122.969 19.8128 125.236 24.0963 128.76 26.841L128.762 26.843C138.009 34.6678 144.675 45.112 147.876 56.805C149.294 61.9847 150.002 67.2999 150.005 72.6087V180.035C150.001 186.899 148.819 193.752 146.471 200.286C142.298 211.9 134.646 221.944 124.558 229.051C114.469 236.158 102.435 239.982 90.0942 240.001C77.7539 240.021 65.7075 236.235 55.5967 229.16C45.4858 222.084 37.8027 212.064 33.5933 200.463C31.2041 193.878 30 186.966 29.9946 180.041V72.6016C29.9985 67.3577 30.6899 62.1073 32.0747 56.9868C35.2671 45.1788 41.9912 34.6312 51.3428 26.7543C54.8037 24.0066 57.0234 19.7625 57.0234 15Z"
    fill="black" />
</svg>