<svg width="550" height="1000" viewBox="0 0 550 1000" fill="none" xmlns="http://www.w3.org/2000/svg">
<path d="M192.559 87.5005C192.559 66.7895 175.769 50 155.059 50C145.774 50 137.278 53.3742 130.729 58.9633C95.3101 88.5595 69.8474 128.335 57.7991 172.897C52.6038 192.112 50.011 211.816 50 231.494V500.124C50.0146 526.105 54.5288 552.039 63.4937 576.744C79.2773 620.242 108.087 657.816 146 684.346C183.911 710.876 229.081 725.072 275.353 725C321.626 724.927 366.75 710.589 404.579 683.94C442.407 657.291 471.1 619.627 486.747 576.079C495.557 551.558 499.99 525.843 500 500.085V231.534C499.993 211.607 497.338 191.657 492.015 172.215C479.799 127.584 454.117 87.8053 418.473 58.2989L418.464 58.3094C412.029 53.1121 403.838 50 394.922 50C374.211 50 357.422 66.7895 357.422 87.5005C357.422 99.5328 363.09 110.242 371.899 117.104L371.906 117.109C395.023 136.671 411.687 162.782 419.69 192.015C423.235 204.964 425.005 218.252 425.013 231.525V500.094C425.002 517.255 422.047 534.386 416.177 550.723C405.745 579.757 386.615 604.869 361.394 622.637C336.173 640.404 306.086 649.964 275.236 650.012C244.385 650.06 214.269 640.596 188.992 622.907C163.715 605.219 144.507 580.167 133.983 551.166C128.01 534.703 125 517.422 124.987 500.109V231.507C124.996 218.397 126.725 205.271 130.187 192.469C138.168 162.949 154.978 136.579 178.357 116.887C187.009 110.017 192.559 99.4069 192.559 87.5005Z" fill="black"/>
</svg>
