<svg width="550" height="1000" viewBox="0 0 550 1000" fill="none" xmlns="http://www.w3.org/2000/svg">
<path d="M51.9714 99.5303C50.6934 95.7541 50 91.708 50 87.5C50 66.7893 66.7896 50 87.5 50C104.618 50 119.056 61.469 123.551 77.1418L301.776 647.599C312.252 645.698 322.521 642.683 332.405 638.589C350.605 631.05 367.142 620.001 381.072 606.071C395.001 592.142 406.05 575.605 413.589 557.405C421.128 539.206 425.007 519.699 425.007 500L425 87.5C425 66.7893 441.79 50 462.5 50C483.21 50 500 66.7893 500 87.5V500C500 529.547 494.18 558.806 482.874 586.104C471.566 613.402 454.993 638.206 434.099 659.099C413.206 679.992 388.402 696.566 361.104 707.873C333.805 719.18 304.547 725 275 725C258.356 725 244.244 714.156 239.344 699.147L239.309 699.158L51.9714 99.5303Z" fill="black"/>
</svg>
