<svg width="180" height="270" viewBox="0 0 180 270" fill="none" xmlns="http://www.w3.org/2000/svg">
  <path
    d="M0.788574 19.8121C0.277344 18.3016 0 16.6832 0 15C0 6.71573 6.71582 0 15 0C21.8472 0 27.6226 4.58761 29.4204 10.8567L100.71 239.039C104.901 238.279 109.008 237.073 112.962 235.436C120.242 232.42 126.857 228 132.429 222.429C138 216.857 142.42 210.242 145.436 202.962C148.451 195.682 150.003 187.88 150.003 180L150 15C150 6.71573 156.716 0 165 0C173.284 0 180 6.71573 180 15V180C180 191.819 177.672 203.522 173.149 214.442C168.626 225.361 161.997 235.282 153.64 243.64C145.282 251.997 135.361 258.626 124.441 263.149C113.522 267.672 101.819 270 90 270C83.3423 270 77.6978 265.662 75.7378 259.659L75.7236 259.663L0.788574 19.8121Z"
    fill="black" />
</svg>