<svg width="550" height="1000" viewBox="0 0 550 1000" fill="none" xmlns="http://www.w3.org/2000/svg">
<path d="M87.5 50C108.21 50 125 66.7893 125 87.5V500C124.993 519.699 128.872 539.206 136.411 557.405C143.95 575.605 154.999 592.142 168.928 606.071C182.858 620.001 199.395 631.05 217.595 638.589C224.081 641.275 230.732 643.497 237.5 645.245V200C237.5 179.289 254.29 162.5 275 162.5C295.71 162.5 312.5 179.289 312.5 200V645.245C319.268 643.497 325.919 641.275 332.406 638.589C350.605 631.05 367.142 620.001 381.072 606.071C395.001 592.142 406.05 575.605 413.589 557.405C421.128 539.206 425.007 519.699 425.007 500L425 87.5C425 66.7893 441.79 50 462.5 50C483.21 50 500 66.7893 500 87.5V500C500 529.547 494.18 558.805 482.874 586.104C471.566 613.402 454.993 638.206 434.099 659.099C413.206 679.992 388.402 696.566 361.104 707.873C333.806 719.18 304.547 725 275 725C245.453 725 216.195 719.18 188.896 707.873C161.598 696.566 136.794 679.992 115.901 659.099C95.0073 638.206 78.4338 613.402 67.1277 586.104C55.8203 558.806 50 529.547 50 500V87.5C50 66.7893 66.7896 50 87.5 50Z" fill="black"/>
</svg>
