<svg width="550" height="1000" viewBox="0 0 550 1000" fill="none" xmlns="http://www.w3.org/2000/svg">
<path d="M87.5 50C66.7896 50 50 66.7893 50 87.5V200C50 259.674 73.7048 316.903 115.901 359.099C126.581 369.779 138.224 379.274 150.625 387.5C138.224 395.726 126.581 405.221 115.901 415.901C73.7048 458.097 50 515.326 50 575V687.5C50 708.211 66.7896 725 87.5 725C108.21 725 125 708.211 125 687.5V575C124.993 535.216 140.797 497.061 168.928 468.929C196.786 441.071 234.473 425.295 273.837 424.997L275 425L276.163 424.997C315.527 425.295 353.214 441.071 381.072 468.929C409.203 497.061 425.007 535.216 425.007 575L425 687.5C425 708.211 441.79 725 462.5 725C483.21 725 500 708.211 500 687.5V575C500 515.326 476.295 458.097 434.099 415.901C423.419 405.221 411.776 395.726 399.375 387.5C411.776 379.274 423.419 369.779 434.099 359.099C476.295 316.903 500 259.674 500 200V87.5C500 66.7893 483.21 50 462.5 50C441.79 50 425 66.7893 425 87.5L425.007 200C425.007 239.784 409.203 277.939 381.072 306.071C353.214 333.929 315.527 349.698 276.163 350.003L275 350.008L273.837 350.003C234.473 349.698 196.786 333.929 168.928 306.071C140.797 277.939 124.993 239.784 125 200V87.5C125 66.7893 108.21 50 87.5 50Z" fill="black"/>
</svg>
