<svg width="550" height="1000" viewBox="0 0 550 1000" fill="none" xmlns="http://www.w3.org/2000/svg">
<path d="M192.578 87.5C192.578 66.7893 175.789 50 155.078 50C146.162 50 137.971 53.1121 131.536 58.3093L131.527 58.2988C95.8826 87.8047 70.2026 127.583 57.9846 172.213C45.7666 216.844 47.6074 264.156 63.2532 307.703C78.9002 351.25 107.593 388.913 145.421 415.562C173.025 435.008 204.514 447.899 237.5 453.474V687.5C237.5 708.211 254.29 725 275 725C295.71 725 312.5 708.211 312.5 687.5V453.474C345.249 447.938 376.531 435.191 404 415.968C441.913 389.438 470.723 351.865 486.506 308.367C502.29 264.87 504.279 217.564 492.201 172.895C480.153 128.335 454.692 88.5615 419.275 58.966C412.726 53.3753 404.227 50 394.941 50C374.231 50 357.441 66.7893 357.441 87.5C357.441 99.4062 362.991 110.016 371.643 116.886C395.022 136.578 411.832 162.947 419.813 192.467C427.866 222.249 426.541 253.789 416.017 282.79C405.493 311.791 386.285 336.842 361.008 354.53C335.731 372.218 305.615 381.683 274.764 381.634C243.914 381.586 213.828 372.027 188.606 354.259C163.385 336.492 144.255 311.381 133.823 282.347C123.391 253.313 122.164 221.769 130.31 192.012C138.313 162.78 154.977 136.67 178.094 117.108C186.908 110.246 192.578 99.5351 192.578 87.5Z" fill="black"/>
</svg>
