<svg width="180" height="270" viewBox="0 0 180 270" fill="none" xmlns="http://www.w3.org/2000/svg">
  <path
    d="M57.0313 15C57.0313 6.71573 50.3154 0 42.0313 0C38.4648 0 35.1885 1.24483 32.6143 3.32371L32.6108 3.31952C18.353 15.1219 8.08106 31.0332 3.19385 48.8854C-1.69336 66.7376 -0.957028 85.6624 5.30127 103.081C11.5601 120.5 23.0371 135.565 38.1685 146.225C49.21 154.003 61.8057 159.159 75 161.39V255C75 263.284 81.7158 270 90 270C98.2842 270 105 263.284 105 255V161.39C118.1 159.175 130.612 154.076 141.6 146.387C156.765 135.775 168.289 120.746 174.603 103.347C180.916 85.948 181.711 67.0255 176.88 49.1581C172.061 31.334 161.877 15.4246 147.71 3.58642C145.09 1.35013 141.691 0 137.977 0C129.692 0 122.977 6.71573 122.977 15C122.977 19.7625 125.196 24.0066 128.657 26.7544C138.009 34.6312 144.733 45.1788 147.925 56.9868C151.146 68.8995 150.616 81.5156 146.407 93.1159C142.197 104.716 134.514 114.737 124.403 121.812C114.292 128.887 102.246 132.673 89.9058 132.654C77.5654 132.634 65.5313 128.811 55.4424 121.704C45.354 114.597 37.7022 104.552 33.5293 92.9387C29.3564 81.3252 28.8657 68.7075 32.124 56.805C35.3252 45.112 41.9907 34.6678 51.2378 26.8431C54.7632 24.0984 57.0313 19.814 57.0313 15Z"
    fill="black" />
</svg>