<svg width="550" height="1000" viewBox="0 0 550 1000" fill="none" xmlns="http://www.w3.org/2000/svg">
<path d="M387.499 50.0014C402.273 50.0014 416.902 52.9113 430.55 58.5649C444.2 64.2185 456.601 72.5052 467.048 82.9517C477.495 93.3983 485.781 105.8 491.435 119.449C497.088 133.098 499.998 147.727 499.998 162.501C499.998 171.998 496.468 180.671 490.648 187.278L490.656 187.285L126.789 623.933C127.104 624.917 127.461 625.89 127.857 626.848C129.742 631.397 132.505 635.531 135.986 639.013C139.467 642.495 143.601 645.257 148.15 647.141C152.7 649.025 157.575 649.995 162.5 649.995L332.434 649.999C356.871 649.69 380.242 639.849 397.545 622.546C414.979 605.112 424.837 581.518 425.003 556.88L425.006 556.249C424.998 535.539 441.788 518.749 462.498 518.749C483.209 518.749 499.998 535.539 499.998 556.249C499.998 601.004 482.219 643.926 450.572 675.573C419.22 706.925 376.803 724.671 332.499 724.999C332.083 725.002 331.665 724.999 331.249 724.999H162.5C147.725 724.999 133.097 722.089 119.448 716.435C105.799 710.781 93.397 702.495 82.9503 692.048C72.5036 681.602 64.2175 669.2 58.5632 655.551C52.9101 641.902 50 627.273 50 612.499C50 603.002 53.5315 594.329 59.3518 587.722L59.3432 587.715L423.21 151.069C422.895 150.084 422.538 149.111 422.141 148.152C420.256 143.603 417.494 139.469 414.012 135.987C410.531 132.505 406.397 129.743 401.848 127.859C397.298 125.975 392.423 125.005 387.499 125.005L217.563 125.001C193.126 125.31 169.757 135.151 152.453 152.454C135.019 169.888 125.161 193.482 124.995 218.12L124.992 218.751C125 239.461 108.21 256.251 87.4998 256.251C66.7895 256.251 50 239.461 50 218.751C50 173.996 67.7795 131.074 99.4261 99.4269C130.778 68.075 173.195 50.3291 217.499 50.0014L217.955 50L218.749 50.0014H387.499Z" fill="black"/>
</svg>
