<svg width="180" height="270" viewBox="0 0 180 270" fill="none" xmlns="http://www.w3.org/2000/svg">
  <path
    d="M135 -7.62939e-06C140.91 -7.62939e-06 146.761 1.16396 152.221 3.42542C157.681 5.68687 162.641 9.00155 166.82 13.1802C170.999 17.3588 174.313 22.3196 176.575 27.7792C178.836 33.2389 180 39.0905 180 45C180 48.7989 178.588 52.268 176.26 54.9108L176.263 54.9138L30.7158 229.574C30.8418 229.967 30.9844 230.356 31.1431 230.74C31.897 232.559 33.002 234.213 34.3945 235.606C35.7871 236.998 37.4404 238.103 39.2603 238.857C41.0801 239.611 43.0303 239.999 45 239.999L112.974 240C122.749 239.877 132.097 235.94 139.019 229.019C145.992 222.045 149.936 212.608 150.002 202.752L150.003 202.5C150 194.216 156.716 187.5 165 187.5C173.284 187.5 180 194.216 180 202.5C180 220.402 172.888 237.571 160.229 250.23C147.688 262.771 130.722 269.869 113 270C112.833 270.001 112.667 270 112.5 270H45C39.0903 270 33.2388 268.836 27.7793 266.575C22.3198 264.313 17.3589 260.998 13.1802 256.82C9.00146 252.641 5.68701 247.68 3.42529 242.221C1.16406 236.761 0 230.909 0 225C0 221.201 1.4126 217.732 3.74072 215.089L3.7373 215.086L149.285 40.4273C149.159 40.0332 149.016 39.6439 148.857 39.2603C148.103 37.4406 146.998 35.7872 145.605 34.3944C144.213 33.0017 142.56 31.8969 140.74 31.1432C138.92 30.3894 136.97 30.0015 135 30.0015L67.0254 30C57.2505 30.1235 47.9028 34.0601 40.9814 40.9814C34.0078 47.955 30.0645 57.3923 29.998 67.2476L29.9971 67.5C30 75.7843 23.2842 82.5 15 82.5C6.71582 82.5 0 75.7843 0 67.5C0 49.5979 7.11182 32.429 19.7705 19.7703C32.3115 7.22948 49.2783 0.131088 67 -7.62939e-06L67.1821 -0.000549316L67.5 -7.62939e-06H135Z"
    fill="black" />
</svg>