<svg width="550" height="1150" viewBox="0 0 550 1150" fill="none" xmlns="http://www.w3.org/2000/svg">
<path fill-rule="evenodd" clip-rule="evenodd" d="M275 150.002C316.421 150.002 350 116.423 350 75.0008C350 33.579 316.421 0 275 0C233.579 0 200 33.579 200 75.0008C200 116.423 233.579 150.002 275 150.002ZM275 112.475C254.304 112.475 237.526 95.6974 237.526 75.0008C237.526 54.3043 254.304 37.5264 275 37.5264C295.696 37.5264 312.474 54.3043 312.474 75.0008C312.474 95.6974 295.696 112.475 275 112.475Z" fill="black"/>
<path fill-rule="evenodd" clip-rule="evenodd" d="M275 200.002C398.971 200.002 499.525 300.265 499.998 424.126L500 425.005V837.5C500 858.21 483.211 875 462.5 875C441.789 875 425 858.21 425 837.5V592.715C385.193 628.343 332.627 650.007 275 650.007C217.373 650.007 164.807 628.343 125 592.715V837.5C125 858.21 108.211 875 87.5 875C66.7893 875 50 858.21 50 837.5V424.126C50.4737 300.265 151.029 200.002 275 200.002ZM275 575.006C357.843 575.006 425 507.848 425 425.005C425 342.161 357.843 275.003 275 275.003C192.157 275.003 125 342.161 125 425.005C125 507.848 192.157 575.006 275 575.006Z" fill="black"/>
</svg>
