<svg width="550" height="1000" viewBox="0 0 550 1000" fill="none" xmlns="http://www.w3.org/2000/svg">
<path fill-rule="evenodd" clip-rule="evenodd" d="M115.9 115.901C73.7044 158.097 50 215.327 50 275V687.5C50 708.211 66.7892 725 87.4993 725C108.209 725 124.999 708.211 124.999 687.5V442.706C162.415 476.175 209.953 496.158 259.996 499.5V687.5C259.996 708.211 276.785 725 297.495 725C298.312 725 299.122 724.974 299.927 724.922C299.95 724.948 299.972 724.974 299.995 725C326.45 725 334.995 724.382 334.995 724.382C362.321 722.352 389.096 715.343 413.984 703.653C443.961 689.572 470.461 669.046 491.59 643.541L491.582 643.536C496.845 637.08 500 628.838 500 619.86C500 599.149 483.211 582.36 462.501 582.36C450.537 582.36 439.88 587.963 433.014 596.689C419.064 613.234 401.697 626.57 382.102 635.775C367.2 642.775 351.282 647.258 334.995 649.079V499.382C362.321 497.352 389.096 490.343 413.984 478.653C443.961 464.572 470.46 444.046 491.59 418.541L491.582 418.536C496.845 412.08 500 403.838 500 394.86C500 374.149 483.211 357.36 462.501 357.36C450.545 357.36 439.896 362.955 433.03 371.669C419.079 388.224 401.706 401.567 382.101 410.775C367.199 417.775 351.282 422.258 334.995 424.079V125.921C351.282 127.742 367.2 132.225 382.102 139.225C401.697 148.429 419.063 161.764 433.013 178.309C439.879 187.036 450.536 192.641 462.501 192.641C483.211 192.641 500 175.851 500 155.141C500 146.162 496.845 137.921 491.582 131.464L491.59 131.459C470.461 105.954 443.961 85.4281 413.984 71.3471C384.734 57.6081 352.876 50.335 320.582 50.0113C320.387 50.0038 320.191 50 319.995 50H274.996C215.323 50.0001 158.095 73.7055 115.9 115.901ZM259.996 125.744C225.721 129.187 193.499 144.355 168.926 168.929C140.795 197.061 124.991 235.216 124.991 275L124.999 276.483C125.387 315.732 141.146 353.289 168.926 381.071C193.499 405.645 225.722 420.813 259.996 424.256V125.744Z" fill="black"/>
</svg>
