<svg width="180" height="270" viewBox="0 0 180 270" fill="none" xmlns="http://www.w3.org/2000/svg">
<path fill-rule="evenodd" clip-rule="evenodd" d="M26.3604 26.3605C9.48193 43.2388 0 66.1306 0 90.0001V255C0 263.284 6.71582 270 15 270C23.2842 270 30 263.284 30 255V157.082C44.9668 170.47 63.9824 178.463 84 179.8V255C84 263.284 90.7158 270 99 270C99.3267 270 99.6509 269.99 99.9727 269.969C99.9819 269.979 99.9907 269.99 100 270C110.582 270 114 269.753 114 269.753C124.931 268.941 135.641 266.137 145.596 261.461C157.587 255.829 168.188 247.619 176.639 237.417L176.636 237.414C178.741 234.832 180.003 231.535 180.003 227.944C180.003 219.66 173.288 212.944 165.003 212.944C160.218 212.944 155.955 215.185 153.208 218.675C147.628 225.294 140.682 230.628 132.843 234.31C126.882 237.11 120.515 238.903 114 239.631V179.753C124.931 178.941 135.641 176.137 145.596 171.461C157.587 165.829 168.187 157.619 176.639 147.417L176.636 147.414C178.741 144.832 180.003 141.535 180.003 137.944C180.003 129.66 173.288 122.944 165.003 122.944C160.221 122.944 155.961 125.182 153.215 128.668C147.634 135.29 140.685 140.627 132.843 144.31C126.882 147.11 120.515 148.903 114 149.631V30.3685C120.515 31.097 126.882 32.8899 132.843 35.6898C140.682 39.3717 147.628 44.7058 153.208 51.3237C155.955 54.8145 160.217 57.0562 165.003 57.0562C173.288 57.0562 180.003 50.3405 180.003 42.0562C180.003 38.4648 178.741 35.1682 176.636 32.5858L176.639 32.5834C168.188 22.3815 157.587 14.1712 145.596 8.53884C133.896 3.04324 121.153 0.134018 108.235 0.00452423C108.157 0.00151825 108.079 0 108 0H90C66.1304 4.57764e-05 43.2388 9.48219 26.3604 26.3605ZM84 30.2975C70.2896 31.675 57.4009 37.7419 47.5713 47.5715C36.3188 58.8243 29.9971 74.0863 29.9971 90.0001L30 90.5934C30.1553 106.293 36.459 121.316 47.5713 132.429C57.4009 142.258 70.29 148.325 84 149.702V30.2975Z" fill="black"/>
</svg>
