<svg width="550" height="1000" viewBox="0 0 550 1000" fill="none" xmlns="http://www.w3.org/2000/svg">
<path fill-rule="evenodd" clip-rule="evenodd" d="M500 273.749C499.861 248.595 495.499 223.668 487.132 199.999C485.812 196.266 484.392 192.563 482.872 188.896C477.678 176.353 471.371 164.338 464.044 152.986L494.499 104.453C504.928 87.8343 499.909 65.9088 483.291 55.4808C466.672 45.0527 444.746 50.0711 434.319 66.6896L414.42 98.401C398.204 85.5991 380.269 75.0653 361.104 67.1271C333.805 55.8198 304.547 50 275 50C245.453 50 216.196 55.8198 188.897 67.1271C161.599 78.4343 136.795 95.0077 115.902 115.901C95.0083 136.794 78.4348 161.598 67.1287 188.896C65.609 192.563 64.1893 196.266 62.8685 199.999C54.5018 223.668 50.1402 248.595 50.0011 273.749C49.9986 274.166 50.0011 274.583 50.0011 274.999V499.998C50.0011 500.415 49.9986 500.832 50.0011 501.248C50.1402 526.402 54.5018 551.329 62.8685 574.998C64.1893 578.732 65.609 582.435 67.1287 586.102C72.3191 598.634 78.6204 610.641 85.9397 621.986L55.4662 670.548C45.0389 687.167 50.0572 709.092 66.6758 719.52C83.2944 729.948 105.219 724.93 115.648 708.312L135.559 676.58C151.781 689.391 169.724 699.931 188.897 707.873C216.196 719.18 245.453 725 275 725C304.547 725 333.805 719.18 361.104 707.873C388.402 696.566 413.206 679.991 434.099 659.098C454.993 638.205 471.566 613.4 482.872 586.102C484.392 582.435 485.812 578.732 487.132 574.998C495.499 551.329 499.861 526.402 500 501.248C500.002 500.832 500 500.415 500 499.998V273.749ZM136.411 217.594C129.033 235.408 125.162 254.475 125.001 273.749V501.248C125.162 520.522 129.033 539.589 136.411 557.404C143.95 575.604 155 592.141 168.929 606.07C182.858 620 199.395 631.05 217.595 638.589C235.795 646.127 255.301 650.008 275 650.008C294.7 650.008 314.206 646.127 332.406 638.589C350.606 631.05 367.142 620 381.072 606.07C395.001 592.141 406.051 575.604 413.59 557.404C420.968 539.589 424.839 520.522 425 501.248V273.749C424.839 254.475 420.968 235.408 413.59 217.594C406.051 199.394 395.001 182.857 381.072 168.928C367.142 154.998 350.606 143.949 332.406 136.41C314.206 128.871 294.7 124.991 275 124.991C255.301 124.991 235.795 128.871 217.595 136.41C199.395 143.949 182.858 154.998 168.929 168.928C155 182.857 143.95 199.394 136.411 217.594Z" fill="black"/>
</svg>
