<svg width="180" height="180" viewBox="0 0 180 180" fill="none" xmlns="http://www.w3.org/2000/svg">
  <path fill-rule="evenodd" clip-rule="evenodd"
    d="M150 157.083V165C150 173.284 156.716 180 165 180C173.284 180 180 173.284 180 165V90C180 40.2944 139.706 0 90 0C40.2944 0 0 40.2944 0 90C0 139.706 40.2944 180 90 180C113.051 180 134.077 171.334 150 157.083ZM150 90C150 123.137 123.137 150 90 150C56.8629 150 30 123.137 30 90C30 56.8629 56.8629 30 90 30C123.137 30 150 56.8629 150 90Z"
    fill="black" />
</svg>