<svg width="550" height="1000" viewBox="0 0 550 1000" fill="none" xmlns="http://www.w3.org/2000/svg">
<path fill-rule="evenodd" clip-rule="evenodd" d="M425 667.708V687.5C425 708.211 441.789 725 462.5 725C483.211 725 500 708.211 500 687.5V500C500 375.736 399.264 275 275 275C150.736 275 50 375.736 50 500C50 624.264 150.736 725 275 725C332.627 725 385.193 703.336 425 667.708ZM425 500C425 582.843 357.843 650 275 650C192.157 650 125 582.843 125 500C125 417.157 192.157 350 275 350C357.843 350 425 417.157 425 500Z" fill="black"/>
</svg>
