<svg width="550" height="1000" viewBox="0 0 550 1000" fill="none" xmlns="http://www.w3.org/2000/svg">
<path fill-rule="evenodd" clip-rule="evenodd" d="M125 87.5002C125 66.7895 108.211 50.0002 87.5 50.0002C66.7893 50.0002 50 66.7895 50 87.5002V500C50 624.264 150.736 725 275 725C399.264 725 500 624.264 500 500C500 375.736 399.264 275 275 275C217.373 275 164.807 296.664 125 332.292V87.5002ZM275 650C192.157 650 125 582.843 125 500C125 417.157 192.157 350 275 350C357.843 350 425 417.157 425 500C425 582.843 357.843 650 275 650Z" fill="black"/>
</svg>
