<svg width="180" height="270" viewBox="0 0 180 270" fill="none" xmlns="http://www.w3.org/2000/svg">
  <path fill-rule="evenodd" clip-rule="evenodd"
    d="M30 15C30 6.71573 23.2843 0 15 0C6.71573 0 0 6.71573 0 15V180C0 229.706 40.2944 270 90 270C139.706 270 180 229.706 180 180C180 130.294 139.706 90 90 90C66.9494 90 45.9227 98.6656 30 112.917V15ZM90 240C56.8629 240 30 213.137 30 180C30 146.863 56.8629 120 90 120C123.137 120 150 146.863 150 180C150 213.137 123.137 240 90 240Z"
    fill="black" />
</svg>