<svg width="163" height="180" viewBox="0 0 163 180" fill="none" xmlns="http://www.w3.org/2000/svg">
  <path
    d="M159.062 147.71C147.224 161.877 131.315 172.061 113.49 176.88C95.6229 181.711 76.7005 180.916 59.3015 174.603C41.9025 168.289 26.8731 156.765 16.2612 141.6C5.64931 126.436 -0.0289721 108.368 0.000111163 89.8587C0.0291639 71.3497 5.76415 53.2998 16.4236 38.1684C27.0831 23.037 42.1486 11.5601 59.5673 5.30142C76.9861 -0.957235 95.9109 -1.6932 113.763 3.1938C131.615 8.08081 147.527 18.3531 159.329 32.611L159.325 32.6144C161.404 35.1888 162.648 38.4647 162.648 42.0313C162.648 50.3155 155.933 57.0313 147.648 57.0313C142.834 57.0313 138.549 54.763 135.805 51.2368C127.98 41.9907 117.536 35.3249 105.843 32.1241C93.9409 28.8658 81.3233 29.3565 69.7097 33.5293C58.0962 37.7021 48.0517 45.354 40.9447 55.4425C33.8378 65.531 30.0141 77.5654 29.9947 89.9058C29.9754 102.246 33.7612 114.293 40.8364 124.403C47.9116 134.514 57.9322 142.198 69.5325 146.407C81.1329 150.616 93.7489 151.146 105.662 147.925C117.469 144.733 128.016 138.009 135.893 128.658C138.641 125.197 142.885 122.977 147.648 122.977C155.933 122.977 162.648 129.692 162.648 137.977C162.648 141.691 161.298 145.09 159.062 147.71Z"
    fill="black" />
</svg>