<svg width="507" height="1000" viewBox="0 0 507 1000" fill="none" xmlns="http://www.w3.org/2000/svg">
<path d="M447.655 644.275C418.06 679.692 378.286 705.153 333.726 717.201C289.057 729.278 241.751 727.29 198.254 711.507C154.756 695.723 117.183 666.913 90.653 629.001C64.1233 591.089 49.9276 545.919 50.0003 499.647C50.0729 453.374 64.4104 408.25 91.059 370.421C117.708 332.593 155.371 303.9 198.918 288.254C242.465 272.607 289.777 270.767 334.408 282.985C379.038 295.202 418.816 320.883 448.322 356.528L448.312 356.536C453.509 362.972 456.621 371.162 456.621 380.078C456.621 400.789 439.832 417.578 419.121 417.578C407.085 417.578 396.373 411.908 389.511 403.092C369.95 379.977 343.84 363.312 314.609 355.31C284.852 347.165 253.308 348.391 224.274 358.823C195.241 369.255 170.129 388.385 152.362 413.606C134.594 438.828 125.035 468.914 124.987 499.765C124.938 530.616 134.403 560.731 152.091 586.008C169.779 611.285 194.83 630.494 223.831 641.017C252.832 651.54 284.372 652.866 314.154 644.814C343.673 636.833 370.041 620.023 389.733 596.646C396.602 587.992 407.213 582.442 419.121 582.442C439.832 582.442 456.621 599.231 456.621 619.942C456.621 629.228 453.246 637.725 447.655 644.275Z" fill="black"/>
</svg>
