<svg width="550" height="1000" viewBox="0 0 550 1000" fill="none" xmlns="http://www.w3.org/2000/svg">
<path fill-rule="evenodd" clip-rule="evenodd" d="M425 87.5002C425 66.7895 441.789 50.0002 462.5 50.0002C483.211 50.0002 500 66.7895 500 87.5002V500C500 624.264 399.264 725 275 725C150.736 725 50 624.264 50 500C50 375.736 150.736 275 275 275C332.627 275 385.193 296.664 425 332.292V87.5002ZM275 350C357.843 350 425 417.157 425 500C425 582.843 357.843 650 275 650C192.157 650 125 582.843 125 500C125 417.157 192.157 350 275 350Z" fill="black"/>
</svg>
