<svg width="507" height="1000" viewBox="0 0 507 1000" fill="none" xmlns="http://www.w3.org/2000/svg">
<path fill-rule="evenodd" clip-rule="evenodd" d="M447.649 644.282C418.054 679.695 378.283 705.154 333.726 717.201C289.057 729.278 241.751 727.29 198.254 711.507C154.756 695.723 117.183 666.913 90.653 629.001C64.1234 591.089 49.9276 545.919 50.0003 499.647C50.0729 453.374 64.4104 408.25 91.0591 370.421C117.708 332.593 155.371 303.9 198.918 288.254C242.465 272.607 289.777 270.767 334.408 282.985C379.038 295.202 418.816 320.883 448.322 356.528L448.312 356.536C453.509 362.972 456.621 371.162 456.621 380.078C456.621 392.808 450.279 404.057 440.581 410.836L440.537 410.865C440.23 411.079 439.921 411.288 439.607 411.493L162.112 598.795C178.733 617.787 199.942 632.349 223.831 641.017C252.832 651.54 284.372 652.866 314.154 644.814C343.673 636.833 370.041 620.023 389.732 596.646C396.602 587.992 407.213 582.442 419.121 582.442C439.832 582.442 456.621 599.231 456.621 619.942C456.621 629.231 453.243 637.731 447.649 644.282ZM124.987 499.765C124.97 510.372 126.078 520.892 128.258 531.159L358.781 375.563C345.333 366.509 330.428 359.641 314.609 355.31C284.852 347.165 253.308 348.391 224.274 358.823C195.241 369.255 170.129 388.385 152.362 413.607C134.594 438.828 125.035 468.914 124.987 499.765Z" fill="black"/>
</svg>
