<svg width="163" height="180" viewBox="0 0 163 180" fill="none" xmlns="http://www.w3.org/2000/svg">
  <path fill-rule="evenodd" clip-rule="evenodd"
    d="M159.06 147.713C147.222 161.878 131.313 172.062 113.49 176.88C95.6229 181.711 76.7005 180.916 59.3015 174.603C41.9025 168.289 26.8731 156.765 16.2612 141.6C5.64934 126.436 -0.0289418 108.368 0.000110931 89.8587C0.0291637 71.3497 5.76415 53.2998 16.4236 38.1684C27.0831 23.037 42.1485 11.5601 59.5673 5.30141C76.9861 -0.957238 95.9109 -1.6932 113.763 3.1938C131.615 8.08081 147.527 18.3531 159.329 32.611L159.325 32.6144C161.404 35.1888 162.648 38.4647 162.648 42.0313C162.648 47.1231 160.112 51.6227 156.233 54.3342L156.215 54.3461C156.092 54.4316 155.968 54.5153 155.843 54.5972L44.8448 129.518C51.4933 137.115 59.9769 142.939 69.5325 146.407C81.1329 150.616 93.7489 151.146 105.662 147.925C117.469 144.733 128.016 138.009 135.893 128.658C138.641 125.197 142.885 122.977 147.648 122.977C155.933 122.977 162.648 129.692 162.648 137.977C162.648 141.692 161.297 145.093 159.06 147.713ZM29.9947 89.9058C29.9881 94.1488 30.4313 98.3569 31.3033 102.464L123.513 40.225C118.133 36.6034 112.171 33.8563 105.843 32.1241C93.9409 28.8658 81.3233 29.3565 69.7098 33.5293C58.0962 37.7021 48.0516 45.354 40.9447 55.4425C33.8378 65.531 30.0141 77.5654 29.9947 89.9058Z"
    fill="black" />
</svg>