<svg width="413" height="1000" viewBox="0 0 413 1000" fill="none" xmlns="http://www.w3.org/2000/svg">
<path d="M100.001 275C100.001 245.453 105.82 216.195 117.127 188.896C128.434 161.598 145.008 136.794 165.901 115.901C186.794 95.0079 211.598 78.4345 238.896 67.1272C266.195 55.8199 295.453 50.0002 325 50.0002C345.711 50.0002 362.5 66.7895 362.5 87.5002C362.5 108.211 345.711 125 325 125C324.774 125 324.549 124.998 324.324 124.994C304.854 125.082 285.586 128.959 267.595 136.411C249.395 143.95 232.858 154.999 218.929 168.929C204.999 182.858 193.95 199.395 186.411 217.595C178.873 235.795 174.992 255.301 174.992 275L175 275H187.5C208.211 275 225 291.79 225 312.5C225 333.211 208.211 350 187.5 350H175V687.5C175 708.211 158.211 725 137.5 725C116.789 725 100 708.211 100 687.5L100.001 350H87.5C66.7892 350 50 333.211 50 312.5C50 291.79 66.7892 275 87.5 275L100.001 275Z" fill="black"/>
</svg>
