<svg width="550" height="1000" viewBox="0 0 550 1000" fill="none" xmlns="http://www.w3.org/2000/svg">
<path fill-rule="evenodd" clip-rule="evenodd" d="M275 725C332.627 725 385.193 703.336 425 667.708V725C425 744.699 421.122 764.204 413.584 782.404C406.046 800.603 394.997 817.139 381.068 831.068C367.139 844.997 350.603 856.046 332.404 863.584C314.204 871.123 294.698 875.003 275 875.003C254.289 875.003 237.5 891.79 237.5 912.5C237.5 933.211 254.289 950 275 950C304.547 950 333.806 944.18 361.104 932.873C388.402 921.566 413.206 904.992 434.099 884.099C454.992 863.206 471.566 838.402 482.873 811.104C494.18 783.806 500 754.548 500 725V500C500 375.736 399.264 275 275 275C150.736 275 50 375.736 50 500C50 624.264 150.736 725 275 725ZM125 500C125 417.157 192.157 350 275 350C357.843 350 425 417.157 425 500C425 582.843 357.843 650 275 650C192.157 650 125 582.843 125 500Z" fill="black"/>
</svg>
