<svg width="550" height="1000" viewBox="0 0 550 1000" fill="none" xmlns="http://www.w3.org/2000/svg">
<path d="M87.5 50C108.211 50 125 66.7893 125 87.5V332.294C131.638 326.357 138.648 320.797 145.999 315.653C183.911 289.123 229.081 274.928 275.353 275C321.626 275.073 366.75 289.41 404.579 316.059C442.407 342.708 471.1 380.371 486.746 423.918C502.393 467.465 504.233 514.777 492.016 559.408C479.798 604.038 454.117 643.816 418.473 673.322L418.464 673.312C412.028 678.509 403.838 681.621 394.922 681.621C374.211 681.621 357.422 664.832 357.422 644.121C357.422 632.084 363.093 621.371 371.91 614.509C395.024 594.948 411.688 568.839 419.69 539.608C427.836 509.852 426.609 478.308 416.177 449.274C405.745 420.24 386.615 395.129 361.394 377.362C336.172 359.594 306.087 350.035 275.236 349.987C244.384 349.938 214.269 359.403 188.992 377.091C163.715 394.779 144.506 419.83 133.983 448.831C128.227 464.695 125.223 481.319 125 497.999V500H124.987C124.987 513.148 126.715 526.315 130.186 539.154C138.168 568.673 154.978 595.042 178.355 614.733C187.009 621.603 192.559 632.214 192.559 644.121C192.559 664.832 175.769 681.621 155.059 681.621C145.77 681.621 137.27 678.244 130.72 672.65C95.3055 643.055 69.8465 603.284 57.7991 558.726C52.5925 539.468 50 519.721 50 500V87.5C50 66.7893 66.7892 50 87.5 50Z" fill="black"/>
</svg>
