<svg width="441" height="1000" viewBox="0 0 441 1000" fill="none" xmlns="http://www.w3.org/2000/svg">
<path d="M258.244 162.5C258.244 183.211 241.454 200 220.744 200C200.033 200 183.244 183.211 183.244 162.5C183.244 141.79 200.033 125 220.744 125C241.454 125 258.244 141.79 258.244 162.5Z" fill="black"/>
<path d="M379.843 659.099C358.95 679.992 334.146 696.566 306.847 707.873C279.549 719.18 250.291 725 220.744 725C191.196 725 161.938 719.18 134.64 707.873C107.342 696.566 82.5378 679.992 61.6446 659.099L61.6492 659.094C54.473 652.264 50 642.618 50 631.928C50 611.218 66.7892 594.428 87.5 594.428C98.19 594.428 107.835 598.901 114.666 606.078L114.67 606.074C128.6 620.004 145.137 631.053 163.337 638.592C169.823 641.279 176.476 643.501 183.244 645.248V312.5C183.244 291.79 200.033 275 220.744 275C241.454 275 258.244 291.79 258.244 312.5V645.248C265.012 643.501 271.664 641.279 278.15 638.592C296.35 631.053 312.888 620.004 326.817 606.074L326.82 606.076C333.651 598.901 343.295 594.428 353.984 594.428C374.695 594.428 391.484 611.218 391.484 631.928C391.484 642.618 387.012 652.262 379.836 659.093L379.843 659.099Z" fill="black"/>
</svg>
