<svg width="138" height="240" viewBox="0 0 138 240" fill="none" xmlns="http://www.w3.org/2000/svg">
  <path d="M84 15C84 23.2843 77.2842 30 69 30C60.7157 30 54 23.2843 54 15C54 6.71573 60.7157 0 69 0C77.2842 0 84 6.71573 84 15Z" fill="black" />
  <path
    d="M132.64 213.64C124.282 221.997 114.361 228.626 103.441 233.149C92.5222 237.672 80.819 240 69 240C57.181 240 45.4778 237.672 34.5585 233.149C23.6392 228.626 13.7177 221.997 5.36035 213.64L5.36218 213.638C2.4917 210.905 0.702515 207.047 0.702515 202.771C0.702515 194.487 7.41821 187.771 15.7025 187.771C19.9785 187.771 23.8365 189.56 26.569 192.431L26.5704 192.429C32.1423 198.001 38.7572 202.421 46.0372 205.437C48.6318 206.512 51.2928 207.4 54 208.099V75C54 66.7157 60.7157 60 69 60C77.2843 60 84 66.7157 84 75V208.099C86.7072 207.4 89.368 206.512 91.9626 205.437C99.2427 202.421 105.858 198.001 111.429 192.429L111.43 192.43C114.163 189.56 118.021 187.771 122.296 187.771C130.581 187.771 137.296 194.487 137.296 202.771C137.296 207.047 135.507 210.905 132.637 213.637L132.64 213.64Z"
    fill="black" />
</svg>