<svg width="105" height="330" viewBox="0 0 105 330" fill="none" xmlns="http://www.w3.org/2000/svg">
  <path d="M90 30C98.2844 30 105 23.2843 105 15C105 6.71573 98.2844 0 90 0C81.7158 0 75 6.71573 75 15C75 23.2843 81.7158 30 90 30Z" fill="black" />
  <path
    d="M75 74.9999C75 66.7157 81.7158 59.9999 90 59.9999C98.2844 59.9999 105 66.7157 105 74.9999L105 240C105 251.819 102.672 263.522 98.1492 274.442C93.6262 285.361 86.9968 295.282 78.6396 303.64C70.2822 311.997 60.3608 318.626 49.4414 323.149C38.5222 327.672 26.819 330 15 330C6.7157 330 0 323.284 0 315C0 306.716 6.7157 300 15 300C15.1309 300 15.2614 300.002 15.3915 300.005C23.1384 299.954 30.8037 298.404 37.9634 295.439C45.2437 292.423 51.8589 288.003 57.4309 282.431C63.0029 276.859 67.4231 270.244 70.4387 262.963C73.4541 255.683 75.0063 247.88 75.0063 240L75 74.9999Z"
    fill="black" />
</svg>