<svg width="363" height="1000" viewBox="0 0 363 1000" fill="none" xmlns="http://www.w3.org/2000/svg">
<path d="M275 200C295.711 200 312.5 183.211 312.5 162.5C312.5 141.79 295.711 125 275 125C254.29 125 237.5 141.79 237.5 162.5C237.5 183.211 254.29 200 275 200Z" fill="black"/>
<path d="M237.5 312.5C237.5 291.789 254.29 275 275 275C295.711 275 312.5 291.789 312.5 312.5L312.499 725C312.499 754.548 306.68 783.806 295.373 811.104C284.066 838.402 267.492 863.206 246.599 884.099C225.706 904.992 200.902 921.566 173.604 932.873C146.306 944.18 117.047 950 87.5 950C66.7892 950 50 933.211 50 912.5C50 891.79 66.7892 875 87.5 875C87.8271 875 88.1534 875.004 88.4787 875.013C107.846 874.886 127.009 871.011 144.908 863.597C163.109 856.058 179.647 845.008 193.577 831.077C207.507 817.147 218.558 800.609 226.097 782.409C233.635 764.208 237.516 744.701 237.516 725L237.5 312.5Z" fill="black"/>
</svg>
