<svg width="550" height="1000" viewBox="0 0 550 1000" fill="none" xmlns="http://www.w3.org/2000/svg">
<path d="M87.5 50.0002C108.21 50.0002 125 66.7895 125 87.5002V493.79C144.697 493.79 164.202 489.91 182.399 482.373C200.597 474.835 217.132 463.787 231.06 449.859C244.988 435.931 256.036 419.396 263.574 401.198C271.111 383 274.991 363.496 274.991 343.799L275 343.799C275 323.088 291.79 306.299 312.5 306.299C333.21 306.299 350 323.088 350 343.799C350 373.346 344.18 402.604 332.873 429.903C327.664 442.479 321.337 454.525 313.986 465.903C330.107 468.74 345.909 473.333 361.104 479.627C388.402 490.935 413.206 507.508 434.099 528.401C454.992 549.294 471.566 574.098 482.873 601.396C494.18 628.695 500 657.953 500 687.5C500 708.211 483.21 725 462.5 725C441.79 725 425 708.211 425 687.5H424.992C424.992 667.803 421.112 648.299 413.574 630.101C406.037 611.903 394.988 595.368 381.06 581.44C367.133 567.512 350.598 556.463 332.399 548.926C314.202 541.388 294.697 537.508 275 537.508C255.303 537.508 235.798 541.388 217.601 548.926C199.402 556.463 182.867 567.512 168.94 581.44C155.012 595.368 143.963 611.903 136.426 630.101C128.888 648.299 125.008 667.803 125.008 687.5H125C125 708.211 108.21 725 87.5 725C66.7896 725 50 708.211 50 687.5V87.5002C50 66.7895 66.7896 50.0002 87.5 50.0002Z" fill="black"/>
</svg>
