<svg width="363" height="1000" viewBox="0 0 363 1000" fill="none" xmlns="http://www.w3.org/2000/svg">
<path d="M87.5 50.0001C108.21 50.0001 125 66.7894 125 87.5001L124.984 500C124.984 539.787 140.789 577.944 168.922 606.078C196.818 633.973 234.568 649.748 273.99 650.013C274.326 650.005 274.662 650 275 650C295.71 650 312.5 666.789 312.5 687.5C312.5 708.211 295.71 725 275 725C215.327 725 158.097 701.295 115.901 659.099C73.7054 616.904 50.0012 559.674 50.0012 500L50 87.5001C50 66.7894 66.7896 50.0001 87.5 50.0001Z" fill="black"/>
</svg>
