<svg width="550" height="1000" viewBox="0 0 550 1000" fill="none" xmlns="http://www.w3.org/2000/svg">
<path d="M57.7992 558.727C69.847 603.288 95.3084 643.061 130.725 672.657C137.275 678.247 145.773 681.623 155.059 681.623C175.769 681.623 192.559 664.833 192.559 644.123C192.559 632.216 187.01 621.606 178.358 614.737C154.979 595.045 138.168 568.676 130.187 539.156C122.135 509.374 123.46 477.834 133.983 448.833C144.506 419.832 163.715 394.781 188.992 377.093C203.779 366.745 220.222 359.212 237.5 354.751V495.002C237.5 515.712 254.29 532.502 275 532.502C295.71 532.502 312.5 515.712 312.5 495.002V354.751C329.93 359.251 346.509 366.878 361.394 377.363C386.615 395.131 405.745 420.242 416.177 449.276C426.609 478.31 427.836 509.854 419.69 539.61C411.688 568.843 395.022 594.953 371.905 614.515C363.091 621.377 357.422 632.088 357.422 644.123C357.422 664.833 374.211 681.623 394.922 681.623C403.838 681.623 412.028 678.511 418.464 673.313L418.473 673.324C454.117 643.818 479.798 604.04 492.015 559.409C504.233 514.779 502.393 467.467 486.747 423.92C471.1 380.373 442.408 342.709 404.579 316.061C366.75 289.412 321.626 275.075 275.353 275.002C229.081 274.929 183.911 289.125 145.999 315.655C108.087 342.184 79.2769 379.758 63.4938 423.255C47.7101 466.753 45.7216 514.059 57.7992 558.727Z" fill="black"/>
</svg>
