<svg width="180" height="163" viewBox="0 0 180 163" fill="none" xmlns="http://www.w3.org/2000/svg">
  <path
    d="M3.1197 113.49C7.93879 131.314 18.1234 147.224 32.2901 159.062C34.91 161.298 38.3092 162.648 42.0235 162.648C50.3077 162.648 57.0235 155.933 57.0235 147.648C57.0235 142.886 54.804 138.642 51.3431 135.894C41.9915 128.017 35.2672 117.47 32.0748 105.662C28.8538 93.7489 29.3841 81.1329 33.5933 69.5325C37.8026 57.9322 45.4862 47.9117 55.5967 40.8364C65.7076 33.7612 77.754 29.9754 90.0943 29.9947C102.435 30.0141 114.469 33.8378 124.558 40.9447C134.646 48.0517 142.298 58.0962 146.471 69.7097C150.644 81.3233 151.134 93.9409 147.876 105.843C144.675 117.537 138.009 127.981 128.762 135.806C125.237 138.55 122.969 142.834 122.969 147.648C122.969 155.933 129.685 162.648 137.969 162.648C141.535 162.648 144.811 161.404 147.386 159.325L147.389 159.329C161.647 147.527 171.919 131.615 176.806 113.763C181.693 95.9109 180.957 76.9861 174.699 59.5673C168.44 42.1486 156.963 27.0831 141.832 16.4236C126.7 5.76416 108.65 0.0291714 90.1414 0.000111047C71.6324 -0.0289569 53.5645 5.64932 38.3997 16.2612C23.2349 26.8731 11.7108 41.9025 5.39753 59.3015C-0.915945 76.7005 -1.71136 95.6229 3.1197 113.49Z"
    fill="black" />
</svg>