<svg width="550" height="1000" viewBox="0 0 550 1000" fill="none" xmlns="http://www.w3.org/2000/svg">
<path fill-rule="evenodd" clip-rule="evenodd" d="M275 725C217.374 725 164.807 703.336 125 667.708V912.5C125 933.211 108.21 950 87.5 950C66.7896 950 50 933.211 50 912.5V500C50 375.736 150.736 275 275 275C399.264 275 500 375.736 500 500C500 624.264 399.264 725 275 725ZM275 350C357.843 350 425 417.157 425 500C425 582.843 357.843 650 275 650C192.157 650 125 582.843 125 500C125 417.157 192.157 350 275 350Z" fill="black"/>
</svg>
