<svg width="180" height="270" viewBox="0 0 180 270" fill="none" xmlns="http://www.w3.org/2000/svg">
  <path fill-rule="evenodd" clip-rule="evenodd"
    d="M165 270C156.716 270 150 263.284 150 255V157.083C134.077 171.334 113.051 180 90 180C40.2944 180 0 139.706 0 90C0 40.2944 40.2944 0 90 0C139.706 0 180 40.2944 180 90V255C180 263.284 173.284 270 165 270ZM90 30C56.8628 30 30 56.8629 30 90C30 123.137 56.8628 150 90 150C123.137 150 150 123.137 150 90C150 56.8629 123.137 30 90 30Z"
    fill="black" />
</svg>