<svg width="550" height="1000" viewBox="0 0 550 1000" fill="none" xmlns="http://www.w3.org/2000/svg">
<path fill-rule="evenodd" clip-rule="evenodd" d="M462.5 950C441.79 950 425 933.211 425 912.5V667.708C385.193 703.336 332.626 725 275 725C150.736 725 50 624.264 50 500C50 375.736 150.736 275 275 275C399.264 275 500 375.736 500 500V912.5C500 933.211 483.21 950 462.5 950ZM275 350C192.157 350 125 417.157 125 500C125 582.843 192.157 650 275 650C357.843 650 425 582.843 425 500C425 417.157 357.843 350 275 350Z" fill="black"/>
</svg>
