<svg width="507" height="1000" viewBox="0 0 507 1000" fill="none" xmlns="http://www.w3.org/2000/svg">
<path d="M90.8972 370.653C64.2822 408.534 50.0012 453.704 50.0012 500L50 687.5C50 708.211 66.7895 725 87.5 725C108.21 725 125 708.211 125 687.5V500L124.984 500C124.984 469.132 134.506 439.016 152.252 413.759C169.996 388.502 195.101 369.333 224.141 358.868C253.18 348.403 284.741 347.151 314.518 355.282C343.798 363.277 369.952 379.962 389.538 403.117L389.542 403.121C396.402 411.956 407.126 417.641 419.177 417.641C439.888 417.641 456.677 400.851 456.677 380.141C456.677 371.168 453.526 362.931 448.27 356.477L448.277 356.471C418.744 320.818 378.932 295.142 334.271 282.947C289.609 270.752 242.273 272.63 198.719 288.326C155.164 304.022 117.512 332.771 90.8972 370.653Z" fill="black"/>
</svg>
