<svg width="160" height="180" viewBox="0 0 160 180" fill="none" xmlns="http://www.w3.org/2000/svg">
  <path
    d="M38.0405 11.4661C25.8644 18.2816 15.4389 27.8341 7.58953 39.3705C3.4279 45.786 1.07414 53.2057 0.776781 60.8472C0.479418 68.4887 2.24919 76.0688 5.89983 82.7885C9.55046 89.5081 14.9465 95.1183 21.5192 99.0275C28.0217 102.895 35.4374 104.956 42.9999 105L116.752 105.001C119.001 105.001 121.208 105.608 123.142 106.757C125.075 107.907 126.662 109.557 127.735 111.533C128.809 113.509 129.33 115.739 129.242 117.986C129.157 120.162 128.506 122.277 127.353 124.122C122.15 131.648 115.293 137.887 107.305 142.358C99.1864 146.903 90.1227 149.497 80.8298 149.936C71.5365 150.375 62.2687 148.647 53.758 144.889C45.3085 141.158 37.8356 135.527 31.9201 128.435C29.1718 124.988 24.9364 122.779 20.1852 122.779C11.901 122.779 5.18523 129.495 5.18523 137.779C5.18523 141.468 6.51677 144.846 8.72527 147.458C17.623 158.185 28.8905 166.7 41.6403 172.33C54.4057 177.967 68.3068 180.558 82.2458 179.9C96.1847 179.241 109.78 175.35 121.956 168.534C134.133 161.718 144.558 152.164 152.407 140.63C156.569 134.214 158.923 126.794 159.22 119.153C159.518 111.511 157.747 103.931 154.097 97.2115C150.446 90.4919 145.05 84.8817 138.477 80.9725C131.976 77.105 124.559 75.0435 116.997 75L43.2446 74.9993C40.9955 74.9993 38.788 74.3924 36.8551 73.2427C34.922 72.093 33.3351 70.4431 32.2614 68.4668C31.1879 66.4906 30.6674 64.2613 30.7548 62.0139C30.8395 59.838 31.4911 57.7232 32.6435 55.8784C37.8471 48.3516 44.704 42.1129 52.6921 37.6416C60.8102 33.0974 69.8739 30.5032 79.1669 30.064C88.4601 29.6248 97.728 31.3525 106.239 35.1107C114.686 38.8412 122.158 44.4706 128.073 51.5599C130.821 55.0096 135.058 57.2206 139.811 57.2206C148.096 57.2206 154.811 50.5049 154.811 42.2206C154.811 38.5396 153.485 35.1684 151.285 32.5583C142.385 21.8234 131.113 13.3032 118.356 7.67012C105.591 2.03305 91.6899 -0.558449 77.7509 0.100357C63.8119 0.759163 50.217 4.65023 38.0405 11.4661Z"
    fill="black" />
</svg>