<svg width="496" height="1000" viewBox="0 0 496 1000" fill="none" xmlns="http://www.w3.org/2000/svg">
<path d="M143.24 303.666C112.799 320.704 86.7357 344.585 67.1122 373.426C56.7082 389.465 50.8238 408.014 50.0804 427.118C49.337 446.222 53.7614 465.172 62.888 481.971C72.0146 498.77 85.5046 512.796 101.936 522.569C118.193 532.238 136.732 537.391 155.638 537.5L340.019 537.502C345.642 537.502 351.159 539.019 355.992 541.893C360.825 544.768 364.792 548.892 367.477 553.833C370.161 558.774 371.462 564.347 371.244 569.965C371.031 575.405 369.403 580.692 366.522 585.304C353.513 604.121 336.37 619.718 316.4 630.896C296.105 642.257 273.445 648.742 250.213 649.84C226.98 650.938 203.81 646.619 182.533 637.223C161.41 627.895 142.727 613.817 127.939 596.088C121.068 587.471 110.48 581.949 98.6015 581.949C77.8911 581.949 61.1015 598.738 61.1015 619.449C61.1015 628.67 64.4304 637.115 69.9516 643.645C92.1959 670.463 120.365 691.749 152.239 705.825C184.153 719.918 218.905 726.396 253.753 724.749C288.6 723.102 322.588 713.375 353.03 696.335C383.471 679.295 409.534 655.41 429.156 626.574C439.56 610.535 445.445 591.986 446.189 572.882C446.932 553.779 442.507 534.828 433.38 518.029C424.254 501.23 410.764 487.204 394.332 477.432C378.077 467.763 359.537 462.609 340.63 462.5L156.25 462.498C150.627 462.498 145.108 460.981 140.276 458.107C135.444 455.233 131.476 451.108 128.792 446.167C126.108 441.227 124.807 435.653 125.025 430.035C125.237 424.595 126.866 419.308 129.747 414.696C142.756 395.879 159.898 380.282 179.869 369.104C200.164 357.744 222.823 351.258 246.056 350.16C269.289 349.062 292.458 353.381 313.735 362.777C334.854 372.103 353.533 386.177 368.32 403.9C375.19 412.524 385.784 418.052 397.667 418.052C418.378 418.052 435.167 401.262 435.167 380.552C435.167 371.349 431.852 362.921 426.351 356.396C404.101 329.559 375.92 308.258 344.029 294.176C312.116 280.083 277.363 273.604 242.516 275.251C207.668 276.898 173.681 286.626 143.24 303.666Z" fill="black"/>
</svg>
