<svg width="362" height="1000" viewBox="0 0 362 1000" fill="none" xmlns="http://www.w3.org/2000/svg">
<path d="M87.4994 50C108.209 50 124.999 66.7892 124.999 87.4996V274.996H237.497C258.207 274.996 274.996 291.786 274.996 312.496C274.996 333.206 258.207 349.995 237.497 349.995H124.999L124.983 499.993C124.991 519.692 128.871 539.198 136.41 557.397C143.949 575.597 154.997 592.133 168.926 606.062C182.855 619.992 199.392 631.041 217.591 638.58C235.792 646.118 255.297 649.998 274.996 650.001C295.706 650.001 312.496 666.79 312.496 687.501C312.496 708.211 295.706 725 274.996 725L274.689 724.999C274.458 724.997 274.228 724.993 274 724.987C244.792 724.858 215.885 719.042 188.894 707.862C161.596 696.555 136.793 679.982 115.9 659.089C95.0066 638.196 78.4334 613.393 67.1262 586.095C55.8202 558.797 50.0012 529.54 50.0012 499.993L50 87.4996C50 66.7892 66.7893 50 87.4994 50Z" fill="black"/>
</svg>
