<svg width="550" height="1000" viewBox="0 0 550 1000" fill="none" xmlns="http://www.w3.org/2000/svg">
<path d="M192.559 355.5C192.559 334.789 175.769 318 155.059 318C145.773 318 137.274 321.375 130.725 326.966C95.3078 356.562 69.8476 396.335 57.7992 440.895C45.7216 485.564 47.7101 532.87 63.4938 576.367C79.2775 619.865 108.087 657.438 146 683.968C183.911 710.498 229.081 724.693 275.353 724.621C321.626 724.548 366.751 710.211 404.579 683.562C442.407 656.913 471.1 619.25 486.747 575.703C502.393 532.156 504.233 484.844 492.015 440.214C479.799 395.583 454.117 355.805 418.473 326.299L418.464 326.309C412.029 321.112 403.838 318 394.922 318C374.211 318 357.422 334.789 357.422 355.5C357.422 367.535 363.092 378.246 371.906 385.108C395.023 404.67 411.687 430.78 419.69 460.013C427.836 489.769 426.609 521.313 416.177 550.347C405.745 579.381 386.615 604.492 361.394 622.259C336.173 640.027 306.087 649.586 275.236 649.634C244.385 649.683 214.269 640.218 188.992 622.53C163.715 604.842 144.507 579.791 133.983 550.79C123.46 521.789 122.134 490.249 130.187 460.467C138.168 430.947 154.978 404.578 178.357 384.886C187.009 378.017 192.559 367.406 192.559 355.5Z" fill="black"/>
</svg>
