<svg width="172" height="163" viewBox="0 0 172 163" fill="none" xmlns="http://www.w3.org/2000/svg">
  <path
    d="M2.37695 22.2951C1.2876 20.2166 0.671387 17.8512 0.671387 15.3419C0.671387 7.05762 7.38721 0.341888 15.6714 0.341888C21.666 0.341888 26.8394 3.85833 29.2412 8.94099L90.9258 132.338C100.075 130.962 108.825 127.481 116.465 122.121C126.562 115.037 134.23 105.013 138.426 93.4149C142.623 81.8167 143.143 69.2071 139.917 57.3026C136.72 45.5099 130.001 34.9766 120.661 27.1083C120.228 26.7648 119.814 26.3979 119.422 26.0096C116.677 23.2912 114.977 19.52 114.977 15.3516C114.977 7.06737 121.693 0.351631 129.977 0.351631C133.697 0.351631 137.101 1.70591 139.723 3.94836C153.869 15.7731 164.042 31.6582 168.866 49.4561C173.705 67.3112 172.925 86.2237 166.631 103.619C160.337 121.015 148.836 136.049 133.692 146.674C118.549 157.299 100.499 163 82 163C76.9507 163 72.4839 160.505 69.7656 156.681L69.5972 156.765L2.37695 22.2951Z"
    fill="black" />
</svg>