<svg width="528" height="1000" viewBox="0 0 528 1000" fill="none" xmlns="http://www.w3.org/2000/svg">
<path d="M54.264 372.884C51.5405 367.688 50 361.774 50 355.501C50 334.79 66.7897 318 87.5003 318C102.487 318 115.421 326.791 121.425 339.498L275.638 647.994C298.512 644.553 320.387 635.852 339.487 622.45C364.729 604.74 383.9 579.681 394.39 550.685C404.881 521.689 406.182 490.165 398.116 460.403C390.124 430.921 373.327 404.588 349.976 384.917C348.893 384.058 347.86 383.141 346.88 382.17C340.017 375.374 335.767 365.946 335.767 355.525C335.767 334.814 352.556 318.025 373.267 318.025C382.568 318.025 391.077 321.41 397.631 327.016C432.997 356.579 458.43 396.292 470.49 440.787C482.588 485.425 480.637 532.707 464.904 576.196C449.169 619.686 420.415 657.271 382.556 683.834C344.698 710.397 299.571 724.649 253.323 724.649C240.7 724.649 229.533 718.412 222.737 708.85L222.316 709.061L54.264 372.884Z" fill="black"/>
</svg>
