<svg width="550" height="1000" viewBox="0 0 550 1000" fill="none" xmlns="http://www.w3.org/2000/svg">
<path d="M136.427 369.899C128.889 351.701 125.01 332.197 125.01 312.5H125C125 291.79 108.21 275 87.5 275C66.7896 275 50 291.79 50 312.5C50 342.048 55.8203 371.306 67.1277 398.604C78.4338 425.902 95.0073 450.706 115.901 471.599C126.527 482.225 138.164 491.734 150.626 500C138.164 508.267 126.527 517.775 115.901 528.401C95.0073 549.294 78.4338 574.098 67.1277 601.396C55.8203 628.695 50 657.953 50 687.5C50 708.211 66.7896 725 87.5 725C108.21 725 125 708.211 125 687.5L125.01 687.5C125.01 667.803 128.889 648.299 136.427 630.101C143.965 611.904 155.012 595.369 168.94 581.441C182.869 567.513 199.403 556.465 217.601 548.927C235.798 541.389 255.303 537.51 275 537.51C294.697 537.51 314.202 541.389 332.399 548.927C350.597 556.465 367.131 567.513 381.06 581.441C394.988 595.369 406.035 611.904 413.573 630.101C421.111 648.299 424.99 667.803 424.99 687.5L425 687.5C425 708.211 441.79 725 462.5 725C483.21 725 500 708.211 500 687.5C500 657.953 494.18 628.695 482.872 601.396C471.566 574.098 454.993 549.294 434.099 528.401C423.473 517.775 411.836 508.267 399.374 500C411.836 491.734 423.473 482.225 434.099 471.599C454.993 450.706 471.566 425.902 482.872 398.604C494.18 371.306 500 342.048 500 312.5C500 291.79 483.21 275 462.5 275C441.79 275 425 291.79 425 312.5L424.99 312.5C424.99 332.197 421.111 351.701 413.573 369.899C406.035 388.097 394.988 404.632 381.06 418.559C367.131 432.487 350.597 443.536 332.399 451.073C314.202 458.611 294.697 462.491 275 462.491C255.303 462.491 235.798 458.611 217.601 451.073C199.403 443.536 182.869 432.487 168.94 418.559C155.012 404.632 143.965 388.097 136.427 369.899Z" fill="black"/>
</svg>
