<svg width="180" height="180" viewBox="0 0 180 180" fill="none" xmlns="http://www.w3.org/2000/svg">
  <path
    d="M34.5708 37.9596C31.5557 30.6805 30.0039 22.8788 30.0039 15H30C30 6.71573 23.2842 0 15 0C6.71582 0 0 6.71573 0 15C0 26.819 2.32812 38.5222 6.85107 49.4415C11.3735 60.3608 18.0029 70.2823 26.3604 78.6396C30.6108 82.8899 35.2656 86.6933 40.2505 90C35.2656 93.3067 30.6108 97.1101 26.3604 101.36C18.0029 109.718 11.3735 119.639 6.85107 130.559C2.32812 141.478 0 153.181 0 165C0 173.284 6.71582 180 15 180C23.2842 180 30 173.284 30 165L30.0039 165C30.0039 157.121 31.5557 149.32 34.5708 142.04C37.5859 134.761 42.0049 128.147 47.5762 122.576C53.1475 117.005 59.7612 112.586 67.0405 109.571C74.3193 106.556 82.1211 105.004 90 105.004C97.8789 105.004 105.681 106.556 112.959 109.571C120.239 112.586 126.853 117.005 132.424 122.576C137.995 128.147 142.414 134.761 145.429 142.04C148.444 149.32 149.996 157.121 149.996 165L150 165C150 173.284 156.716 180 165 180C173.284 180 180 173.284 180 165C180 153.181 177.672 141.478 173.149 130.559C168.626 119.639 161.997 109.718 153.64 101.36C149.389 97.1101 144.734 93.3067 139.75 90C144.734 86.6933 149.389 82.8899 153.64 78.6396C161.997 70.2823 168.626 60.3608 173.149 49.4415C177.672 38.5222 180 26.819 180 15C180 6.71573 173.284 0 165 0C156.716 0 150 6.71573 150 15L149.996 15C149.996 22.8788 148.444 30.6805 145.429 37.9596C142.414 45.2386 137.995 51.8526 132.424 57.4237C126.853 62.9949 120.239 67.4142 112.959 70.4293C105.681 73.4444 97.8789 74.9962 90 74.9962C82.1211 74.9962 74.3193 73.4444 67.0405 70.4293C59.7612 67.4142 53.1475 62.9949 47.5762 57.4237C42.0049 51.8526 37.5859 45.2386 34.5708 37.9596Z"
    fill="black" />
</svg>