<svg width="550" height="1000" viewBox="0 0 550 1000" fill="none" xmlns="http://www.w3.org/2000/svg">
<path d="M192.578 355.5C192.578 334.79 175.789 318 155.078 318C146.162 318 137.971 321.112 131.536 326.309L131.527 326.299C95.8826 355.805 70.2026 395.583 57.9846 440.214C45.7666 484.844 47.6074 532.156 63.2532 575.703C78.9001 619.25 107.593 656.913 145.421 683.562C173.025 703.008 204.514 715.899 237.5 721.474V912.121C237.5 932.832 254.289 949.621 275 949.621C295.71 949.621 312.5 932.832 312.5 912.121V721.474C345.249 715.938 376.531 703.191 404 683.968C441.913 657.438 470.723 619.865 486.506 576.367C502.29 532.87 504.278 485.564 492.201 440.895C480.152 396.335 454.692 356.562 419.275 326.966C412.726 321.375 404.227 318 394.941 318C374.231 318 357.441 334.79 357.441 355.5C357.441 367.406 362.991 378.017 371.643 384.886C395.022 404.578 411.832 430.947 419.813 460.467C427.866 490.249 426.54 521.789 416.017 550.79C405.493 579.791 386.285 604.842 361.008 622.53C335.731 640.218 305.615 649.683 274.764 649.634C243.913 649.586 213.828 640.027 188.606 622.259C163.385 604.492 144.255 579.381 133.823 550.347C123.391 521.313 122.164 489.769 130.31 460.013C138.313 430.78 154.977 404.67 178.094 385.108C186.908 378.246 192.578 367.535 192.578 355.5Z" fill="black"/>
</svg>
