<svg width="482" height="1000" viewBox="0 0 482 1000" fill="none" xmlns="http://www.w3.org/2000/svg">
<path d="M425.459 370.854C405.586 342.502 379.437 319.119 349.049 302.525C318.661 285.931 284.853 276.574 250.258 275.182C215.663 273.79 181.212 280.401 149.59 294.501C118.351 308.429 90.7031 329.293 68.7451 355.503C62.998 362.092 59.5166 370.71 59.5166 380.141C59.5166 400.851 76.3061 417.641 97.0166 417.641C108.518 417.641 118.812 412.463 125.691 404.31L125.803 404.175L125.928 404.025C127.764 401.819 129.661 399.67 131.614 397.58C145.289 382.946 161.78 371.175 180.128 362.995C201.211 353.595 224.178 349.187 247.244 350.115C270.309 351.043 292.848 357.281 313.108 368.344C322.078 373.243 330.493 379.028 338.237 385.596L65.8325 577.473C56.25 584.266 50 595.451 50 608.091C50 615.894 52.3792 623.144 56.4575 629.146C76.3306 657.498 102.479 680.881 132.867 697.475C163.256 714.069 197.063 723.427 231.659 724.818C266.255 726.21 300.704 719.599 332.328 705.499C363.575 691.567 391.23 670.694 413.192 644.474C418.927 637.887 422.4 629.279 422.4 619.86C422.4 599.149 405.611 582.36 384.9 582.36C373.398 582.36 363.104 587.537 356.225 595.69L356.113 595.825L355.987 595.976C341.3 613.619 322.759 627.656 301.788 637.006C280.706 646.406 257.738 650.813 234.674 649.885C211.609 648.958 189.07 642.719 168.81 631.656C159.833 626.754 151.411 620.963 143.662 614.389L415.05 423.228C425.212 416.52 431.916 404.998 431.916 391.91C431.916 384.106 429.537 376.856 425.459 370.854Z" fill="black"/>
</svg>
