<svg width="550" height="1000" viewBox="0 0 550 1000" fill="none" xmlns="http://www.w3.org/2000/svg">
<path fill-rule="evenodd" clip-rule="evenodd" d="M275 200C316.421 200 350 166.422 350 125C350 83.5788 316.421 50.0002 275 50.0002C233.579 50.0002 200 83.5788 200 125C200 166.422 233.579 200 275 200ZM275 162.474C254.304 162.474 237.526 145.697 237.526 125C237.526 104.304 254.304 87.5261 275 87.5261C295.696 87.5261 312.474 104.304 312.474 125C312.474 145.697 295.696 162.474 275 162.474Z" fill="black"/>
<path fill-rule="evenodd" clip-rule="evenodd" d="M462.5 725C441.79 725 425 708.211 425 687.5V667.708C385.193 703.336 332.627 725 275 725C150.736 725 50 624.264 50 500C50 375.736 150.736 275 275 275C399.264 275 500 375.736 500 500V687.5C500 708.211 483.21 725 462.5 725ZM275 650C357.843 650 425 582.843 425 500C425 417.157 357.843 350 275 350C192.157 350 125 417.157 125 500C125 582.843 192.157 650 275 650Z" fill="black"/>
</svg>
