<svg width="173" height="180" viewBox="0 0 173 180" fill="none" xmlns="http://www.w3.org/2000/svg">
  <path fill-rule="evenodd" clip-rule="evenodd"
    d="M103.79 178.937C122.67 176.01 140.129 167.15 153.64 153.64L153.633 153.633C156.528 150.898 158.335 147.023 158.335 142.726C158.335 134.442 151.619 127.726 143.335 127.726C139.038 127.726 135.161 129.53 132.426 132.426C124.822 140.029 115.342 145.424 105 148.094V123.763L167.447 69.0891C170.657 66.338 172.692 62.2535 172.692 57.6939C172.692 55.1777 172.072 52.8062 170.977 50.7236C162.727 33.7136 149.327 19.7286 132.674 10.7601C115.852 1.70088 96.5834 -1.76986 77.6576 0.850286C58.7323 3.47043 41.1312 12.0455 27.4032 25.3342C13.6757 38.6228 4.53261 55.9355 1.29872 74.7659C-1.93517 93.5964 0.907118 112.967 9.41444 130.075C17.9223 147.182 31.6532 161.139 48.62 169.923C65.5873 178.708 84.9096 181.865 103.79 178.937ZM138.447 54.6057L105 83.8897V31.9061C105.29 31.9811 105.581 32.0584 105.87 32.1378C110.215 33.3295 114.436 35.0134 118.449 37.1742C126.373 41.4418 133.192 47.4132 138.447 54.6057ZM48.2694 46.8901C55.7601 39.6389 64.9809 34.493 74.9999 31.9061V148.094C70.662 146.974 66.4384 145.365 62.414 143.281C51.1029 137.425 41.9486 128.121 36.2772 116.716C30.6058 105.311 28.7108 92.3976 30.8666 79.8441C33.0228 67.2906 39.1176 55.7491 48.2694 46.8901Z"
    fill="black" />
</svg>