<svg width="532" height="1000" viewBox="0 0 532 1000" fill="none" xmlns="http://www.w3.org/2000/svg">
<path fill-rule="evenodd" clip-rule="evenodd" d="M309.475 722.343C356.675 715.024 400.323 692.874 434.098 659.099L434.081 659.082C441.319 652.246 445.837 642.558 445.837 631.816C445.837 611.105 429.047 594.316 408.337 594.316C397.595 594.316 387.901 598.826 381.064 606.065C362.055 625.074 338.355 638.559 312.499 645.235V584.409L468.616 447.723C476.642 440.845 481.729 430.634 481.729 419.235C481.729 412.945 480.18 407.016 477.443 401.809C456.818 359.284 423.317 324.322 381.684 301.901C339.63 279.253 291.458 270.576 244.144 277.126C196.831 283.677 152.828 305.114 118.508 338.336C84.1891 371.557 61.3315 414.839 53.2468 461.915C45.1621 508.991 52.2678 557.419 73.5361 600.188C94.8056 642.956 129.133 677.847 171.55 699.808C213.968 721.769 262.274 729.662 309.475 722.343ZM396.117 411.514L312.499 484.725V354.766C313.226 354.953 313.952 355.146 314.676 355.345C325.538 358.324 336.091 362.534 346.121 367.936C365.932 378.605 382.98 393.533 396.117 411.514ZM170.673 392.226C189.4 374.098 212.452 361.233 237.499 354.766V645.235C226.655 642.434 216.096 638.413 206.035 633.203C177.757 618.563 154.871 595.303 140.693 566.791C126.515 538.279 121.777 505.994 127.166 474.611C132.557 443.227 147.794 414.373 170.673 392.226Z" fill="black"/>
</svg>
