<svg width="550" height="1000" viewBox="0 0 550 1000" fill="none" xmlns="http://www.w3.org/2000/svg">
<path d="M57.7992 558.726C69.847 603.286 95.3084 643.06 130.725 672.655C137.275 678.246 145.773 681.621 155.059 681.621C175.769 681.621 192.559 664.832 192.559 644.121C192.559 632.215 187.01 621.605 178.358 614.735C154.979 595.043 138.168 568.674 130.187 539.154C122.135 509.372 123.46 477.832 133.983 448.831C144.506 419.83 163.715 394.779 188.992 377.091C214.269 359.403 244.385 349.939 275.236 349.987C306.086 350.035 336.172 359.595 361.394 377.362C386.615 395.129 405.745 420.241 416.177 449.274C426.609 478.308 427.836 509.852 419.69 539.609C411.688 568.841 395.022 594.952 371.905 614.514C363.091 621.375 357.422 632.086 357.422 644.121C357.422 664.832 374.211 681.621 394.922 681.621C403.838 681.621 412.028 678.509 418.464 673.312L418.473 673.322C454.117 643.816 479.798 604.038 492.015 559.408C504.233 514.777 502.393 467.465 486.747 423.918C471.1 380.372 442.408 342.708 404.579 316.059C366.75 289.411 321.626 275.073 275.353 275C229.081 274.928 183.911 289.123 145.999 315.653C108.087 342.183 79.2769 379.756 63.4938 423.254C47.7101 466.751 45.7216 514.057 57.7992 558.726Z" fill="black"/>
<path d="M218.695 110C242.942 110.027 266.525 117.977 285.89 132.654C298.736 142.274 314.324 147.482 330.346 147.5C346.456 147.518 362.138 142.288 375.045 132.595C378.183 130.183 382.103 128.75 386.357 128.75C396.653 128.75 405 137.145 405 147.5C405 153.734 401.974 159.258 397.32 162.667C377.967 177.191 354.458 185.027 330.305 185C306.058 184.973 282.475 177.023 263.11 162.346C250.264 152.726 234.676 147.518 218.654 147.5C202.544 147.482 186.862 152.712 173.955 162.405C170.817 164.817 166.897 166.25 162.643 166.25C152.347 166.25 144 157.855 144 147.5C144 141.266 147.025 135.742 151.679 132.333C171.032 117.81 194.542 109.973 218.695 110Z" fill="black"/>
</svg>
