<svg width="180" height="180" viewBox="0 0 180 180" fill="none" xmlns="http://www.w3.org/2000/svg">
  <path fill-rule="evenodd" clip-rule="evenodd"
    d="M180 90C180 139.706 139.706 180 90 180C70.5625 180 52.5645 173.838 37.8521 163.361L26 175.213L25.9927 175.206C23.2534 178.155 19.3423 180 15 180C6.71582 180 0 173.284 0 165C0 160.658 1.84521 156.746 4.79395 154.007L4.78662 154L16.6387 142.148C6.16162 127.436 0 109.437 0 90C0 40.2944 40.2944 0 90 0C109.438 0 127.436 6.16192 142.148 16.6389L154 4.7868L154.007 4.79407C156.747 1.84511 160.658 0 165 0C173.284 0 180 6.71573 180 15C180 19.3422 178.155 23.2535 175.206 25.9926L175.213 26L163.361 37.852C173.838 52.5643 180 70.5625 180 90ZM150 90C150 123.137 123.137 150 90 150C56.8628 150 30 123.137 30 90C30 56.8629 56.8628 30 90 30C123.137 30 150 56.8629 150 90Z"
    fill="black" />
</svg>