<svg width="550" height="1000" viewBox="0 0 550 1000" fill="none" xmlns="http://www.w3.org/2000/svg">
<path fill-rule="evenodd" clip-rule="evenodd" d="M500 500C500 624.264 399.264 725 275 725C226.406 725 181.411 709.595 144.63 683.403L115 713.033L114.982 713.015C108.134 720.387 98.3557 725 87.5 725C66.7896 725 50 708.211 50 687.5C50 676.645 54.613 666.866 61.9849 660.019L61.9666 660L91.5967 630.37C65.4041 593.589 50 548.594 50 500C50 375.736 150.736 275 275 275C323.594 275 368.589 290.405 405.37 316.597L435 286.967L435.018 286.985C441.866 279.613 451.644 275 462.5 275C483.21 275 500 291.79 500 312.5C500 323.356 495.387 333.134 488.015 339.982L488.033 340L458.403 369.63C484.596 406.411 500 451.407 500 500ZM425 500C425 582.843 357.843 650 275 650C192.157 650 125 582.843 125 500C125 417.157 192.157 350 275 350C357.843 350 425 417.157 425 500Z" fill="black"/>
</svg>
