<svg width="177" height="270" viewBox="0 0 177 270" fill="none" xmlns="http://www.w3.org/2000/svg">
  <path
    d="M0.00137329 89.5001C0.119324 68.2486 7.75455 47.7179 21.5635 31.5498C35.4807 15.2548 54.7555 4.4604 75.9209 1.10813C97.0864 -2.24415 118.753 2.0657 137.025 13.2625C155.214 24.4086 168.849 41.6514 175.505 61.9123C176.069 63.4908 176.377 65.1914 176.377 66.9639C176.377 75.2482 169.661 81.9639 161.377 81.9639C154.579 81.9639 148.837 77.4421 146.996 71.2422C142.555 57.748 133.469 46.2644 121.352 38.8391C109.17 31.3742 94.7245 28.5009 80.6135 30.7358C66.5024 32.9708 53.652 40.1674 44.3734 51.0312C35.203 61.7683 30.1165 75.391 29.9991 89.5001L30 180.5C30.1175 194.609 35.2031 208.232 44.3734 218.969C53.652 229.833 66.5024 237.029 80.6135 239.264C94.7245 241.499 109.17 238.626 121.352 231.161C133.469 223.736 142.555 212.252 146.996 198.758C148.837 192.558 154.579 188.036 161.377 188.036C169.661 188.036 176.377 194.752 176.377 203.036C176.377 204.808 176.069 206.509 175.505 208.088C168.849 228.349 155.214 245.591 137.025 256.737C118.753 267.934 97.0864 272.244 75.9209 268.892C54.7555 265.54 35.4807 254.745 21.5635 238.45C7.75458 222.282 0.119415 201.751 0.00140381 180.5H0V89.5001H0.00137329Z"
    fill="black" />
</svg>