<svg width="180" height="270" viewBox="0 0 180 270" fill="none" xmlns="http://www.w3.org/2000/svg">
  <path fill-rule="evenodd" clip-rule="evenodd"
    d="M15 0C6.71576 0 0 6.71574 0 15V255C0 263.284 6.71576 270 15 270H45.5C63.0584 269.935 80.4373 266.444 96.6622 259.724C113.041 252.939 127.923 242.995 140.459 230.459C152.995 217.924 162.939 203.041 169.724 186.662C176.508 170.283 180 152.728 180 135C180 117.272 176.508 99.7167 169.724 83.3378C162.939 66.9588 152.995 52.0765 140.459 39.5406C127.924 27.0047 113.041 17.0607 96.6623 10.2763C80.4373 3.55567 63.0585 0.0659485 45.5 0.000923157L45 0H15ZM85.18 37.9968C72.4414 32.7203 58.7882 30.0045 45 30.0045V30H30V240H45V239.995C58.7882 239.995 72.4414 237.28 85.18 232.003C97.9186 226.727 109.493 218.993 119.243 209.243C128.993 199.493 136.727 187.919 142.003 175.18C147.28 162.441 149.995 148.788 149.995 135C149.995 121.212 147.28 107.559 142.003 94.82C136.727 82.0813 128.993 70.5067 119.243 60.757C109.493 51.0073 97.9187 43.2734 85.18 37.9968Z"
    fill="black" />
</svg>