<svg width="163" height="270" viewBox="0 0 163 270" fill="none" xmlns="http://www.w3.org/2000/svg">
  <path
    d="M16.3589 38.2611C5.71301 53.4137 0.000488281 71.4815 0.000488281 90L0.000244141 179.8L0 180V255C0 263.284 6.7157 270 15 270C23.2843 270 30 263.284 30 255V179.102C30.1799 167.07 33.9741 155.361 40.9001 145.504C47.9982 135.401 58.0399 127.733 69.6558 123.547C81.0508 119.441 93.4164 118.881 105.127 121.931C106.5 122.346 107.957 122.568 109.466 122.568C117.75 122.568 124.466 115.853 124.466 107.568C124.466 100.48 119.55 94.5406 112.941 92.973C95.3024 88.3232 76.6598 89.1416 59.4871 95.3303C48.5604 99.268 38.5625 105.26 30 112.918V90.0001L29.9938 90C29.9938 77.6529 33.8025 65.6064 40.9006 55.5035C47.9987 45.4007 58.0404 37.7333 69.6562 33.5472C81.2721 29.3611 93.8964 28.8602 105.807 32.1126C117.52 35.3109 127.982 41.9853 135.816 51.2479C138.56 54.782 142.85 57.0562 147.671 57.0562C155.955 57.0562 162.671 50.3405 162.671 42.0562C162.671 38.4671 161.41 35.1723 159.308 32.5906L159.311 32.5883C147.498 18.3269 131.573 8.0568 113.708 3.17866C95.8438 -1.69946 76.9093 -0.948091 59.4875 5.33032C42.0657 11.6087 27.0048 23.1085 16.3589 38.2611Z"
    fill="black" />
</svg>