<svg width="180" height="270" viewBox="0 0 180 270" fill="none" xmlns="http://www.w3.org/2000/svg">
  <path
    d="M0.00134277 89.5001C0.119263 68.2486 7.75452 47.7179 21.5635 31.5498C35.4807 15.2548 54.7555 4.4604 75.9209 1.10813C97.0863 -2.24415 118.753 2.0657 137.025 13.2625C155.214 24.4086 168.849 41.6513 175.505 61.9123C176.069 63.4908 176.377 65.1914 176.377 66.9639C176.377 75.2482 169.661 81.9639 161.377 81.9639C154.579 81.9639 148.837 77.4421 146.996 71.2422C142.555 57.748 133.469 46.2644 121.351 38.8391C109.17 31.3742 94.7245 28.5008 80.6135 30.7358C66.5024 32.9708 53.652 40.1674 44.3734 51.0312C35.203 61.7683 30.1165 75.3911 29.999 89.5001L30 180.5C30.1176 194.609 35.203 208.232 44.3734 218.969C45.3971 220.167 46.4641 221.321 47.5717 222.429L47.5735 222.427C58.8258 233.679 74.087 240 90.0001 240C105.913 240 121.174 233.679 132.427 222.427C143.679 211.174 150 195.913 150 180C150 166.087 145.168 152.673 136.433 142H98C89.7157 142 83 135.284 83 127C83 118.716 89.7157 112 98 112C98.0144 112 98.0288 112 98.0432 112H143C143.074 112 143.148 112.001 143.222 112.002C143.271 112.002 143.319 112.003 143.368 112.004C147.373 112.083 150.994 113.732 153.64 116.36C170.518 133.239 180 156.13 180 180C180 189.533 178.487 198.911 175.595 207.811C171.175 221.414 163.613 233.666 153.64 243.64C153.461 243.818 153.282 243.996 153.102 244.172C152.98 244.293 152.857 244.413 152.733 244.533C147.996 249.139 142.735 253.238 137.025 256.737C122.796 265.457 106.507 270 90.0002 270L89.8419 270C85.2047 269.992 80.5508 269.625 75.9209 268.892C57.0908 265.909 39.7565 257.036 26.3606 243.64C24.6992 241.979 23.099 240.248 21.5635 238.45C7.75452 222.282 0.119385 201.751 0.00134277 180.5H0V89.5001H0.00134277Z"
    fill="black" />
</svg>