<svg width="138" height="270" viewBox="0 0 138 270" fill="none" xmlns="http://www.w3.org/2000/svg">
  <path
    d="M84 31.9007C86.7072 32.5997 89.368 33.4885 91.9626 34.5632C99.2427 37.5787 105.858 41.9986 111.429 47.5705L111.43 47.5696C114.163 50.4398 118.021 52.2287 122.296 52.2287C130.581 52.2287 137.296 45.513 137.296 37.2287C137.296 32.953 135.507 29.0952 132.637 26.3628L132.64 26.3604C124.282 18.0031 114.361 11.3738 103.441 6.85083C92.5222 2.3279 80.819 0 69 0C57.181 0 45.4778 2.32793 34.5585 6.85086C23.6392 11.3738 13.7177 18.0032 5.36035 26.3604L5.36218 26.3623C2.4917 29.0947 0.702515 32.9527 0.702515 37.2287C0.702515 45.513 7.41821 52.2287 15.7025 52.2287C19.9785 52.2287 23.8365 50.4395 26.569 47.569L26.5704 47.5705C32.1423 41.9986 38.7572 37.5787 46.0372 34.5632C48.6318 33.4885 51.2928 32.5997 54 31.9007V238.099C51.2928 237.4 48.6318 236.512 46.0372 235.437C38.7572 232.421 32.1423 228.001 26.5704 222.429L26.569 222.431C23.8365 219.56 19.9785 217.771 15.7025 217.771C7.41821 217.771 0.702515 224.487 0.702515 232.771C0.702515 237.047 2.4917 240.905 5.36218 243.638L5.36035 243.64C13.7177 251.997 23.6392 258.626 34.5585 263.149C45.4778 267.672 57.181 270 69 270C80.819 270 92.5222 267.672 103.441 263.149C114.361 258.626 124.282 251.997 132.64 243.64L132.637 243.637C135.507 240.905 137.296 237.047 137.296 232.771C137.296 224.487 130.581 217.771 122.296 217.771C118.021 217.771 114.163 219.56 111.43 222.43L111.429 222.43C105.858 228.001 99.2427 232.421 91.9626 235.437C89.368 236.512 86.7072 237.4 84 238.099V31.9007Z"
    fill="black" />
</svg>