<svg width="180" height="270" viewBox="0 0 180 270" fill="none" xmlns="http://www.w3.org/2000/svg">
  <path
    d="M165 -0.00012207C156.716 -0.00012207 150 6.71561 150 14.9999L150.006 180C150.006 187.88 148.453 195.683 145.438 202.963C142.422 210.243 138.002 216.858 132.43 222.43C126.858 228.002 120.243 232.422 112.963 235.438C105.683 238.453 97.8801 240.005 90 240.005C82.1199 240.005 74.3171 238.453 67.0369 235.438C59.7567 232.422 53.1417 228.002 47.5697 222.43C41.9977 216.858 37.5776 210.243 34.5621 202.963C31.5931 195.796 30.0428 188.121 29.9956 180.366C29.9985 180.244 30 180.122 30 180C30 171.716 23.2843 165 15 165C6.7157 165 0 171.716 0 180C0 191.819 2.32788 203.522 6.85083 214.441C11.3738 225.361 18.0032 235.282 26.3604 243.64C34.7177 251.997 44.6392 258.626 55.5585 263.149C66.4778 267.672 78.1809 270 90 270C101.819 270 113.522 267.672 124.441 263.149C135.361 258.626 145.282 251.997 153.64 243.64C161.997 235.282 168.626 225.361 173.149 214.441C177.672 203.522 180 191.819 180 180L180 14.9999C180 6.71561 173.284 -0.00012207 165 -0.00012207Z"
    fill="black" />
</svg>