<svg width="180" height="270" viewBox="0 0 180 270" fill="none" xmlns="http://www.w3.org/2000/svg">
  <path
    d="M15 0C6.71582 0 0 6.71574 0 15V255C0 263.284 6.71582 270 15 270C23.2842 270 30 263.284 30 255V224.179C30.1182 215.549 32.0964 207.043 35.804 199.242C39.6292 191.194 45.1985 184.099 52.1079 178.472C59.0173 172.845 67.0933 168.827 75.7493 166.711C84.405 164.595 93.4236 164.433 102.15 166.237C110.876 168.042 119.091 171.767 126.198 177.142C133.305 182.517 139.125 189.408 143.237 197.314C147.348 205.22 149.647 213.942 149.967 222.847C150.284 231.687 148.644 240.487 145.163 248.617C144.251 250.554 143.741 252.717 143.741 255C143.741 263.284 150.456 270 158.741 270C165.054 270 170.457 266.099 172.67 260.577C177.936 248.339 180.42 235.085 179.942 221.77C179.462 208.414 176.014 195.332 169.848 183.475C163.681 171.617 154.951 161.282 144.292 153.22C133.633 145.157 121.311 139.57 108.223 136.864C101.224 135.417 94.0996 134.813 87 135.05L176.621 24.461C181.836 18.0249 180.847 8.57904 174.411 3.36322C167.975 -1.85261 158.529 -0.863327 153.313 5.57285L30.2129 157.475C30.1406 157.564 30.0698 157.653 30 157.744V15C30 6.71573 23.2842 0 15 0Z"
    fill="black" />
</svg>