<svg width="180" height="270" viewBox="0 0 180 270" fill="none" xmlns="http://www.w3.org/2000/svg">
  <path fill-rule="evenodd" clip-rule="evenodd"
    d="M142.143 253.356C136.642 257.266 130.706 260.554 124.441 263.149C113.522 267.672 101.819 270 90 270C78.1812 270 66.4778 267.672 55.5586 263.149C44.6392 258.626 34.7178 251.997 26.3604 243.64C18.0032 235.282 11.3738 225.361 6.85083 214.441C6.24316 212.975 5.67529 211.494 5.14722 210C1.7998 200.533 0.0559082 190.562 0 180.5L-0.000488281 180.264L0 180V90C0 89.8333 -0.000976562 89.6666 0 89.5C0.0559082 79.4384 1.7998 69.4675 5.14722 60C5.67529 58.5064 6.24316 57.0254 6.85083 55.5585C11.3738 44.6392 18.0032 34.7177 26.3604 26.3604C34.7178 18.0031 44.6392 11.3738 55.5586 6.85085C66.4778 2.32791 78.1812 0 90 0C101.819 0 113.522 2.32793 124.441 6.85085C135.361 11.3738 145.282 18.0031 153.64 26.3604C161.997 34.7177 168.626 44.6392 173.149 55.5585C173.757 57.0254 174.325 58.5064 174.853 60C178.2 69.4675 179.944 79.4384 180 89.5C180.001 89.5968 180 89.6936 180 89.7904C180 89.8047 180 89.819 180 89.8333L180 90V180L180 180.167V180.317L180 180.5C179.944 190.562 178.2 200.533 174.853 210C174.325 211.494 173.757 212.975 173.149 214.441C170.554 220.706 167.266 226.642 163.356 232.143L175.602 244.388C181.459 250.246 181.459 259.744 175.602 265.602C169.744 271.46 160.246 271.46 154.388 265.602L142.143 253.356ZM30 89.5C30.0642 81.7903 31.6123 74.1637 34.5642 67.0377C37.5796 59.7578 41.9993 53.143 47.5713 47.5712C53.1431 41.9994 59.7578 37.5795 67.0376 34.5641C74.3176 31.5486 82.1201 29.9966 90 29.9966C97.8796 29.9966 105.682 31.5486 112.962 34.5641C120.242 37.5796 126.857 41.9994 132.429 47.5712C138.001 53.143 142.42 59.7578 145.436 67.0377C148.388 74.1636 149.936 81.7903 150 89.5V180.5C149.936 188.21 148.388 195.836 145.436 202.962C144.361 205.557 143.108 208.067 141.688 210.475L133.175 201.962C127.317 196.104 117.82 196.104 111.962 201.962C106.104 207.82 106.104 217.317 111.962 223.175L120.475 231.688C118.067 233.108 115.557 234.361 112.962 235.436C105.682 238.451 97.8796 240.003 90 240.003C82.1201 240.003 74.3176 238.451 67.0376 235.436C59.7578 232.42 53.1431 228.001 47.5713 222.429C41.9993 216.857 37.5796 210.242 34.5642 202.962C31.6123 195.836 30.0642 188.21 30 180.5V89.5Z"
    fill="black" />
</svg>