<svg width="180" height="270" viewBox="0 0 180 270" fill="none" xmlns="http://www.w3.org/2000/svg">
  <path fill-rule="evenodd" clip-rule="evenodd"
    d="M90 180C66.9495 180 45.9226 171.334 30 157.083V255C30 263.284 23.2842 270 15 270C6.71582 270 0 263.284 0 255V90C0 40.2944 40.2944 0 90 0C139.706 0 180 40.2944 180 90C180 126.973 157.705 158.739 125.826 172.587L177.304 246.421C182.042 253.217 180.375 262.567 173.579 267.305C166.783 272.043 157.433 270.375 152.695 263.579L94.3513 179.897C92.9094 179.965 91.4587 180 90 180ZM90 30C123.137 30 150 56.8629 150 90C150 123.137 123.137 150 90 150C56.8628 150 30 123.137 30 90C30 56.8629 56.8628 30 90 30Z"
    fill="black" />
</svg>