<svg width="160" height="270" viewBox="0 0 160 270" fill="none" xmlns="http://www.w3.org/2000/svg">
  <path
    d="M138.203 31.1101C145.895 42.6215 150 56.1553 150 70C150 78.2842 143.284 85 135 85C126.716 85 120 78.2842 120.001 70L120.001 69.8199C119.966 61.9711 117.622 54.3046 113.26 47.7763C108.865 41.1981 102.617 36.071 95.3079 33.0434C87.9985 30.0158 79.9556 29.2236 72.196 30.7671C64.4365 32.3106 57.3091 36.1203 51.7146 41.7146C46.1204 47.3089 42.3105 54.4365 40.7671 62.1961C39.2236 69.9556 40.0159 77.9986 43.0435 85.3079C46.071 92.6172 51.1982 98.8646 57.7764 103.26C64.3545 107.655 72.0884 110.001 80 110.001C95.8225 110 111.29 114.692 124.446 123.482C137.602 132.273 147.855 144.767 153.91 159.385C159.965 174.003 161.55 190.089 158.463 205.607C155.376 221.126 147.757 235.38 136.568 246.569C125.38 257.757 111.126 265.376 95.6072 268.463C80.0889 271.55 64.0034 269.965 49.3853 263.91C34.7673 257.855 22.2729 247.602 13.4824 234.446C4.69189 221.29 0 205.822 0 190C0 181.716 6.71582 175 15 175C23.2842 175 30 181.716 30 190C30 199.889 32.9324 209.556 38.4265 217.779C43.9207 226.001 51.7295 232.41 60.8657 236.194C70.0022 239.978 80.0554 240.969 89.7544 239.039C99.4536 237.11 108.363 232.348 115.355 225.355C122.348 218.363 127.11 209.454 129.039 199.754C130.969 190.055 129.979 180.002 126.194 170.866C122.41 161.729 116.001 153.921 107.779 148.426C99.5562 142.932 89.8892 140 80 140C66.1553 140 52.6216 135.895 41.1101 128.203C29.5986 120.511 20.6265 109.579 15.3284 96.7878C10.0303 83.997 8.64404 69.9223 11.345 56.3436C14.0459 42.765 20.7129 30.2922 30.5024 20.5025C40.2922 10.7128 52.7649 4.04597 66.3438 1.345C79.9224 -1.35596 93.9971 0.0302663 106.788 5.3284C119.579 10.6265 130.511 19.5986 138.203 31.1101Z"
    fill="black" />
</svg>