<svg width="180" height="270" viewBox="0 0 180 270" fill="none" xmlns="http://www.w3.org/2000/svg">
  <path
    d="M6.85107 55.5585C2.32812 66.4778 0 78.181 0 90C0 98.2843 6.71582 105 15 105C23.2842 105 30 98.2843 29.9971 90L29.9976 89.7327C30.0322 81.9439 31.583 74.2354 34.5645 67.0378C37.5801 59.7579 41.9995 53.1432 47.5713 47.5715C53.1431 41.9997 59.7578 37.5799 67.0381 34.5645C69.6323 33.4898 72.293 32.6011 75 31.9022V255C75 263.284 81.7158 270 90 270C98.2842 270 105 263.284 105 255V31.9021C107.707 32.601 110.368 33.4898 112.962 34.5645C120.242 37.5799 126.857 41.9997 132.429 47.5715C138 53.1433 142.42 59.758 145.436 67.0379C148.417 74.2354 149.968 81.9439 150.002 89.7327L150.003 90C150 98.2843 156.716 105 165 105C173.284 105 180 98.2843 180 90C180 78.181 177.672 66.4778 173.149 55.5585C168.626 44.6392 161.997 34.7177 153.64 26.3604C145.282 18.0031 135.361 11.3738 124.441 6.85085C113.522 2.32792 101.819 0 90 0C78.1812 0 66.478 2.32792 55.5586 6.85084C44.6392 11.3738 34.7178 18.0031 26.3604 26.3604C18.0029 34.7177 11.3735 44.6392 6.85107 55.5585Z"
    fill="black" />
</svg>