<svg width="180" height="270" viewBox="0 0 180 270" fill="none" xmlns="http://www.w3.org/2000/svg">
  <path
    d="M15 -0.00012207C23.2842 -0.00012207 30 6.71561 30 14.9999V180C29.9971 187.88 31.5488 195.682 34.5645 202.962C37.5801 210.242 41.9995 216.857 47.5713 222.428C53.1431 228 59.7578 232.42 67.0381 235.435C69.6323 236.51 72.293 237.399 75 238.098V59.9999C75 51.7156 81.7158 44.9999 90 44.9999C98.2842 44.9999 105 51.7156 105 59.9999V238.098C107.707 237.399 110.368 236.51 112.962 235.435C120.242 232.42 126.857 228 132.429 222.428C138 216.857 142.42 210.242 145.436 202.962C148.451 195.682 150.003 187.88 150.003 180L150 14.9999C150 6.71561 156.716 -0.00012207 165 -0.00012207C173.284 -0.00012207 180 6.71561 180 14.9999V180C180 191.819 177.672 203.522 173.149 214.441C168.626 225.361 161.997 235.282 153.64 243.639C145.282 251.997 135.361 258.626 124.441 263.149C113.522 267.672 101.819 270 90 270C78.1812 270 66.478 267.672 55.5586 263.149C44.6392 258.626 34.7178 251.997 26.3604 243.639C18.0029 235.282 11.3735 225.361 6.85107 214.441C2.32812 203.522 0 191.819 0 180V14.9999C0 6.71561 6.71582 -0.00012207 15 -0.00012207Z"
    fill="black" />
</svg>