<svg width="180" height="270" viewBox="0 0 180 270" fill="none" xmlns="http://www.w3.org/2000/svg">
  <path
    d="M15 0C6.71582 0 0 6.71573 0 15V60C0 83.8695 9.48193 106.761 26.3604 123.64C30.6323 127.911 35.2896 131.71 40.25 135C35.2896 138.29 30.6323 142.089 26.3604 146.36C9.48193 163.239 0 186.13 0 210V255C0 263.284 6.71582 270 15 270C23.2842 270 30 263.284 30 255V210C29.9971 194.086 36.3188 178.824 47.5713 167.571C58.7144 156.428 73.7891 150.118 89.5347 149.999L90 150L90.4653 149.999C106.211 150.118 121.286 156.428 132.429 167.571C143.681 178.824 150.003 194.086 150.003 210L150 255C150 263.284 156.716 270 165 270C173.284 270 180 263.284 180 255V210C180 186.131 170.518 163.239 153.64 146.36C149.368 142.089 144.71 138.29 139.75 135C144.71 131.71 149.368 127.911 153.64 123.64C170.518 106.761 180 83.8695 180 60V15C180 6.71573 173.284 0 165 0C156.716 0 150 6.71573 150 15L150.003 60C150.003 75.9138 143.681 91.1758 132.429 102.429C121.286 113.572 106.211 119.879 90.4653 120.001L90 120.003L89.5347 120.001C73.7891 119.879 58.7144 113.572 47.5713 102.429C36.3188 91.1758 29.9971 75.9138 30 60V15C30 6.71573 23.2842 0 15 0Z"
    fill="black" />
</svg>