<svg width="180" height="350" viewBox="0 0 180 350" fill="none" xmlns="http://www.w3.org/2000/svg">
  <path fill-rule="evenodd" clip-rule="evenodd"
    d="M90 60C106.569 60 120 46.5685 120 30C120 13.4315 106.569 0 90 0C73.4315 0 60 13.4315 60 30C60 46.5685 73.4315 60 90 60ZM90 44.9896C81.7215 44.9896 75.0104 38.2785 75.0104 30C75.0104 21.7215 81.7215 15.0104 90 15.0104C98.2785 15.0104 104.99 21.7215 104.99 30C104.99 38.2785 98.2785 44.9896 90 44.9896Z"
    fill="black" />
  <path fill-rule="evenodd" clip-rule="evenodd"
    d="M90 80C139.588 80 179.81 120.105 179.999 169.648L180 170V334.996C180 343.28 173.284 349.996 165 349.996C156.716 349.996 150 343.28 150 334.996V237.083C134.077 251.334 113.051 260 90 260C66.9494 260 45.9227 251.334 30 237.083V334.996C30 343.28 23.2843 349.996 15 349.996C6.71573 349.996 0 343.28 0 334.996V169.648C0.189464 120.105 40.4116 80 90 80ZM90 230C123.137 230 150 203.137 150 170C150 136.863 123.137 110 90 110C56.8629 110 30 136.863 30 170C30 203.137 56.8629 230 90 230Z"
    fill="black" />
</svg>