<svg width="180" height="270" viewBox="0 0 180 270" fill="none" xmlns="http://www.w3.org/2000/svg">
  <path fill-rule="evenodd" clip-rule="evenodd"
    d="M180 89.5003C179.944 79.4387 178.2 69.4678 174.853 60.0003C174.325 58.5068 173.757 57.0257 173.149 55.5588C171.071 50.5419 168.548 45.7356 165.618 41.1949L177.8 21.7815C181.971 15.1341 179.964 6.36389 173.316 2.19267C166.669 -1.97855 157.898 0.028801 153.727 6.67621L145.768 19.3608C139.282 14.2401 132.107 10.0265 124.441 6.85121C113.522 2.32829 101.819 0.000366211 89.9999 0.000366211C78.1811 0.000366211 66.478 2.32828 55.5585 6.85121C44.6391 11.3741 34.7177 18.0035 26.3603 26.3608C18.0029 34.718 11.3735 44.6395 6.85102 55.5588C6.24311 57.0257 5.67524 58.5068 5.14692 60.0003C1.80024 69.4678 0.0556098 79.4387 -5.42535e-05 89.5003C-0.00103082 89.667 -5.42535e-05 89.8336 -5.42535e-05 90.0003V180C-5.42535e-05 180.167 -0.00103082 180.334 -5.42535e-05 180.5C0.0556098 190.562 1.80024 200.533 5.14692 210C5.67524 211.494 6.24311 212.975 6.85102 214.442C8.92719 219.455 11.4477 224.258 14.3754 228.795L2.18598 248.22C-1.98492 254.868 0.0224066 263.638 6.66987 267.809C13.3173 271.981 22.0873 269.973 26.2587 263.326L34.2231 250.633C40.7119 255.757 47.8891 259.973 55.5585 263.15C66.478 267.673 78.1811 270.001 89.9999 270.001C101.819 270.001 113.522 267.673 124.441 263.15C135.361 258.627 145.282 251.998 153.64 243.64C161.997 235.283 168.626 225.361 173.149 214.442C173.757 212.975 174.325 211.494 174.853 210C178.2 200.533 179.944 190.562 180 180.5C180.001 180.334 180 180.167 180 180V89.5003ZM34.5639 67.038C31.6127 74.164 30.0644 81.7907 29.9999 89.5003V180.5C30.0644 188.21 31.6127 195.837 34.5639 202.963C37.5795 210.243 41.9995 216.857 47.5712 222.429C53.143 228.001 59.7578 232.421 67.0375 235.436C74.3178 238.452 82.1201 240.004 89.9999 240.004C97.8798 240.004 105.682 238.452 112.962 235.436C120.242 232.421 126.857 228.001 132.429 222.429C138 216.857 142.42 210.243 145.436 202.963C148.387 195.837 149.935 188.21 150 180.5V89.5003C149.935 81.7907 148.387 74.1639 145.436 67.038C142.42 59.7581 138 53.1433 132.429 47.5715C126.857 41.9997 120.242 37.5799 112.962 34.5645C105.682 31.549 97.8798 29.997 89.9999 29.997C82.1201 29.997 74.3178 31.549 67.0375 34.5645C59.7578 37.5799 53.143 41.9997 47.5712 47.5715C41.9995 53.1433 37.5795 59.7581 34.5639 67.038Z"
    fill="black" />
</svg>