<svg width="441" height="1000" viewBox="0 0 441 1000" fill="none" xmlns="http://www.w3.org/2000/svg">
<path d="M134.638 67.1271C107.34 78.4344 82.5363 95.0078 61.6432 115.901L61.6485 115.906C54.4726 122.737 50 132.382 50 143.072C50 163.782 66.7893 180.572 87.5 180.572C98.1895 180.572 107.834 176.099 114.665 168.923L114.671 168.929C128.6 154.999 145.137 143.95 163.337 136.411C169.823 133.724 176.476 131.502 183.244 129.755V645.248C176.476 643.501 169.823 641.279 163.337 638.592C145.137 631.053 128.6 620.003 114.67 606.074L114.666 606.078C107.835 598.901 98.1899 594.428 87.5 594.428C66.7893 594.428 50 611.218 50 631.928C50 642.618 54.4729 652.263 61.6492 659.094L61.6445 659.099C82.5377 679.992 107.342 696.566 134.64 707.873C161.938 719.18 191.196 725 220.744 725C250.291 725 279.549 719.18 306.847 707.873C334.146 696.566 358.949 679.992 379.843 659.099L379.837 659.093C387.012 652.262 391.484 642.617 391.484 631.928C391.484 611.218 374.695 594.428 353.984 594.428C343.295 594.428 333.651 598.901 326.82 606.076L326.817 606.074C312.888 620.004 296.35 631.053 278.15 638.592C271.664 641.279 265.012 643.501 258.244 645.248V87.5C258.244 66.7893 241.453 50 220.742 50C191.195 50 161.937 55.8198 134.638 67.1271Z" fill="black"/>
</svg>
