<svg width="137" height="270" viewBox="0 0 137 270" fill="none" xmlns="http://www.w3.org/2000/svg">
  <path
    d="M33.8554 6.85084C22.9361 11.3738 13.0145 18.0031 4.65726 26.3604L4.65942 26.3625C1.78905 29.0949 0 32.9529 0 37.2287C0 45.513 6.71573 52.2287 15 52.2287C19.2758 52.2287 23.1338 50.4397 25.8661 47.5693L25.8683 47.5715C31.4401 41.9997 38.0548 37.5799 45.3347 34.5645C47.9293 33.4897 50.5903 32.6009 53.2975 31.902V238.099C50.5903 237.4 47.9293 236.512 45.3348 235.437C38.0547 232.421 31.4399 228.001 25.8679 222.429L25.8664 222.431C23.134 219.56 19.2759 217.771 15 217.771C6.71573 217.771 0 224.487 0 232.771C0 237.047 1.78916 240.905 4.65968 243.638L4.65781 243.64C13.0151 251.997 22.9366 258.626 33.8559 263.149C44.7752 267.672 56.4785 270 68.2974 270C80.1164 270 91.8196 267.672 102.739 263.149C113.658 258.626 123.58 251.997 131.937 243.64L131.935 243.637C134.805 240.905 136.594 237.047 136.594 232.771C136.594 224.487 129.878 217.771 121.594 217.771C117.318 217.771 113.46 219.56 110.728 222.43L110.727 222.429C105.155 228.001 98.5402 232.421 91.2601 235.437C88.6656 236.512 86.0046 237.4 83.2975 238.099V15C83.2975 6.71573 76.5811 0 68.2969 0C56.4779 0 44.7747 2.32792 33.8554 6.85084Z"
    fill="black" />
</svg>