<svg width="525" height="1000" viewBox="0 0 525 1000" fill="none" xmlns="http://www.w3.org/2000/svg">
<path d="M55.4794 162.5C71.6064 134.567 93.5506 110.428 119.824 91.719C146.098 73.0101 176.087 60.1686 207.758 54.0652C239.43 47.9617 272.043 48.7389 303.388 56.3441C334.732 63.9493 364.076 78.2046 389.428 98.1439C414.781 118.083 435.55 143.24 450.328 171.91C465.107 200.579 473.548 232.091 475.081 264.308C476.614 296.526 471.202 328.697 459.212 358.639C447.222 388.582 428.934 415.597 405.589 437.853L183.043 650H437.812C458.523 650 475.312 666.789 475.312 687.5C475.312 708.211 458.523 725 437.812 725H89.4141V724.99H89.3628C68.6521 724.99 51.8628 708.201 51.8628 687.49C51.8628 676.624 56.4841 666.838 63.8686 659.989L353.848 383.556L353.855 383.563C369.414 368.727 381.602 350.72 389.593 330.762C397.587 310.8 401.195 289.351 400.173 267.872C399.151 246.392 393.523 225.383 383.671 206.27C373.818 187.156 359.971 170.384 343.069 157.09C326.166 143.797 306.603 134.292 285.705 129.222C264.808 124.152 243.064 123.634 221.949 127.703C200.834 131.772 180.84 140.333 163.323 152.807C145.807 165.28 131.177 181.373 120.425 199.996C114.06 211.636 101.702 219.531 87.5 219.531C66.7893 219.531 50 202.742 50 182.031C50 174.876 52.0023 168.188 55.4794 162.5Z" fill="black"/>
</svg>
