<svg width="534" height="1000" viewBox="0 0 534 1000" fill="none" xmlns="http://www.w3.org/2000/svg">
<path d="M109.284 124.248C109.452 124.022 109.622 123.799 109.795 123.577C139.809 84.3423 184.104 58.5263 233.062 51.7641C282.322 44.9601 332.268 58.0034 371.911 88.0246C411.555 118.046 437.649 162.586 444.453 211.846C450.625 256.53 440.465 301.778 416.117 339.389C425.059 348.162 433.288 357.701 440.701 367.925C465.39 401.976 480.041 442.264 482.99 484.22C485.94 526.176 477.071 568.118 457.39 605.288C437.708 642.458 408.003 673.367 371.643 694.509C335.284 715.65 293.726 726.177 251.687 724.895C209.647 723.613 168.808 710.574 133.805 687.256C98.924 664.021 71.229 631.506 53.8374 593.38C51.3802 588.39 50 582.774 50 576.836C50 556.125 66.7893 539.336 87.5 539.336C102.96 539.336 116.235 548.691 121.972 562.049C133.561 587.557 152.062 609.31 175.381 624.844C198.718 640.39 225.945 649.083 253.972 649.938C282 650.792 309.706 643.774 333.947 629.679C358.188 615.584 377.993 594.977 391.115 570.196C404.236 545.414 410.149 517.451 408.183 489.48C406.216 461.508 396.449 434.647 379.989 411.946C363.529 389.244 341.035 371.611 315.061 361.046C289.215 350.534 260.952 347.44 233.449 352.107C231.217 352.521 228.916 352.737 226.565 352.737C205.854 352.737 189.065 335.948 189.065 315.238C189.065 296.311 203.086 280.659 221.308 278.103C262.433 271.202 304.674 275.864 343.314 291.58C347.098 293.119 350.832 294.758 354.514 296.494C368.144 274.362 373.75 248.076 370.163 222.107C366.08 192.55 350.423 165.825 326.636 147.811C302.849 129.798 272.88 121.971 243.323 126.054C214.085 130.092 187.618 145.457 169.613 168.813C162.787 178.089 151.792 184.108 139.391 184.108C118.681 184.108 101.891 167.318 101.891 146.608C101.891 138.254 104.623 130.539 109.241 124.306L109.284 124.248Z" fill="black"/>
</svg>
