<svg width="180" height="270" viewBox="0 0 180 270" fill="none" xmlns="http://www.w3.org/2000/svg">
  <path
    d="M57.0312 15C57.0312 6.71571 50.3156 0 42.0313 0C38.2354 0 34.7687 1.41 32.1266 3.73483C20.688 13.3393 11.8168 25.6421 6.31726 39.5361C0.738037 53.6312 -1.19055 68.9072 0.710571 83.9467C2.61163 98.9862 8.2807 113.302 17.1918 125.565C26.1029 137.829 37.9672 147.643 51.684 154.096C65.4007 160.55 80.5254 163.435 95.6545 162.482C110.784 161.53 125.427 156.771 138.226 148.648C142.403 145.998 146.339 143.017 150 139.742V255C150 263.284 156.716 270 165 270C173.284 270 180 263.284 180 255V15C180 6.71573 173.284 0 165 0C156.716 0 150 6.71574 150 15V73.2652C149.9 83.1632 147.353 92.8863 142.581 101.566C137.713 110.423 130.686 117.906 122.153 123.321C113.619 128.737 103.857 131.909 93.7699 132.544C83.6833 133.179 73.5997 131.256 64.4547 126.954C55.3098 122.651 47.3998 116.108 41.4588 107.932C35.5178 99.7559 31.7382 90.2116 30.4707 80.1848C29.2033 70.158 30.489 59.9735 34.2087 50.5763C37.9283 41.1791 43.9614 32.8737 51.748 26.4307L51.7466 26.429C54.9801 23.6776 57.0312 19.5783 57.0312 15Z"
    fill="black" />
</svg>