<svg width="550" height="1000" viewBox="0 0 550 1000" fill="none" xmlns="http://www.w3.org/2000/svg">
<path d="M192.578 87.5C192.578 66.7893 175.789 50 155.078 50C145.588 50 136.922 53.525 130.317 59.3371C101.72 83.3482 79.5421 114.105 65.7932 148.84C51.8451 184.078 47.0236 222.268 51.7764 259.867C56.5291 297.465 70.7018 333.254 92.9796 363.913C115.257 394.572 144.918 419.106 179.21 435.241C213.502 451.375 251.313 458.587 289.136 456.205C326.959 453.824 363.568 441.928 395.566 421.621C406.007 414.994 415.847 407.542 425 399.355V687.5C425 708.211 441.789 725 462.5 725C483.211 725 500 708.211 500 687.5V87.5C500 66.7893 483.211 50 462.5 50C441.789 50 425 66.7893 425 87.5V233.163C424.751 257.908 418.382 282.216 406.454 303.915C394.282 326.056 376.714 344.764 355.381 358.303C334.048 371.842 309.641 379.774 284.425 381.361C259.208 382.949 233.999 378.141 211.137 367.384C188.274 356.627 168.5 340.27 153.647 319.83C138.794 299.39 129.345 275.529 126.177 250.462C123.008 225.395 126.223 199.934 135.522 176.441C144.821 152.948 159.904 132.184 179.37 116.077L179.366 116.072C187.45 109.194 192.578 98.9458 192.578 87.5Z" fill="black"/>
</svg>
