<svg width="162" height="270" viewBox="0 0 162 270" fill="none" xmlns="http://www.w3.org/2000/svg">
  <path
    d="M14.7099 125.054C7.50368 108.013 5.72455 89.1651 9.61473 71.0768C13.5049 52.9885 22.8753 36.5387 36.4501 23.9672C50.0249 11.3956 67.1444 3.31327 85.4776 0.820609C103.644 -1.64932 122.127 1.48791 138.455 9.80599C142.522 11.8019 145.64 15.6095 146.577 20.3983C148.167 28.5285 142.865 36.4083 134.735 37.9983C131.215 38.6866 127.742 38.0833 124.806 36.518C113.928 30.9848 101.618 28.8991 89.519 30.5441C77.2962 32.206 65.8827 37.5945 56.8323 45.9759C47.782 54.3574 41.5347 65.3245 38.9412 77.3839C37.5701 83.7589 37.2553 90.2754 37.9729 96.6806C47.5178 92.7825 57.7103 90.5337 68.1144 90.0841C85.5299 89.3315 102.789 93.6526 117.795 102.523C132.802 111.392 144.909 124.429 152.647 140.05C160.385 155.67 163.42 173.201 161.384 190.513C159.348 207.826 152.328 224.174 141.177 237.573C130.026 250.971 115.224 260.843 98.5687 265.989C81.9139 271.135 64.123 271.334 47.3575 266.561C30.5919 261.788 15.5732 252.249 4.1259 239.103L4.12822 239.101C2.31399 237.13 1.00481 234.65 0.453068 231.828C-1.1369 223.698 4.16506 215.818 12.2953 214.228C17.8902 213.134 23.3665 215.304 26.756 219.413C34.387 228.173 44.397 234.529 55.5708 237.71C66.7484 240.892 78.6096 240.76 89.7134 237.329C100.817 233.898 110.686 227.317 118.12 218.384C125.554 209.451 130.235 198.551 131.592 187.009C132.95 175.467 130.926 163.779 125.767 153.365C120.609 142.951 112.537 134.259 102.532 128.346C92.5271 122.432 81.0204 119.551 69.4095 120.053C57.9476 120.548 46.8711 124.319 37.4909 130.914C35.7231 132.257 33.6288 133.226 31.3031 133.681C24.3022 135.05 17.487 131.309 14.7135 125.052L14.7099 125.054Z"
    fill="black" />
</svg>