<svg width="505" height="1000" viewBox="0 0 505 1000" fill="none" xmlns="http://www.w3.org/2000/svg">
<path d="M86.3462 362.634C68.3307 320.032 63.8829 272.913 73.6083 227.692C83.3338 182.471 106.76 141.347 140.697 109.918C174.634 78.489 217.433 58.2832 263.266 52.0515C308.681 45.8767 354.888 53.7198 395.709 74.5149C405.876 79.5048 413.672 89.0237 416.013 100.996C419.988 121.321 406.733 141.021 386.408 144.996C377.608 146.717 368.926 145.208 361.587 141.295C334.392 127.462 303.617 122.248 273.369 126.36C242.812 130.515 214.278 143.986 191.652 164.94C169.027 185.893 153.408 213.311 146.924 243.46C143.497 259.397 142.71 275.688 144.504 291.701C168.366 281.956 193.847 276.334 219.858 275.21C263.396 273.329 306.544 284.131 344.06 306.306C381.576 328.481 411.845 361.073 431.189 400.124C450.534 439.174 458.122 483.002 453.031 526.283C447.94 569.564 430.39 610.435 402.513 643.932C374.635 677.428 337.63 702.108 295.993 714.972C254.356 727.837 209.879 728.334 167.965 716.402C126.051 704.469 88.5045 680.622 59.8863 647.756L59.8921 647.751C55.3565 642.825 52.0836 636.623 50.7042 629.57C46.7293 609.244 59.9842 589.545 80.3098 585.57C94.297 582.835 107.988 588.259 116.462 598.531C135.539 620.431 160.564 636.322 188.499 644.275C216.443 652.23 246.095 651.899 273.855 643.322C301.614 634.745 326.286 618.291 344.871 595.959C363.457 573.627 375.158 546.378 378.552 517.523C381.946 488.668 376.887 459.448 363.99 433.413C351.093 407.378 330.913 385.648 305.901 370.864C280.889 356.08 252.122 348.878 223.095 350.133C194.44 351.371 166.749 360.798 143.299 377.284C138.879 380.641 133.644 383.065 127.829 384.202C110.327 387.625 93.289 378.272 86.3554 362.63L86.3462 362.634Z" fill="black"/>
</svg>
