<svg width="180" height="270" viewBox="0 0 180 270" fill="none" xmlns="http://www.w3.org/2000/svg">
  <path fill-rule="evenodd" clip-rule="evenodd"
    d="M0 90C0 72.1997 5.27844 54.7991 15.1677 39.9987C25.0571 25.1983 39.1132 13.6628 55.5585 6.85088C72.0039 0.038991 90.0999 -1.7433 107.558 1.72937C124.868 5.17259 140.781 13.6287 153.319 26.041C156.167 28.7713 157.941 32.6142 157.941 36.8715C157.941 45.1558 151.225 51.8715 142.941 51.8715C138.763 51.8715 134.984 50.1633 132.264 47.4073C123.897 39.1054 113.269 33.4501 101.706 31.15C90.0665 28.8347 78.002 30.023 67.0378 34.5645C56.0737 39.106 46.7025 46.7967 40.1094 56.6642C33.5161 66.5316 29.9969 78.1326 29.9969 90H30V112.917C45.9227 98.6657 66.9493 90 90 90C139.706 90 180 130.294 180 180C180 229.706 139.706 270 90 270C40.2944 270 0 229.706 0 180V90ZM29.9969 180C29.9969 213.139 56.8612 240.003 90 240.003C123.139 240.003 150.003 213.139 150.003 180C150.003 146.861 123.139 119.997 90 119.997C57.0653 119.997 30.3281 146.531 30 179.389V180H29.9969Z"
    fill="black" />
</svg>