<svg width="550" height="1000" viewBox="0 0 550 1000" fill="none" xmlns="http://www.w3.org/2000/svg">
<path fill-rule="evenodd" clip-rule="evenodd" d="M50 275C50 230.499 63.1961 186.998 87.9193 149.997C112.643 112.996 147.783 84.1569 188.896 67.1272C230.01 50.0975 275.25 45.6417 318.895 54.3234C362.171 62.9315 401.952 84.0717 433.296 115.103C440.418 121.928 444.852 131.536 444.852 142.179C444.852 162.889 428.062 179.679 407.352 179.679C396.906 179.679 387.459 175.408 380.659 168.518C359.743 147.763 333.173 133.625 304.265 127.875C275.166 122.087 245.005 125.058 217.595 136.411C190.184 147.765 166.756 166.992 150.273 191.66C133.79 216.329 124.992 245.331 124.992 275H125V332.292C164.807 296.664 217.373 275 275 275C399.264 275 500 375.736 500 500C500 624.264 399.264 725 275 725C150.736 725 50 624.264 50 500V275ZM124.992 500C124.992 582.847 192.153 650.008 275 650.008C357.847 650.008 425.008 582.847 425.008 500C425.008 417.153 357.847 349.993 275 349.993C192.663 349.993 125.82 416.329 125 498.471V500H124.992Z" fill="black"/>
</svg>
