<svg width="550" height="1000" viewBox="0 0 550 1000" fill="none" xmlns="http://www.w3.org/2000/svg">
<path d="M50 275.001C50 215.327 73.7056 158.097 115.901 115.901C158.097 73.7054 215.327 50 275.001 50H462.502C482.763 50 499.27 66.0674 499.979 86.1551C500.016 87.171 500.011 88.1932 499.964 89.2195C499.825 92.2811 499.32 95.2472 498.491 98.0747L337.957 697.196C332.596 717.201 312.034 729.073 292.029 723.713C272.024 718.353 260.152 697.79 265.512 677.785L413.63 125H275.001V124.993C235.216 124.993 197.061 140.797 168.929 168.929C140.958 196.901 125.174 234.781 124.994 274.319C124.998 274.546 125 274.773 125 275.001C125 295.712 108.211 312.501 87.5002 312.501C66.7893 312.501 50 295.712 50 275.001Z" fill="black"/>
</svg>
