<svg width="180" height="270" viewBox="0 0 180 270" fill="none" xmlns="http://www.w3.org/2000/svg">
  <path
    d="M0 90C0 66.1305 9.48218 43.2387 26.3604 26.3604C43.2386 9.48211 66.1305 0 90 0H165C173.104 0 179.707 6.42691 179.99 14.462C180.005 14.8683 180.003 15.2772 179.984 15.6877C179.929 16.9124 179.727 18.0988 179.395 19.2298L115.182 258.877C113.038 266.879 104.813 271.628 96.8109 269.484C88.809 267.34 84.0602 259.114 86.2043 251.112L145.451 30H90V29.997C74.0862 29.997 58.8242 36.3187 47.5715 47.5715C36.3831 58.7599 30.0693 73.9119 29.9976 89.7272C29.9991 89.8179 30 89.9089 30 90C30 98.2843 23.2843 105 15 105C6.7157 105 0 98.2843 0 90Z"
    fill="black" />
</svg>