<svg width="180" height="270" viewBox="0 0 180 270" fill="none" xmlns="http://www.w3.org/2000/svg">
  <path fill-rule="evenodd" clip-rule="evenodd"
    d="M152.987 115.714C169.657 132.049 180 154.817 180 180C180 229.706 139.706 270 90 270C40.2944 270 0 229.706 0 180C0 154.817 10.3433 132.049 27.0132 115.714C19.8375 104.613 15.7197 91.807 15.0861 78.5918C14.4363 65.0397 17.4749 51.5652 23.8782 39.6036C30.2815 27.642 39.8096 17.6415 51.4475 10.6672C63.0854 3.69301 76.3972 0.00635631 89.965 8.21202e-06C103.533 -0.00633989 116.848 3.66786 128.492 10.6312C140.137 17.5945 149.674 27.5862 156.089 39.5418C162.503 51.4974 165.554 64.969 164.917 78.5217C164.295 91.7609 160.176 104.593 152.987 115.714ZM51.6526 98.5549C63.286 93.0679 76.2847 90 90 90C103.715 90 116.713 93.0677 128.346 98.5544L128.347 98.5549C128.844 97.7465 129.314 96.9239 129.757 96.0885C132.859 90.2402 134.642 83.7623 134.954 77.1132C135.337 68.9809 133.506 60.8972 129.657 53.7232C125.808 46.5492 120.085 40.5537 113.097 36.3753C106.11 32.1969 98.1202 29.9922 89.979 29.996C81.8376 29.9998 73.8499 32.212 66.8665 36.3969C59.8831 40.5818 54.1656 46.5827 50.3234 53.7603C46.4811 60.9379 44.6577 69.0233 45.0476 77.1553C45.4113 84.7398 47.6875 92.0999 51.6526 98.5549ZM90 240.003C56.8612 240.003 29.9969 213.139 29.9969 180C29.9969 146.861 56.8612 119.997 90 119.997C123.139 119.997 150.003 146.861 150.003 180C150.003 213.139 123.139 240.003 90 240.003Z"
    fill="black" />
</svg>