<svg width="550" height="1000" viewBox="0 0 550 1000" fill="none" xmlns="http://www.w3.org/2000/svg">
<path fill-rule="evenodd" clip-rule="evenodd" d="M432.467 339.286C474.142 380.124 500 437.042 500 500C500 624.264 399.264 725 275 725C150.736 725 50 624.264 50 500C50 437.042 75.8582 380.124 117.533 339.286C99.5938 311.533 89.2993 279.517 87.7151 246.48C86.0907 212.599 93.6871 178.913 109.695 149.009C125.704 119.105 149.524 94.1037 178.619 76.6681C207.714 59.2325 240.993 50.0159 274.912 50C308.831 49.9841 342.12 59.1696 371.231 76.578C400.342 93.9863 424.185 118.965 440.222 148.854C456.258 178.743 463.886 212.423 462.293 246.304C460.737 279.402 450.439 311.482 432.467 339.286ZM179.131 296.387C208.215 282.67 240.712 275 275 275C309.287 275 341.783 282.669 370.866 296.386L370.869 296.387C372.11 294.366 373.285 292.31 374.393 290.221C382.148 275.601 386.604 259.406 387.386 242.783C388.342 222.452 383.764 202.243 374.142 184.308C364.519 166.373 350.212 151.384 332.744 140.938C315.275 130.492 295.301 124.981 274.948 124.99C254.594 125 234.625 130.53 217.166 140.992C199.708 151.455 185.414 166.457 175.808 184.401C166.203 202.345 161.644 222.558 162.619 242.888C163.528 261.85 169.219 280.25 179.131 296.387ZM275 650.008C192.153 650.008 124.992 582.847 124.992 500C124.992 417.153 192.153 349.992 275 349.992C357.847 349.992 425.008 417.153 425.008 500C425.008 582.847 357.847 650.008 275 650.008Z" fill="black"/>
</svg>
