<svg width="550" height="1000" viewBox="0 0 550 1000" fill="none" xmlns="http://www.w3.org/2000/svg">
<path fill-rule="evenodd" clip-rule="evenodd" d="M275 50C150.736 50 50 150.736 50 275C50 399.264 150.736 500 275 500C332.627 500 385.193 478.336 425 442.708V500H425.008C425.008 529.669 416.21 558.671 399.727 583.34C383.244 608.008 359.816 627.235 332.405 638.589C304.995 649.942 274.834 652.913 245.735 647.125C216.826 641.375 190.257 627.236 169.34 606.481C162.541 599.592 153.093 595.321 142.648 595.321C121.938 595.321 105.148 612.111 105.148 632.821C105.148 643.464 109.582 653.071 116.703 659.897C120.621 663.776 124.671 667.5 128.843 671.065C158.047 696.017 193.238 713.144 231.105 720.677C274.75 729.358 319.99 724.903 361.104 707.873C402.217 690.843 437.357 662.004 462.081 625.003C486.804 588.002 500 544.501 500 500V275C500 150.736 399.264 50 275 50ZM425.008 275C425.008 192.153 357.847 124.992 275 124.992C192.153 124.992 124.992 192.153 124.992 275C124.992 357.847 192.153 425.007 275 425.007C357.337 425.007 424.18 358.671 425 276.529V275H425.008Z" fill="black"/>
</svg>
