<svg width="270" height="270" viewBox="0 0 270 270" fill="none" xmlns="http://www.w3.org/2000/svg">
  <path fill-rule="evenodd" clip-rule="evenodd"
    d="M195.316 0.0543745C187.06 -0.627295 179.814 5.51292 179.133 13.7689L175.744 54.7278C163.51 48.5064 149.665 44.9991 135 44.9991C125.583 44.9991 116.503 46.4455 107.971 49.1282L110.688 16.2417C111.369 7.98569 105.229 0.740262 96.9727 0.0585926C88.7163 -0.623077 81.4707 5.51715 80.7891 13.7732L76.4199 66.6708C74.8032 68.058 73.2368 69.5016 71.7227 70.9985H15C6.71582 70.9985 0 77.7141 0 85.9982C0 94.2823 6.71582 100.998 15 100.998H51.6436C47.3604 111.488 45 122.967 45 134.997C45 147.028 47.3604 158.507 51.6436 168.997H15C6.71582 168.997 0 175.712 0 183.996C0 192.28 6.71582 198.996 15 198.996H65.4941L60.9712 253.768C60.2896 262.024 66.4297 269.269 74.686 269.951C82.9419 270.633 90.1875 264.492 90.8691 256.236L94.2529 215.265C106.487 221.487 120.334 224.995 135 224.995C144.421 224.995 153.504 223.548 162.039 220.863L159.348 253.749C158.666 262.005 164.806 269.25 173.062 269.932C181.319 270.614 188.564 264.473 189.246 256.217L193.574 203.329C195.193 201.94 196.762 200.495 198.277 198.996L255 198.996C263.284 198.996 270 192.28 270 183.996C270 175.712 263.284 168.997 255 168.997H218.356C222.64 158.507 225 147.028 225 134.997C225 122.967 222.64 111.488 218.356 100.998L255 100.998C263.284 100.998 270 94.2823 270 85.9982C270 77.7141 263.284 70.9986 255 70.9986L204.5 70.9985L209.031 16.2375C209.713 7.98146 203.573 0.736043 195.316 0.0543745ZM135 194.999C101.861 194.999 74.9971 168.135 74.9971 134.997C74.9971 101.859 101.861 74.9955 135 74.9955C168.139 74.9955 195.003 101.859 195.003 134.997C195.003 168.135 168.139 194.999 135 194.999Z"
    fill="black" />
</svg>