<svg width="150" height="300" viewBox="0 0 150 300" fill="none" xmlns="http://www.w3.org/2000/svg">
  <path fill-rule="evenodd" clip-rule="evenodd"
    d="M75 0C69.4771 0 65 4.47716 65 10V15.6697C63.4517 15.878 61.9067 16.1351 60.3682 16.4411C45.8198 19.335 32.4561 26.4781 21.9668 36.967C11.478 47.456 4.33496 60.8197 1.44092 75.3683C-1.45264 89.9168 0.0327148 104.997 5.70898 118.701C11.3857 132.406 20.9985 144.119 33.332 152.36C42.8745 158.736 53.7134 162.812 65 164.33V253.875C62.5435 253.315 60.1279 252.547 57.7793 251.575C49.5566 248.169 42.5283 242.401 37.584 235.001C32.6392 227.6 30 218.9 30 210C30 201.716 23.2842 195 15 195C6.71582 195 0 201.716 0 210C0 224.834 4.39893 239.334 12.6396 251.668C20.8809 264.001 32.5942 273.614 46.2988 279.291C52.3208 281.785 58.6084 283.471 65 284.33V290C65 295.523 69.4771 300 75 300C80.5229 300 85 295.523 85 290V284.33C86.5483 284.122 88.0933 283.865 89.6318 283.559C104.18 280.665 117.544 273.522 128.033 263.033C138.522 252.544 145.665 239.18 148.559 224.632C151.453 210.083 149.968 195.003 144.291 181.299C138.614 167.594 129.001 155.881 116.668 147.64C107.125 141.264 96.2866 137.188 85 135.67V46.1252C87.4565 46.6851 89.8721 47.4527 92.2207 48.4255C100.443 51.8314 107.472 57.5992 112.416 64.9994C117.361 72.3996 120 81.0999 120 90C120 98.2843 126.716 105 135 105C143.284 105 150 98.2843 150 90C150 75.1664 145.602 60.666 137.36 48.3323C129.119 35.9986 117.406 26.3856 103.701 20.7091C97.6792 18.2146 91.3916 16.5295 85 15.6697V10C85 4.47715 80.5229 0 75 0ZM65 46.1253C56.7446 48.0067 49.1792 52.1815 43.1802 58.1802C36.8867 64.4736 32.6011 72.4918 30.8647 81.221C29.1284 89.9501 30.0195 98.9981 33.4253 107.221C36.8315 115.443 42.5991 122.472 49.9995 127.416C54.5874 130.482 59.6748 132.661 65 133.875V46.1253ZM85 253.875C93.2549 251.994 100.821 247.819 106.82 241.82C113.113 235.526 117.399 227.508 119.135 218.779C120.872 210.05 119.98 201.002 116.575 192.779C113.168 184.557 107.401 177.529 100 172.584C95.4126 169.518 90.3252 167.339 85 166.125V253.875Z"
    fill="black" />
</svg>