<svg width="270" height="270" viewBox="0 0 270 270" fill="none" xmlns="http://www.w3.org/2000/svg">
  <path
    d="M120 60C120 93.1371 93.1371 120 60 120C26.8629 120 0 93.1371 0 60C0 26.8629 26.8629 0 60 0C93.1371 0 120 26.8629 120 60ZM20 60C20 82.0914 37.9086 100 60 100C82.0914 100 100 82.0914 100 60C100 37.9086 82.0914 20 60 20C37.9086 20 20 37.9086 20 60Z"
    fill="black" />
  <path
    d="M270 210C270 243.137 243.137 270 210 270C176.863 270 150 243.137 150 210C150 176.863 176.863 150 210 150C243.137 150 270 176.863 270 210ZM170 210C170 232.091 187.909 250 210 250C232.091 250 250 232.091 250 210C250 187.909 232.091 170 210 170C187.909 170 170 187.909 170 210Z"
    fill="black" />
  <path
    d="M216.317 39.5405C220.222 35.6353 226.554 35.6353 230.459 39.5406C234.364 43.4458 234.364 49.7774 230.459 53.6827L53.6826 230.459C49.7773 234.365 43.4457 234.365 39.5404 230.459C35.6352 226.554 35.6352 220.222 39.5404 216.317L216.317 39.5405Z"
    fill="black" />
</svg>