<svg width="210" height="120" viewBox="0 0 210 120" fill="none" xmlns="http://www.w3.org/2000/svg">
  <path
    d="M60.0996 5.48145e-05C79.6084 0.021585 98.583 6.38185 114.164 18.1228C124.5 25.8193 137.042 29.9857 149.934 30C162.896 30.0143 175.514 25.8303 185.898 18.0762C188.423 16.1464 191.577 15 195 15C203.284 15 210 21.7157 210 30C210 34.9876 207.565 39.4066 203.82 42.1338C188.249 53.7527 169.334 60.0214 149.9 59.9999C130.392 59.9784 111.417 53.6182 95.8359 41.8772C85.5 34.1807 72.958 30.0143 60.0664 30C47.1045 29.9857 34.4863 34.1697 24.1016 41.9238C21.5771 43.8536 18.4229 45 15 45C6.71582 45 0 38.2843 0 30C0 25.0105 2.43555 20.59 6.18359 17.863C21.7549 6.24638 40.668 -0.0213838 60.0996 5.48145e-05Z"
    fill="black" />
  <path
    d="M24.1016 101.924C21.5771 103.854 18.4229 105 15 105C6.71582 105 0 98.2843 0 90C0 85.0133 2.43262 80.5949 6.17676 77.8676C6.17871 77.8662 6.18066 77.8649 6.18262 77.8636C21.7539 66.2465 40.668 59.9786 60.0996 60.0001C79.6084 60.0216 98.583 66.3818 114.164 78.1228C124.5 85.8193 137.042 89.9857 149.934 90C162.896 90.0143 175.514 85.8301 185.898 78.0755C188.423 76.1461 191.578 75 195 75C203.284 75 210 81.7157 210 90C210 94.9875 207.565 99.4066 203.82 102.134C188.249 113.753 169.334 120.021 149.9 120C130.392 119.978 111.417 113.618 95.8359 101.877C85.5 94.1807 72.958 90.0143 60.0664 90C47.1045 89.9857 34.4863 94.1697 24.1016 101.924Z"
    fill="black" />
</svg>