<svg width="535" height="1000" viewBox="0 0 535 1000" fill="none" xmlns="http://www.w3.org/2000/svg">
<path d="M288.401 129.901C246.205 172.097 222.5 229.326 222.5 289C222.5 301.542 221.133 314.016 218.441 326.205C216.271 336.031 213.239 345.672 209.37 355.013C200.701 375.942 187.995 394.958 171.976 410.977C155.958 426.995 136.942 439.701 116.013 448.37C106.672 452.239 97.0312 455.271 87.2052 457.441C72.522 460.684 59.5471 470.209 53.5406 483.111C52.1106 486.182 51.076 489.446 50.5066 492.861C50.174 494.858 50 496.907 50 499C50 500.942 50.1483 502.852 50.434 504.716C50.9851 508.309 52.0465 511.733 53.5406 514.89C59.5471 527.792 72.522 537.316 87.2052 540.559C97.0312 542.729 106.672 545.761 116.013 549.63C136.942 558.299 155.958 571.005 171.976 587.023C187.995 603.042 200.701 622.058 209.37 642.987C213.239 652.328 216.271 661.969 218.441 671.795C221.133 683.984 222.5 696.458 222.5 709C222.5 768.674 246.205 825.903 288.401 868.099C330.597 910.295 387.827 934 447.5 934C468.21 934 485 917.211 485 896.5C485 875.789 468.21 859 447.5 859V859.007C407.715 859.007 369.561 843.203 341.429 815.071C313.297 786.939 297.493 748.784 297.493 709H297.5C297.5 696.465 296.548 683.978 294.664 671.643C291.664 651.995 286.301 632.733 278.66 614.286C266.222 584.258 247.991 556.974 225.009 533.991C211.679 520.661 196.902 508.93 180.982 499C196.902 489.07 211.679 477.339 225.009 464.009C247.991 441.026 266.222 413.742 278.66 383.714C286.301 365.267 291.664 346.005 294.664 326.357C296.548 314.022 297.5 301.535 297.5 289L297.493 289C297.493 249.215 313.297 211.061 341.429 182.929C369.561 154.797 407.715 138.992 447.5 138.992V139C468.21 139 485 122.211 485 101.5C485 80.7893 468.21 64 447.5 64C387.827 64 330.597 87.7053 288.401 129.901Z" fill="black"/>
</svg>
