<svg width="535" height="1000" viewBox="0 0 535 1000" fill="none" xmlns="http://www.w3.org/2000/svg">
<path d="M50 101.5C50 80.7893 66.7896 64 87.5 64C147.173 64 204.403 87.7053 246.599 129.901C288.795 172.097 312.5 229.326 312.5 289C312.5 301.542 313.867 314.016 316.559 326.205C318.729 336.031 321.761 345.672 325.63 355.013C334.299 375.942 347.005 394.958 363.024 410.977C379.042 426.995 398.058 439.701 418.987 448.37C428.328 452.239 437.969 455.271 447.795 457.441C462.478 460.684 475.453 470.209 481.459 483.111C482.95 486.313 484.012 489.722 484.564 493.296C484.851 495.155 485 497.059 485 499C485 501.117 484.824 503.195 484.485 505.217C483.915 508.628 482.884 511.88 481.459 514.89C475.453 527.792 462.478 537.316 447.795 540.559C437.969 542.729 428.328 545.761 418.987 549.63C398.058 558.299 379.042 571.005 363.024 587.023C347.005 603.042 334.299 622.058 325.63 642.987C321.761 652.328 318.729 661.969 316.559 671.795C313.867 683.984 312.5 696.458 312.5 709C312.5 768.674 288.795 825.903 246.599 868.099C204.403 910.295 147.173 934 87.5 934C66.7896 934 50 917.211 50 896.5C50 875.789 66.7896 859 87.5 859V859.007C127.285 859.007 165.439 843.203 193.571 815.071C221.703 786.939 237.507 748.784 237.507 709H237.5C237.5 696.465 238.452 683.978 240.336 671.643C243.336 651.995 248.699 632.733 256.34 614.286C268.778 584.258 287.009 556.974 309.991 533.991C323.321 520.661 338.098 508.93 354.018 499C338.098 489.07 323.321 477.339 309.991 464.009C287.009 441.026 268.778 413.742 256.34 383.714C248.699 365.267 243.336 346.005 240.336 326.357C238.452 314.022 237.5 301.535 237.5 289L237.507 289C237.507 249.215 221.703 211.061 193.571 182.929C165.439 154.797 127.285 138.992 87.5 138.992V139C66.7896 139 50 122.211 50 101.5Z" fill="black"/>
</svg>
