<svg width="625" height="1000" viewBox="0 0 625 1000" fill="none" xmlns="http://www.w3.org/2000/svg">
<path d="M200.249 385C249.021 385.054 296.458 400.955 335.41 430.307C361.25 449.548 392.605 459.964 424.834 460C457.239 460.036 488.784 449.576 514.746 430.19C521.057 425.366 528.943 422.5 537.5 422.5C558.211 422.5 575 439.289 575 460C575 472.469 568.914 483.516 559.551 490.335C520.623 519.382 473.335 535.053 424.751 535C375.979 534.946 328.542 519.045 289.59 489.693C263.75 470.452 232.395 460.036 200.166 460C167.761 459.964 136.216 470.424 110.254 489.81C103.943 494.634 96.0571 497.5 87.5 497.5C66.7896 497.5 50 480.711 50 460C50 447.531 56.084 436.484 65.4468 429.666C104.375 400.619 151.665 384.947 200.249 385Z" fill="black"/>
</svg>
