<svg width="500" height="1000" viewBox="0 0 500 1000" fill="none" xmlns="http://www.w3.org/2000/svg">
<path fill-rule="evenodd" clip-rule="evenodd" d="M359.47 667.407C413.989 631.684 450 570.047 450 500C450 389.543 360.457 300 250 300.005L249.246 300.001C232.903 299.861 216.921 295.145 203.113 286.383C189.092 277.485 177.893 264.782 170.823 249.758C163.752 234.733 161.104 218.007 163.186 201.533C165.266 185.059 171.992 169.517 182.576 156.722C193.162 143.928 207.168 134.409 222.959 129.278C238.752 124.147 255.679 123.615 271.763 127.745C287.844 131.874 302.422 140.494 313.789 152.599C324.939 164.472 332.549 179.215 335.771 195.167C338.755 212.893 354.175 226.398 372.749 226.398C393.459 226.398 410.249 209.608 410.249 188.898C410.249 186.227 409.968 183.621 409.438 181.108C403.545 151.179 389.346 123.506 368.457 101.261C347.349 78.7825 320.281 62.7739 290.413 55.1052C260.544 47.4366 229.111 48.4244 199.785 57.9533C170.457 67.4822 144.448 85.1589 124.792 108.919C105.137 132.678 92.6465 161.54 88.7817 192.133C84.917 222.726 89.8364 253.788 102.966 281.689C112.07 301.036 124.863 318.311 140.53 332.593C133.716 337.058 127.188 341.928 120.986 347.169C77.5708 383.856 50 438.709 50 500C50 610.457 139.543 700 250 700L250.754 699.999C267.097 700.135 283.079 704.855 296.887 713.617C310.908 722.515 322.107 735.218 329.177 750.242C336.248 765.267 338.896 781.993 336.814 798.467C334.734 814.941 328.008 830.483 317.424 843.278C306.838 856.072 292.832 865.591 277.041 870.722C261.248 875.853 244.321 876.385 228.237 872.255C212.156 868.126 197.578 859.506 186.211 847.401C174.844 835.297 167.156 820.208 164.045 803.897C160.974 786.277 145.601 772.883 127.102 772.883C106.392 772.883 89.6021 789.672 89.6021 810.383C89.6021 813.184 89.9072 815.913 90.4907 818.539C96.3403 848.604 110.571 876.406 131.543 898.739C152.651 921.218 179.719 937.226 209.587 944.895C239.456 952.563 270.889 951.576 300.215 942.047C329.541 932.518 355.552 914.841 375.208 891.081C394.863 867.322 407.354 838.46 411.218 807.867C415.083 777.274 410.164 746.212 397.034 718.311C387.93 698.964 375.137 681.689 359.47 667.407ZM125 500C125 430.964 180.964 375 250 375C319.036 375 375 430.964 375 500C375 569.036 319.036 625 250 625C180.964 625 125 569.036 125 500Z" fill="black"/>
</svg>
