<svg width="475" height="1000" viewBox="0 0 475 1000" fill="none" xmlns="http://www.w3.org/2000/svg">
<path d="M275 37.5061C275 58.2168 258.211 75.0061 237.5 75.0061C216.789 75.0061 200 58.2168 200 37.5061C200 16.7954 216.789 0.00610352 237.5 0.00610352C258.211 0.00610352 275 16.7954 275 37.5061Z" fill="black"/>
<path d="M405 37.5061C405 58.2168 388.211 75.0061 367.5 75.0061C346.789 75.0061 330 58.2168 330 37.5061C330 16.7954 346.789 0.00610352 367.5 0.00610352C388.211 0.00610352 405 16.7954 405 37.5061Z" fill="black"/>
<path d="M145 37.5C145 58.2107 128.211 75 107.5 75C86.7893 75 70 58.2107 70 37.5C70 16.7893 86.7893 0 107.5 0C128.211 0 145 16.7893 145 37.5Z" fill="black"/>
</svg>
