<svg width="775" height="1000" viewBox="0 0 775 1000" fill="none" xmlns="http://www.w3.org/2000/svg">
<path d="M725 387.5C725 573.896 573.896 725 387.5 725C201.104 725 50 573.896 50 387.5C50 201.104 201.104 50 387.5 50C573.896 50 725 201.104 725 387.5ZM125 387.5C125 532.475 242.525 650 387.5 650C532.475 650 650 532.475 650 387.5C650 242.525 532.475 125 387.5 125C242.525 125 125 242.525 125 387.5Z" fill="black"/>
<path d="M531.525 507.729C506.852 537.243 473.692 558.461 436.542 568.501C399.302 578.565 359.863 576.908 323.599 563.755C287.335 550.603 256.01 526.594 233.892 495.001C211.775 463.407 199.94 425.766 200 387.206C200.061 348.645 212.014 311.041 234.231 279.517C256.448 247.994 287.848 224.083 324.153 211.045C360.458 198.006 399.902 196.472 437.111 206.654C474.319 216.835 507.482 238.236 532.081 267.94L532.073 267.947C536.406 273.31 539 280.135 539 287.565C539 304.824 525.003 318.815 507.736 318.815C497.702 318.815 488.771 314.09 483.051 306.743C466.742 287.481 444.975 273.594 420.604 266.925C395.796 260.137 369.498 261.159 345.293 269.853C321.087 278.546 300.152 294.488 285.339 315.505C270.526 336.523 262.557 361.594 262.516 387.304C262.476 413.013 270.367 438.109 285.113 459.173C299.86 480.238 320.745 496.245 344.923 505.014C369.101 513.783 395.396 514.888 420.225 508.178C444.835 501.527 466.818 487.519 483.235 468.038C488.962 460.826 497.809 456.201 507.736 456.201C525.003 456.201 539 470.192 539 487.451C539 495.19 536.186 502.271 531.525 507.729Z" fill="black"/>
</svg>
