<svg width="775" height="1000" viewBox="0 0 775 1000" fill="none" xmlns="http://www.w3.org/2000/svg">
<path d="M725 387.5C725 573.896 573.896 725 387.5 725C201.104 725 50 573.896 50 387.5C50 201.104 201.104 50 387.5 50C573.896 50 725 201.104 725 387.5ZM125 387.5C125 532.475 242.525 650 387.5 650C532.475 650 650 532.475 650 387.5C650 242.525 532.475 125 387.5 125C242.525 125 125 242.525 125 387.5Z" fill="black"/>
<path fill-rule="evenodd" clip-rule="evenodd" d="M387.999 449.999C355.985 449.999 326.781 437.963 304.666 418.17V554.165C304.666 565.671 295.339 574.998 283.833 574.998C272.327 574.998 263 565.671 263 554.165V324.999C263 255.964 318.964 200 387.999 200C457.034 200 512.998 255.964 512.998 324.999C512.998 376.35 482.034 420.469 437.758 439.703L509.254 542.25C515.835 551.688 513.518 564.674 504.08 571.255C494.642 577.835 481.656 575.518 475.075 566.08L394.043 449.855C392.04 449.951 390.025 449.999 387.999 449.999ZM387.999 241.666C434.023 241.666 471.332 278.976 471.332 324.999C471.332 371.023 434.023 408.332 387.999 408.332C341.976 408.332 304.666 371.023 304.666 324.999C304.666 278.976 341.976 241.666 387.999 241.666Z" fill="black"/>
</svg>
