<svg width="163" height="172" viewBox="0 0 163 172" fill="none" xmlns="http://www.w3.org/2000/svg">
  <path
    d="M162.993 90C162.993 71.5008 157.292 53.4509 146.667 38.3074C136.042 23.1639 121.008 11.6625 103.613 5.36874C86.2168 -0.924995 67.3042 -1.70527 49.4492 3.13412C31.6545 7.95718 15.7717 18.1285 3.94775 32.2704C1.70166 34.8929 0.344727 38.2995 0.344727 42.0231C0.344727 50.3074 7.06055 57.0231 15.3447 57.0231C20.1118 57.0231 24.3594 54.7994 27.1069 51.3327C34.9746 41.996 45.5059 35.2793 57.2957 32.0837C69.2002 28.8572 81.8098 29.3774 93.408 33.5736C105.006 37.7699 115.03 45.4382 122.114 55.5349C127.475 63.1749 130.955 71.9246 132.332 81.0739L8.93628 142.758C3.85254 145.159 0.334961 150.333 0.334961 156.328C0.334961 164.613 7.05078 171.328 15.335 171.328C17.8442 171.328 20.2097 170.712 22.2883 169.623L156.758 102.403L156.674 102.235C160.498 99.5162 162.993 95.0495 162.993 90Z"
    fill="black" />
</svg>