<svg width="270" height="270" viewBox="0 0 270 270" fill="none" xmlns="http://www.w3.org/2000/svg">
  <path fill-rule="evenodd" clip-rule="evenodd"
    d="M188.896 258.774C160.445 271.163 128.594 273.372 98.705 265.029C68.8162 256.686 42.7139 238.301 24.7917 212.969C6.86952 187.636 -1.77843 156.903 0.303606 125.942C2.38564 94.9802 15.0705 65.6813 36.223 42.9764C57.3755 20.2715 85.7042 5.54686 116.441 1.28098C147.178 -2.98491 178.446 3.46838 204.982 19.5547C231.518 35.6409 251.702 60.378 262.137 89.6021C272.573 118.826 272.621 150.753 262.275 180.009C258.295 191.256 250.012 200.462 239.247 205.604C228.478 210.747 216.106 211.402 204.854 207.424C196.408 204.438 189.112 199.026 183.823 191.958C178.291 196.697 171.969 200.703 164.942 203.763C126.965 220.3 82.7728 202.919 66.2362 164.941C49.6995 126.964 67.0806 82.7719 105.058 66.2353C143.035 49.6987 187.227 67.0798 203.764 105.057C211.7 123.283 211.824 142.941 205.609 160.286C204.394 163.959 204.644 167.965 206.315 171.464C208.03 175.054 211.101 177.816 214.852 179.143C218.604 180.469 222.728 180.25 226.319 178.536C229.909 176.821 232.672 173.75 233.998 169.998C242.042 147.246 242.003 122.417 233.887 99.6894C225.771 76.9588 210.072 57.7183 189.432 45.2064C168.792 32.6945 144.472 27.6752 120.565 30.9932C96.6576 34.3112 74.6236 45.764 58.1711 63.4239C41.7186 81.0837 31.8524 103.872 30.233 127.954C28.6136 152.036 35.34 175.94 49.2799 195.644C63.2197 215.348 83.5221 229.647 106.77 236.136C129.929 242.601 154.603 240.92 176.668 231.38C176.751 231.342 176.835 231.305 176.919 231.269C184.515 227.961 193.353 231.437 196.66 239.033C199.968 246.628 196.491 255.467 188.896 258.774ZM152.962 176.251C130.18 186.171 103.669 175.744 93.7486 152.961C83.8283 130.179 94.2551 103.668 117.038 93.7477C139.82 83.8274 166.331 94.2543 176.251 117.037C186.172 139.819 175.745 166.33 152.962 176.251Z"
    fill="black" />
</svg>