<svg width="387" height="1000" viewBox="0 0 387 1000" fill="none" xmlns="http://www.w3.org/2000/svg">
<path d="M326.083 620.083C311.438 634.727 287.694 634.727 273.05 620.083L193.499 540.533L113.95 620.083C99.3057 634.727 75.5615 634.727 60.917 620.083C46.2725 605.438 46.2725 581.694 60.917 567.049L140.468 487.5L60.917 407.951C46.2725 393.306 46.2725 369.562 60.917 354.917C75.5615 340.273 99.3057 340.273 113.95 354.917L193.499 434.467L273.05 354.917C287.694 340.273 311.438 340.273 326.083 354.917C340.728 369.562 340.728 393.306 326.083 407.951L246.532 487.5L326.083 567.049C340.728 581.694 340.728 605.438 326.083 620.083Z" fill="black"/>
</svg>
