<svg width="684" height="1000" viewBox="0 0 684 1000" fill="none" xmlns="http://www.w3.org/2000/svg">
<path d="M425.723 724.794C484.868 726.86 543.513 713.336 595.781 685.582C607.954 679.386 616.294 666.738 616.294 652.142C616.294 631.432 599.504 614.642 578.794 614.642C572.051 614.642 565.723 616.422 560.254 619.538C519.69 640.997 474.207 651.449 428.34 649.848C382.288 648.239 337.471 634.537 298.391 610.119C259.314 585.7 227.354 551.426 205.72 510.74C197.507 495.294 190.894 479.13 185.935 462.5H465C478.806 462.5 490 451.307 490 437.5C490 423.693 478.806 412.5 465 412.5H176.187C175.103 401.184 174.753 389.773 175.151 378.339C175.337 373.04 175.681 367.759 176.184 362.5H512.5C526.306 362.5 537.5 351.307 537.5 337.5C537.5 323.693 526.306 312.5 512.5 312.5H185.933C192.634 290.025 202.346 268.452 214.88 248.392C239.299 209.314 273.574 177.353 314.26 155.72C354.946 134.087 400.61 123.544 446.663 125.152C492.478 126.752 537.073 140.323 576.011 164.508C581.951 168.46 589.082 170.762 596.753 170.762C617.463 170.762 634.253 153.972 634.253 133.262C634.253 119.681 627.034 107.787 616.223 101.207C566.011 69.8606 508.437 52.2715 449.28 50.2056C390.071 48.1381 331.362 61.692 279.053 89.5052C226.743 117.318 182.678 158.411 151.284 208.652C131.223 240.759 116.787 275.878 108.44 312.5H75C61.1938 312.5 50 323.693 50 337.5C50 351.307 61.1938 362.5 75 362.5H100.928C100.601 366.897 100.359 371.305 100.205 375.721C99.7754 388.02 100.02 400.297 100.925 412.5H75C61.1938 412.5 50 423.693 50 437.5C50 451.307 61.1938 462.5 75 462.5H108.438C115.034 491.442 125.449 519.512 139.504 545.947C167.319 598.256 208.411 642.322 258.652 673.716C308.894 705.111 366.514 722.727 425.723 724.794Z" fill="black"/>
</svg>
