<svg width="625" height="1000" viewBox="0 0 625 1000" fill="none" xmlns="http://www.w3.org/2000/svg">
<path d="M200.249 315C249.021 315.054 296.458 330.955 335.41 360.307C361.25 379.548 392.605 389.964 424.834 390C457.239 390.036 488.784 379.576 514.746 360.19C521.057 355.366 528.943 352.5 537.5 352.5C558.211 352.5 575 369.289 575 390C575 402.469 568.914 413.516 559.551 420.335C520.623 449.382 473.335 465.053 424.751 465C375.979 464.946 328.543 449.045 289.59 419.693C263.75 400.452 232.395 390.036 200.166 390C167.761 389.964 136.216 400.424 110.254 419.81C103.943 424.634 96.0571 427.5 87.5 427.5C66.7896 427.5 50 410.711 50 390C50 377.526 56.0889 366.475 65.459 359.658C104.387 330.616 151.67 314.947 200.249 315Z" fill="black"/>
<path d="M110.254 569.81C103.943 574.634 96.0571 577.5 87.5 577.5C66.7896 577.5 50 560.711 50 540C50 527.533 56.0815 516.487 65.4419 509.669C65.4468 509.666 65.4517 509.662 65.4565 509.659C104.385 480.616 151.67 464.947 200.249 465C249.021 465.054 296.458 480.955 335.41 510.307C361.25 529.548 392.605 539.964 424.834 540C457.241 540.036 488.784 529.575 514.746 510.189C521.057 505.365 528.945 502.5 537.5 502.5C558.211 502.5 575 519.289 575 540C575 552.469 568.914 563.516 559.551 570.335C520.623 599.382 473.335 615.054 424.751 615C375.979 614.946 328.543 599.045 289.59 569.693C263.75 550.452 232.395 540.036 200.166 540C167.761 539.964 136.216 550.424 110.254 569.81Z" fill="black"/>
</svg>
