<svg width="775" height="1000" viewBox="0 0 775 1000" fill="none" xmlns="http://www.w3.org/2000/svg">
<path fill-rule="evenodd" clip-rule="evenodd" d="M538.291 50.1322C517.65 48.428 499.536 63.7785 497.832 84.4185L489.359 186.816C458.776 171.262 424.161 162.494 387.5 162.494C363.956 162.494 341.257 166.11 319.928 172.817L326.719 90.6005C328.423 69.9604 313.073 51.8469 292.432 50.1427C271.791 48.4385 253.677 63.7891 251.973 84.4291L241.05 216.673C237.008 220.141 233.092 223.75 229.307 227.493H87.5C66.7896 227.493 50 244.282 50 264.992C50 285.702 66.7896 302.491 87.5 302.491H179.109C168.401 328.716 162.5 357.413 162.5 387.489C162.5 417.565 168.401 446.263 179.109 472.488H87.5C66.7896 472.488 50 489.277 50 509.987C50 530.697 66.7896 547.486 87.5 547.486H213.735L202.428 684.416C200.724 705.056 216.074 723.169 236.715 724.874C257.355 726.578 275.469 711.227 277.173 690.587L285.632 588.158C316.218 603.715 350.835 612.485 387.5 612.485C411.053 612.485 433.761 608.866 455.098 602.154L448.369 684.368C446.665 705.008 462.015 723.122 482.656 724.826C503.297 726.53 521.411 711.18 523.115 690.539L533.936 558.318C537.982 554.846 541.904 551.233 545.693 547.486L687.5 547.486C708.21 547.486 725 530.697 725 509.987C725 489.277 708.21 472.488 687.5 472.488H595.891C606.599 446.263 612.5 417.565 612.5 387.489C612.5 357.413 606.599 328.716 595.891 302.491L687.5 302.491C708.21 302.491 725 285.702 725 264.992C725 244.282 708.21 227.493 687.5 227.493L561.25 227.493L572.578 90.5899C574.282 69.9499 558.932 51.8363 538.291 50.1322ZM387.5 537.494C304.653 537.494 237.493 470.334 237.493 387.489C237.493 304.644 304.653 237.485 387.5 237.485C470.347 237.485 537.507 304.644 537.507 387.489C537.507 470.334 470.347 537.494 387.5 537.494Z" fill="black"/>
</svg>
