<svg width="475" height="1000" viewBox="0 0 475 1000" fill="none" xmlns="http://www.w3.org/2000/svg">
<path fill-rule="evenodd" clip-rule="evenodd" d="M237.5 12C223.693 12 212.5 23.1929 212.5 37V51.1741C208.629 51.6949 204.767 52.3377 200.92 53.1028C164.55 60.3376 131.14 78.1952 104.917 104.418C78.6951 130.64 60.8374 164.049 53.6023 200.421C46.3684 236.792 50.0818 274.492 64.2725 308.753C78.4644 343.014 102.496 372.298 133.33 392.901C157.186 408.84 184.283 419.03 212.5 422.826V646.687C206.359 645.288 200.32 643.368 194.448 640.937C173.892 632.422 156.321 618.002 143.96 599.502C131.598 581.001 125 559.25 125 537C125 516.289 108.21 499.5 87.5 499.5C66.7896 499.5 50 516.289 50 537C50 574.084 60.9973 610.335 81.5991 641.169C102.202 672.004 131.486 696.036 165.747 710.227C180.802 716.464 196.521 720.676 212.5 722.826V737C212.5 750.807 223.693 762 237.5 762C251.307 762 262.5 750.807 262.5 737V722.826C266.371 722.305 270.233 721.662 274.08 720.897C310.45 713.663 343.86 695.805 370.083 669.583C396.305 643.36 414.163 609.951 421.398 573.58C428.632 537.208 424.919 499.508 410.728 465.247C396.536 430.986 372.504 401.702 341.67 381.1C317.814 365.16 290.717 354.97 262.5 351.174V127.313C268.641 128.713 274.68 130.632 280.552 133.064C301.108 141.578 318.679 155.998 331.04 174.498C343.402 192.999 350 214.75 350 237C350 257.711 366.79 274.5 387.5 274.5C408.21 274.5 425 257.711 425 237C425 199.916 414.004 163.665 393.401 132.831C372.798 101.996 343.514 77.9641 309.253 63.7727C294.198 57.5366 278.479 53.3238 262.5 51.1742V37C262.5 23.1929 251.307 12 237.5 12ZM212.5 127.313C191.862 132.017 172.948 142.454 157.95 157.451C142.217 173.184 131.503 193.23 127.162 215.052C122.821 236.875 125.049 259.495 133.563 280.052C142.079 300.609 156.498 318.179 174.999 330.54C186.469 338.204 199.187 343.653 212.5 346.687V127.313ZM262.5 646.687C283.137 641.984 302.052 631.547 317.05 616.55C332.783 600.816 343.497 580.771 347.838 558.948C352.179 537.125 349.951 514.505 341.437 493.948C332.921 473.392 318.502 455.821 300.001 443.46C288.531 435.796 275.813 430.347 262.5 427.313V646.687Z" fill="black"/>
</svg>
