<svg width="775" height="1000" viewBox="0 0 775 1000" fill="none" xmlns="http://www.w3.org/2000/svg">
<path d="M350 200C350 282.843 282.843 350 200 350C117.157 350 50 282.843 50 200C50 117.157 117.157 50 200 50C282.843 50 350 117.157 350 200ZM100 200C100 255.228 144.772 300 200 300C255.228 300 300 255.228 300 200C300 144.772 255.228 100 200 100C144.772 100 100 144.772 100 200Z" fill="black"/>
<path d="M725 575C725 657.843 657.843 725 575 725C492.157 725 425 657.843 425 575C425 492.157 492.157 425 575 425C657.843 425 725 492.157 725 575ZM475 575C475 630.228 519.772 675 575 675C630.228 675 675 630.228 675 575C675 519.772 630.228 475 575 475C519.772 475 475 519.772 475 575Z" fill="black"/>
<path d="M590.793 148.851C600.556 139.088 616.385 139.088 626.148 148.851C635.911 158.614 635.911 174.444 626.148 184.207L184.206 626.148C174.443 635.912 158.614 635.912 148.851 626.148C139.088 616.385 139.088 600.556 148.851 590.793L590.793 148.851Z" fill="black"/>
</svg>
