<svg width="550" height="1000" viewBox="0 0 550 1000" fill="none" xmlns="http://www.w3.org/2000/svg">
<path fill-rule="evenodd" clip-rule="evenodd" d="M424.996 200C424.996 239.929 409.395 276.214 383.955 303.092C453.157 341.466 499.999 415.261 499.999 499.997C499.999 544.736 486.941 586.425 464.429 621.461L493.938 667.15C505.174 684.547 500.179 707.76 482.782 718.996C465.384 730.233 442.173 725.239 430.936 707.841L411.987 678.502C374.048 707.661 326.548 724.997 274.999 724.997C150.736 724.997 50 624.261 50 499.997C50 415.263 96.8394 341.468 166.04 303.093C140.599 276.215 124.997 239.93 124.997 200C124.997 117.157 192.155 50 274.997 50C357.84 50 424.996 117.157 424.996 200ZM274.997 349.999L273.834 349.995C191.524 350.621 124.992 417.54 124.992 499.997C124.992 582.844 192.153 650.005 274.999 650.005C357.846 650.005 425.006 582.844 425.006 499.997C425.006 417.539 358.473 350.62 276.163 349.995L274.997 349.999ZM199.997 200C199.997 241.421 233.579 274.998 274.999 274.998C316.42 274.998 349.997 241.421 349.997 200C349.997 158.578 316.419 125 274.997 125C233.576 125 199.997 158.578 199.997 200Z" fill="black"/>
</svg>
