<svg width="481" height="1000" viewBox="0 0 481 1000" fill="none" xmlns="http://www.w3.org/2000/svg">
<path d="M402.946 137.397C419.076 133.205 430.985 118.543 430.985 101.1C430.985 80.3894 414.196 63.6001 393.485 63.6001C389.932 63.6001 386.494 64.0942 383.237 65.0175C287.673 90.693 203.233 147.153 142.991 225.662C82.6867 304.252 50 400.544 50 499.604C50 598.665 82.6867 694.957 142.991 773.546C203.295 852.136 287.846 908.631 383.531 934.27L383.532 934.265C386.702 935.135 390.039 935.6 393.485 935.6C414.196 935.6 430.985 918.811 430.985 898.1C430.985 880.489 418.845 865.713 402.476 861.685C322.935 840.262 252.657 793.241 202.504 727.88C152.253 662.391 125.015 582.151 125.015 499.604C125.015 417.058 152.253 336.817 202.504 271.328C252.755 205.84 323.212 158.762 402.946 137.397Z" fill="black"/>
</svg>
