<svg width="481" height="1000" viewBox="0 0 481 1000" fill="none" xmlns="http://www.w3.org/2000/svg">
<path d="M79.0389 137.397C62.9085 133.205 51 118.543 51 101.1C51 80.3894 67.7892 63.6001 88.4999 63.6001C92.0531 63.6001 95.4906 64.0942 98.7477 65.0175C194.312 90.693 278.752 147.153 338.994 225.662C399.298 304.252 431.985 400.544 431.985 499.604C431.985 598.665 399.298 694.957 338.994 773.546C278.69 852.136 194.139 908.631 98.4541 934.27L98.4529 934.265C95.2833 935.135 91.946 935.6 88.4999 935.6C67.7892 935.6 51 918.811 51 898.1C51 880.489 63.1402 865.713 79.5085 861.685C159.05 840.262 229.328 793.241 279.481 727.88C329.732 662.391 356.97 582.151 356.97 499.604C356.97 417.058 329.732 336.817 279.481 271.328C229.23 205.84 158.773 158.762 79.0389 137.397Z" fill="black"/>
</svg>
