<svg width="435" height="1000" viewBox="0 0 435 1000" fill="none" xmlns="http://www.w3.org/2000/svg">
<path d="M179.909 87.5C179.909 66.7893 196.699 50 217.409 50C238.121 50 254.909 66.7893 254.909 87.5V172.548L328.564 130.024C346.5 119.668 369.435 125.814 379.79 143.75C390.145 161.686 384 184.62 366.064 194.976L292.411 237.5L366.064 280.024C384 290.379 390.145 313.314 379.79 331.25C369.435 349.186 346.5 355.331 328.564 344.976L254.909 302.451V387.5C254.909 408.211 238.121 425 217.409 425C196.699 425 179.909 408.211 179.909 387.5V302.452L106.256 344.976C88.3201 355.331 65.3855 349.186 55.0303 331.25C44.6751 313.314 50.8201 290.379 68.7559 280.024L142.409 237.5L68.7559 194.976C50.8201 184.62 44.6751 161.686 55.0303 143.75C65.3855 125.814 88.3201 119.668 106.256 130.024L179.909 172.547V87.5Z" fill="black"/>
</svg>
