<svg width="175" height="1000" viewBox="0 0 175 1000" fill="none" xmlns="http://www.w3.org/2000/svg">
<path d="M115.279 712.692C121.319 706.035 125 697.197 125 687.5C125 666.789 108.211 650 87.5 650C66.7893 650 50 666.789 50 687.5C50 702.305 58.58 715.107 71.039 721.203C59.1825 730.934 46.2154 739.293 32.3789 746.094C28.0287 748.05 25 752.421 25 757.5C25 764.404 30.5964 770 37.5 770C39.604 770 41.5866 769.48 43.3264 768.562L43.3283 768.566C70.8727 755.041 95.3574 736.026 115.279 712.692Z" fill="black"/>
</svg>
