<svg width="120" height="348" viewBox="0 0 120 348" fill="none" xmlns="http://www.w3.org/2000/svg">
  <path
    d="M30 1.90735e-06L15 0C6.7157 0 0 6.71573 0 15C0 23.2843 6.7157 30 15 30H30V29.997C45.9138 29.997 61.1758 36.3187 72.4286 47.5715C83.6813 58.8242 90.0031 74.0862 90.0031 90H90V258H90.0031C90.0031 273.914 83.6813 289.176 72.4286 300.429C61.1758 311.681 45.9138 318.003 30 318.003V318H15C6.7157 318 0 324.716 0 333C0 341.284 6.7157 348 15 348H30C53.8695 348 76.7614 338.518 93.6396 321.64C110.518 304.761 120 281.869 120 258V90C120 66.1305 110.518 43.2387 93.6396 26.3604C76.7614 9.48212 53.8695 3.8147e-06 30 1.90735e-06Z"
    fill="black" />
</svg>