<svg width="175" height="1000" viewBox="0 0 175 1000" fill="none" xmlns="http://www.w3.org/2000/svg">
<path d="M87.5 475C108.211 475 125 458.211 125 437.5C125 416.789 108.211 400 87.5 400C66.7893 400 50 416.789 50 437.5C50 458.211 66.7893 475 87.5 475Z" fill="black"/>
<path d="M125 562.5C125 583.211 108.211 600 87.5 600C66.7893 600 50 583.211 50 562.5C50 541.789 66.7893 525 87.5 525C108.211 525 125 541.789 125 562.5Z" fill="black"/>
<path d="M125 687.5C125 708.211 108.211 725 87.5 725C66.7893 725 50 708.211 50 687.5C50 666.789 66.7893 650 87.5 650C108.211 650 125 666.789 125 687.5Z" fill="black"/>
</svg>
