<svg width="255" height="1000" viewBox="0 0 255 1000" fill="none" xmlns="http://www.w3.org/2000/svg">
<path d="M127.5 412C148.211 412 165 395.211 165 374.5C165 353.789 148.211 337 127.5 337C106.789 337 90 353.789 90 374.5C90 395.211 106.789 412 127.5 412Z" fill="black"/>
<path d="M165 499.5C165 520.211 148.211 537 127.5 537C106.789 537 90 520.211 90 499.5C90 478.789 106.789 462 127.5 462C148.211 462 165 478.789 165 499.5Z" fill="black"/>
<path d="M165 624.5C165 645.211 148.211 662 127.5 662C106.789 662 90 645.211 90 624.5C90 603.789 106.789 587 127.5 587C148.211 587 165 603.789 165 624.5Z" fill="black"/>
</svg>
