<svg width="175" height="1000" viewBox="0 0 175 1000" fill="none" xmlns="http://www.w3.org/2000/svg">
<path d="M125 437.5C125 458.211 108.211 475 87.5 475C66.7892 475 50 458.211 50 437.5C50 416.789 66.7892 400 87.5 400C108.211 400 125 416.789 125 437.5Z" fill="black"/>
<path d="M125 562.5C125 583.211 108.211 600 87.5 600C66.7892 600 50 583.211 50 562.5C50 541.789 66.7892 525 87.5 525C108.211 525 125 541.789 125 562.5Z" fill="black"/>
<path d="M50 687.5C50 702.305 58.58 715.107 71.039 721.203C59.1829 730.934 46.2161 739.293 32.3801 746.093C28.0293 748.049 25 752.421 25 757.5C25 764.404 30.5965 770 37.5 770C39.604 770 41.5865 769.48 43.3263 768.562L43.3282 768.566C70.8728 755.041 95.3575 736.026 115.279 712.691C121.319 706.034 125 697.197 125 687.5C125 666.789 108.211 650 87.5 650C66.7892 650 50 666.789 50 687.5Z" fill="black"/>
</svg>
