<svg width="255" height="1000" viewBox="0 0 255 1000" fill="none" xmlns="http://www.w3.org/2000/svg">
<path d="M165 374.5C165 395.211 148.211 412 127.5 412C106.789 412 90 395.211 90 374.5C90 353.789 106.789 337 127.5 337C148.211 337 165 353.789 165 374.5Z" fill="black"/>
<path d="M165 499.5C165 520.211 148.211 537 127.5 537C106.789 537 90 520.211 90 499.5C90 478.789 106.789 462 127.5 462C148.211 462 165 478.789 165 499.5Z" fill="black"/>
<path d="M90 624.5C90 639.305 98.58 652.107 111.039 658.203C99.1829 667.934 86.2161 676.293 72.3801 683.093C68.0293 685.049 65 689.421 65 694.5C65 701.404 70.5965 707 77.5 707C79.604 707 81.5865 706.48 83.3263 705.562L83.3282 705.566C110.873 692.041 135.358 673.026 155.279 649.691C161.319 643.034 165 634.197 165 624.5C165 603.789 148.211 587 127.5 587C106.789 587 90 603.789 90 624.5Z" fill="black"/>
</svg>
