<svg width="507" height="1000" viewBox="0 0 507 1000" fill="none" xmlns="http://www.w3.org/2000/svg">
<path d="M50 500.012C50 453.761 64.2525 408.634 90.817 370.774C117.381 332.913 154.968 304.158 198.459 288.423C241.951 272.687 289.235 270.737 333.875 282.836C378.364 294.894 418.073 320.324 447.635 355.68C453.25 362.237 456.643 370.754 456.643 380.063C456.643 400.775 439.852 417.565 419.141 417.565C407.222 417.565 396.603 412.006 389.734 403.339C370.063 379.996 343.734 363.203 314.258 355.214C284.495 347.147 252.969 348.447 223.972 358.938C194.975 369.43 169.915 388.602 152.203 413.845C138.801 432.946 130.099 454.821 126.658 477.696L435.163 631.913C447.873 637.917 456.667 650.852 456.667 665.842C456.667 686.554 439.877 703.344 419.165 703.344C412.891 703.344 406.977 701.803 401.781 699.08L65.5892 531.021L65.7998 530.6C56.2381 523.804 50 512.636 50 500.012Z" fill="black"/>
</svg>
