<svg width="507" height="1000" viewBox="0 0 507 1000" fill="none" xmlns="http://www.w3.org/2000/svg">
<path d="M457.667 500.012C457.667 453.761 443.415 408.634 416.85 370.774C390.285 332.913 352.699 304.158 309.208 288.423C265.716 272.687 218.432 270.737 173.792 282.836C129.303 294.894 89.594 320.324 60.0325 355.68C54.4169 362.237 51.0244 370.754 51.0244 380.063C51.0244 400.775 67.8148 417.565 88.5264 417.565C100.445 417.565 111.064 412.006 117.933 403.339C137.604 379.996 163.933 363.203 193.409 355.214C223.172 347.147 254.698 348.447 283.695 358.938C312.692 369.43 337.752 388.602 355.464 413.845C368.866 432.946 377.568 454.821 381.009 477.696L72.5044 631.913C59.7944 637.917 51 650.852 51 665.842C51 686.554 67.7904 703.344 88.502 703.344C94.7755 703.344 100.69 701.803 105.886 699.08L442.078 531.021L441.867 530.6C451.429 523.804 457.667 512.636 457.667 500.012Z" fill="black"/>
</svg>
