<svg width="550" height="1000" viewBox="0 0 550 1000" fill="none" xmlns="http://www.w3.org/2000/svg">
<path d="M87.9193 149.997C63.1958 186.998 50 230.499 50 275C50 295.711 66.7896 312.5 87.5 312.5C108.21 312.5 125 295.711 125 275L124.999 274.739L124.994 274.332C125.125 244.896 133.914 216.144 150.273 191.66C166.757 166.992 190.184 147.765 217.595 136.411C245.005 125.058 275.167 122.087 304.265 127.875C333.364 133.663 360.092 147.95 381.071 168.929C402.05 189.908 416.337 216.637 422.125 245.735C427.913 274.834 424.943 304.995 413.589 332.405C402.235 359.816 383.008 383.244 358.34 399.727C333.859 416.085 305.108 424.874 275.675 425.006C275.45 425.002 275.226 425 275 425C254.29 425 237.5 441.789 237.5 462.5C237.5 483.211 254.29 500 275 500C319.501 500 363.002 486.804 400.003 462.081C437.004 437.357 465.843 402.217 482.873 361.104C499.902 319.991 504.358 274.751 495.677 231.105C486.995 187.459 465.566 147.368 434.099 115.901C402.632 84.4343 362.541 63.0051 318.895 54.3234C275.25 45.6417 230.01 50.0975 188.896 67.1272C147.783 84.1569 112.643 112.996 87.9193 149.997Z" fill="black"/>
<path d="M275 725C295.71 725 312.5 708.211 312.5 687.5C312.5 666.789 295.71 650 275 650C254.29 650 237.5 666.789 237.5 687.5C237.5 708.211 254.29 725 275 725Z" fill="black"/>
</svg>
