<svg width="775" height="1000" viewBox="0 0 775 1000" fill="none" xmlns="http://www.w3.org/2000/svg">
<path fill-rule="evenodd" clip-rule="evenodd" d="M522.241 808.938C451.114 839.909 371.486 845.431 296.764 824.575C222.042 803.718 156.787 757.756 111.981 694.424C67.1756 631.093 45.5558 554.26 50.7608 476.856C55.9659 399.453 87.6779 326.206 140.559 269.443C193.441 212.681 264.262 175.87 341.104 165.205C417.946 154.54 496.116 170.673 562.456 210.889C628.797 251.105 679.258 312.947 705.345 386.008C731.433 459.068 731.555 538.885 705.689 612.025C695.74 640.141 675.033 663.157 648.119 676.011C621.196 688.87 590.267 690.508 562.136 680.563C541.022 673.098 522.782 659.567 509.559 641.897C495.729 653.744 479.924 663.76 462.357 671.41C367.414 712.751 256.934 669.299 215.592 574.356C174.251 479.413 217.703 368.932 312.646 327.591C407.589 286.249 518.07 329.702 559.411 424.645C579.252 470.21 579.562 519.354 564.024 562.716C560.986 571.9 561.611 581.914 565.788 590.661C570.076 599.637 577.753 606.543 587.132 609.859C596.511 613.174 606.823 612.628 615.799 608.341C624.775 604.054 631.681 596.376 634.996 586.998C655.106 530.116 655.008 468.044 634.72 411.226C614.429 354.399 575.181 306.298 523.581 275.018C471.981 243.739 411.181 231.19 351.413 239.485C291.646 247.78 236.561 276.412 195.43 320.562C154.298 364.712 129.633 421.683 125.584 481.888C121.536 542.092 138.352 601.853 173.201 651.112C208.051 700.371 258.807 736.121 316.926 752.343C374.825 768.504 436.509 764.302 491.673 740.453C491.88 740.358 492.089 740.265 492.299 740.174C511.288 731.905 533.384 740.596 541.652 759.584C549.921 778.573 541.23 800.669 522.241 808.938ZM432.407 602.629C375.451 627.43 309.174 601.362 284.373 544.406C259.572 487.45 285.64 421.172 342.596 396.372C399.552 371.571 465.829 397.638 490.63 454.594C515.431 511.551 489.364 577.828 432.407 602.629Z" fill="black"/>
</svg>
