<svg width="174" height="348" viewBox="0 0 174 348" fill="none" xmlns="http://www.w3.org/2000/svg">
  <path
    d="M95.3604 26.3604C78.4822 43.2387 69 66.1305 69 90C69 95.0168 68.4534 100.007 67.3765 104.882C66.5083 108.812 65.2957 112.669 63.748 116.405C60.2805 124.777 55.198 132.383 48.7905 138.791C42.3833 145.198 34.7769 150.28 26.4053 153.748C22.6687 155.296 18.8125 156.508 14.8821 157.376C9.00879 158.674 3.81885 162.483 1.41626 167.644C0.844238 168.873 0.43042 170.178 0.202637 171.544C0.0695801 172.343 0 173.163 0 174C0 174.777 0.0593262 175.541 0.173584 176.286C0.394043 177.724 0.818604 179.093 1.41626 180.356C3.81885 185.517 9.00879 189.326 14.8821 190.624C18.8125 191.492 22.6687 192.704 26.4053 194.252C34.7769 197.72 42.3833 202.802 48.7905 209.209C55.198 215.617 60.2805 223.223 63.748 231.595C65.2957 235.331 66.5083 239.188 67.3765 243.118C68.4534 247.993 69 252.983 69 258C69 281.869 78.4822 304.761 95.3604 321.64C112.239 338.518 135.131 348 159 348C167.284 348 174 341.284 174 333C174 324.716 167.284 318 159 318V318.003C143.086 318.003 127.824 311.681 116.572 300.429C105.319 289.176 98.9971 273.914 98.9971 258H99C99 252.986 98.6191 247.991 97.8657 243.057C96.6658 235.198 94.5205 227.493 91.4641 220.114C86.4888 208.103 79.1965 197.189 70.0037 187.996C64.6716 182.664 58.761 177.972 52.3928 174C58.761 170.028 64.6716 165.336 70.0037 160.004C79.1965 150.811 86.4888 139.897 91.4641 127.886C94.5205 120.507 96.6658 112.802 97.8657 104.943C98.6191 100.009 99 95.0139 99 90L98.9971 90C98.9971 74.0862 105.319 58.8242 116.572 47.5715C127.824 36.3187 143.086 29.997 159 29.997V30C167.284 30 174 23.2843 174 15C174 6.71573 167.284 0 159 0C135.131 0 112.239 9.48211 95.3604 26.3604Z"
    fill="black" />
</svg>