<svg width="174" height="348" viewBox="0 0 174 348" fill="none" xmlns="http://www.w3.org/2000/svg">
  <path
    d="M0 15C0 6.71573 6.71582 0 15 0C38.8694 0 61.7612 9.48211 78.6396 26.3604C95.5178 43.2387 105 66.1305 105 90C105 95.0168 105.547 100.007 106.624 104.882C107.492 108.812 108.704 112.669 110.252 116.405C113.719 124.777 118.802 132.383 125.209 138.791C131.617 145.198 139.223 150.28 147.595 153.748C151.331 155.296 155.188 156.508 159.118 157.376C164.991 158.674 170.181 162.483 172.584 167.644C173.18 168.925 173.605 170.289 173.825 171.718C173.94 172.462 174 173.224 174 174C174 174.847 173.929 175.678 173.794 176.487C173.566 177.851 173.154 179.152 172.584 180.356C170.181 185.517 164.991 189.326 159.118 190.624C155.188 191.492 151.331 192.704 147.595 194.252C139.223 197.72 131.617 202.802 125.209 209.209C118.802 215.617 113.719 223.223 110.252 231.595C108.704 235.331 107.492 239.188 106.624 243.118C105.547 247.993 105 252.983 105 258C105 281.869 95.5178 304.761 78.6396 321.64C61.7612 338.518 38.8694 348 15 348C6.71582 348 0 341.284 0 333C0 324.716 6.71582 318 15 318V318.003C30.9138 318.003 46.1758 311.681 57.4285 300.429C68.6812 289.176 75.0029 273.914 75.0029 258H75C75 252.986 75.3809 247.991 76.1343 243.057C77.3342 235.198 79.4795 227.493 82.5359 220.114C87.5112 208.103 94.8035 197.189 103.996 187.996C109.328 182.664 115.239 177.972 121.607 174C115.239 170.028 109.328 165.336 103.996 160.004C94.8035 150.811 87.5112 139.897 82.5359 127.886C79.4795 120.507 77.3342 112.802 76.1343 104.943C75.3809 100.009 75 95.0139 75 90L75.0029 90C75.0029 74.0862 68.6812 58.8242 57.4285 47.5715C46.1758 36.3187 30.9138 29.997 15 29.997V30C6.71582 30 0 23.2843 0 15Z"
    fill="black" />
</svg>