<svg width="210" height="60" viewBox="0 0 210 60" fill="none" xmlns="http://www.w3.org/2000/svg">
  <path
    d="M60.0996 5.48035e-05C79.6084 0.021585 98.583 6.38185 114.164 18.1228C124.5 25.8193 137.042 29.9857 149.934 30C162.896 30.0143 175.514 25.8303 185.898 18.0762C188.423 16.1464 191.577 15 195 15C203.284 15 210 21.7157 210 30C210 34.9876 207.565 39.4066 203.82 42.1338C188.249 53.7527 169.334 60.0214 149.9 59.9999C130.392 59.9784 111.417 53.6182 95.8359 41.8772C85.5 34.1807 72.958 30.0143 60.0664 30C47.1045 29.9857 34.4863 34.1697 24.1016 41.9238C21.5771 43.8536 18.4229 45 15 45C6.71582 45 0 38.2843 0 30C0 25.0125 2.43359 20.5938 6.17871 17.8665C21.75 6.24764 40.666 -0.0213838 60.0996 5.48035e-05Z"
    fill="black" />
</svg>