<svg width="160" height="360" viewBox="0 0 160 360" fill="none" xmlns="http://www.w3.org/2000/svg">
  <path fill-rule="evenodd" clip-rule="evenodd"
    d="M123.788 246.963C145.596 232.673 160 208.019 160 180C160 135.817 124.183 100 80 100.002L79.6982 100.001C73.1611 99.9443 66.7686 98.0582 61.2451 94.553C55.6367 90.9941 51.1572 85.9129 48.3291 79.9031C45.501 73.8932 44.4414 67.2027 45.2744 60.6131C46.1064 54.0235 48.7969 47.8067 53.0303 42.689C57.2646 37.5712 62.8672 33.7638 69.1836 31.7113C75.501 29.6588 82.2715 29.446 88.7051 31.0978C95.1377 32.7496 100.969 36.1978 105.516 41.0396C109.976 45.7887 113.02 51.6862 114.309 58.0669C115.502 65.1574 121.67 70.5591 129.1 70.5591C137.384 70.5591 144.1 63.8434 144.1 55.5591C144.1 54.4907 143.987 53.4484 143.775 52.4432C141.418 40.4718 135.738 29.4026 127.383 20.5044C118.939 11.513 108.112 5.10956 96.165 2.0421C84.2178 -1.02537 71.6445 -0.630239 59.9141 3.18133C48.1826 6.9929 37.7793 14.0635 29.917 23.5674C22.0547 33.0713 17.0586 44.6161 15.5127 56.8533C13.9668 69.0906 15.9346 81.5151 21.1865 92.6757C24.8281 100.415 29.9453 107.324 36.2119 113.037C33.4863 114.823 30.875 116.771 28.3945 118.868C11.0283 133.542 0 155.483 0 180C0 224.183 35.8174 260 80 260L80.3018 259.999C86.8389 260.054 93.2314 261.942 98.7549 265.447C104.363 269.006 108.843 274.087 111.671 280.097C114.499 286.107 115.559 292.797 114.726 299.387C113.894 305.977 111.203 312.193 106.97 317.311C102.735 322.429 97.1328 326.236 90.8164 328.289C84.499 330.341 77.7285 330.554 71.2949 328.902C64.8623 327.25 59.0312 323.802 54.4844 318.96C49.9375 314.119 46.8623 308.083 45.6182 301.559C44.3896 294.511 38.2402 289.153 30.8408 289.153C22.5566 289.153 15.8408 295.869 15.8408 304.153C15.8408 305.274 15.9629 306.365 16.1963 307.416C18.5361 319.442 24.2285 330.562 32.6172 339.496C41.0605 348.487 51.8877 354.89 63.835 357.958C75.7822 361.025 88.3555 360.63 100.086 356.819C111.816 353.007 122.221 345.936 130.083 336.433C137.945 326.929 142.941 315.384 144.487 303.147C146.033 290.909 144.065 278.485 138.813 267.324C135.172 259.585 130.055 252.676 123.788 246.963ZM30 180C30 152.386 52.3857 130 80 130C107.614 130 130 152.386 130 180C130 207.614 107.614 230 80 230C52.3857 230 30 207.614 30 180Z"
    fill="black" />
</svg>