<svg width="400" height="1000" viewBox="0 0 400 1000" fill="none" xmlns="http://www.w3.org/2000/svg">
<path d="M50 289C50 229.326 73.7054 172.097 115.901 129.901C158.097 87.7053 215.326 64 275 64H312.5C333.211 64 350 80.7893 350 101.5C350 122.211 333.211 139 312.5 139H275V138.992C235.215 138.992 197.061 154.797 168.929 182.929C140.797 211.061 124.992 249.215 124.992 289L125 289V709H124.992C124.992 748.784 140.797 786.939 168.929 815.071C197.061 843.203 235.215 859.007 275 859.007V859H312.5C333.211 859 350 875.789 350 896.5C350 917.211 333.211 934 312.5 934H275C215.326 934 158.097 910.295 115.901 868.099C73.7054 825.903 50 768.674 50 709V289Z" fill="black"/>
</svg>
