<svg width="400" height="1000" viewBox="0 0 400 1000" fill="none" xmlns="http://www.w3.org/2000/svg">
<path d="M125 64L87.5 64C66.7892 64 50 80.7893 50 101.5C50 122.211 66.7892 139 87.5 139H125V138.993C164.785 138.993 202.939 154.797 231.071 182.929C259.203 211.061 275.008 249.216 275.008 289H275V709H275.008C275.008 748.784 259.203 786.939 231.071 815.071C202.939 843.203 164.785 859.007 125 859.007V859H87.5C66.7892 859 50 875.789 50 896.5C50 917.211 66.7892 934 87.5 934H125C184.674 934 241.903 910.295 284.099 868.099C326.295 825.903 350 768.674 350 709V289C350 229.326 326.295 172.097 284.099 129.901C241.903 87.7053 184.674 64 125 64Z" fill="black"/>
</svg>
